<svg width="61" height="61" viewBox="0 0 61 61" fill="none" xmlns="http://www.w3.org/2000/svg">
<path d="M34.9604 18.6689C34.9604 21.0856 33.0013 23.0447 30.5846 23.0447C28.1679 23.0447 26.2087 21.0856 26.2087 18.6689C26.2087 16.2522 28.1679 14.2931 30.5846 14.2931C33.0013 14.2931 34.9604 16.2522 34.9604 18.6689Z" fill="#2897FD" stroke="black"/>
<path d="M60.3 31.6711C60.3 33.2718 59.0024 34.5694 57.4017 34.5694C55.801 34.5694 54.5034 33.2718 54.5034 31.6711C54.5034 30.0704 55.801 28.7728 57.4017 28.7728C59.0024 28.7728 60.3 30.0704 60.3 31.6711Z" fill="#2897FD" stroke="black"/>
<path d="M45.4509 40.0191C45.4509 41.6198 44.1533 42.9174 42.5526 42.9174C40.9519 42.9174 39.6543 41.6198 39.6543 40.0191C39.6543 38.4185 40.9519 37.1208 42.5526 37.1208C44.1533 37.1208 45.4509 38.4185 45.4509 40.0191Z" fill="#2897FD" stroke="black"/>
<path d="M33.4832 46.2986C33.4832 47.6137 32.4171 48.6798 31.102 48.6798C29.7869 48.6798 28.7208 47.6137 28.7208 46.2986C28.7208 44.9836 29.7869 43.9175 31.102 43.9175C32.4171 43.9175 33.4832 44.9836 33.4832 46.2986Z" fill="#2897FD" stroke="black"/>
<path d="M45.8204 55.6809C45.8204 56.6288 45.052 57.3972 44.1041 57.3972C43.1562 57.3972 42.3878 56.6288 42.3878 55.6809C42.3878 54.733 43.1562 53.9646 44.1041 53.9646C45.052 53.9646 45.8204 54.733 45.8204 55.6809Z" fill="#2897FD" stroke="black"/>
<path d="M32.7442 59.1529C32.7442 59.8968 32.1412 60.4998 31.3973 60.4998C30.6534 60.4998 30.0504 59.8968 30.0504 59.1529C30.0504 58.4091 30.6534 57.806 31.3973 57.806C32.1412 57.806 32.7442 58.4091 32.7442 59.1529Z" fill="#2897FD" stroke="black"/>
<path d="M56.9016 46.1508C56.9016 47.4659 55.8355 48.532 54.5204 48.532C53.2054 48.532 52.1393 47.4659 52.1393 46.1508C52.1393 44.8357 53.2054 43.7697 54.5204 43.7697C55.8355 43.7697 56.9016 44.8357 56.9016 46.1508Z" fill="#2897FD" stroke="black"/>
<path d="M58.3792 19.8509C58.3792 22.2676 56.4201 24.2267 54.0034 24.2267C51.5867 24.2267 49.6276 22.2676 49.6276 19.8509C49.6276 17.4342 51.5867 15.4751 54.0034 15.4751C56.4201 15.4751 58.3792 17.4342 58.3792 19.8509Z" fill="#2897FD" stroke="black"/>
<path d="M12.5021 19.8509C12.5021 22.2676 10.543 24.2267 8.12631 24.2267C5.70961 24.2267 3.75049 22.2676 3.75049 19.8509C3.75049 17.4342 5.70961 15.4751 8.12631 15.4751C10.543 15.4751 12.5021 17.4342 12.5021 19.8509Z" fill="#2897FD" stroke="black"/>
<path d="M48.2581 9.28671C48.2581 11.7034 46.299 13.6625 43.8823 13.6625C41.4656 13.6625 39.5065 11.7034 39.5065 9.28671C39.5065 6.87001 41.4656 4.91089 43.8823 4.91089C46.299 4.91089 48.2581 6.87001 48.2581 9.28671Z" fill="#2897FD" stroke="black"/>
<path d="M22.106 9.28671C22.106 11.7034 20.1469 13.6625 17.7302 13.6625C15.3135 13.6625 13.3544 11.7034 13.3544 9.28671C13.3544 6.87001 15.3135 4.91089 17.7302 4.91089C20.1469 4.91089 22.106 6.87001 22.106 9.28671Z" fill="#2897FD" stroke="black"/>
<path d="M23.7314 25.9088C23.7314 28.3255 21.7723 30.2846 19.3556 30.2846C16.9389 30.2846 14.9797 28.3255 14.9797 25.9088C14.9797 23.4921 16.9389 21.533 19.3556 21.533C21.7723 21.533 23.7314 23.4921 23.7314 25.9088Z" fill="#2897FD" stroke="black"/>
<path d="M23.7314 40.0191C23.7314 42.4358 21.7723 44.3949 19.3556 44.3949C16.9389 44.3949 14.9797 42.4358 14.9797 40.0191C14.9797 37.6024 16.9389 35.6433 19.3556 35.6433C21.7723 35.6433 23.7314 37.6024 23.7314 40.0191Z" fill="#2897FD" stroke="black"/>
<path d="M9.25164 33.2225C9.25164 35.6392 7.29252 37.5983 4.87582 37.5983C2.45912 37.5983 0.5 35.6392 0.5 33.2225C0.5 30.8058 2.45912 28.8467 4.87582 28.8467C7.29252 28.8467 9.25164 30.8058 9.25164 33.2225Z" fill="#2897FD" stroke="black"/>
<path d="M12.5021 45.9292C12.5021 48.3459 10.543 50.305 8.12631 50.305C5.70961 50.305 3.75049 48.3459 3.75049 45.9292C3.75049 43.5125 5.70961 41.5533 8.12631 41.5533C10.543 41.5533 12.5021 43.5125 12.5021 45.9292Z" fill="#2897FD" stroke="black"/>
<path d="M22.106 55.6809C22.106 58.0976 20.1469 60.0567 17.7302 60.0567C15.3135 60.0567 13.3544 58.0976 13.3544 55.6809C13.3544 53.2642 15.3135 51.3051 17.7302 51.3051C20.1469 51.3051 22.106 53.2642 22.106 55.6809Z" fill="#2897FD" stroke="black"/>
<path d="M46.9284 25.9088C46.9284 28.3255 44.9693 30.2846 42.5526 30.2846C40.1359 30.2846 38.1768 28.3255 38.1768 25.9088C38.1768 23.4921 40.1359 21.533 42.5526 21.533C44.9693 21.533 46.9284 23.4921 46.9284 25.9088Z" fill="#2897FD" stroke="black"/>
<path d="M34.9604 5.59286C34.9604 8.00956 33.0013 9.96868 30.5846 9.96868C28.1679 9.96868 26.2087 8.00956 26.2087 5.59286C26.2087 3.17616 28.1679 1.21704 30.5846 1.21704C33.0013 1.21704 34.9604 3.17616 34.9604 5.59286Z" fill="#2897FD" stroke="black"/>
<path d="M34.9604 31.6711C34.9604 34.0878 33.0013 36.0469 30.5846 36.0469C28.1679 36.0469 26.2087 34.0878 26.2087 31.6711C26.2087 29.2544 28.1679 27.2953 30.5846 27.2953C33.0013 27.2953 34.9604 29.2544 34.9604 31.6711Z" fill="#2897FD" stroke="black"/>
</svg>
