<svg width="200" height="45" viewBox="0 0 200 45" fill="none" xmlns="http://www.w3.org/2000/svg">
<path d="M180.927 38.0088C180.831 37.9103 180.253 37.8118 180.253 37.8118C179.483 37.7133 179.194 37.0241 178.905 36.6302C178.808 36.5317 178.808 36.4333 178.712 36.3348C178.616 36.1379 178.134 35.1532 177.749 34.267C177.363 33.2823 176.593 31.2144 175.918 29.5405C175.244 27.8665 174.377 25.6017 173.992 24.4201C173.51 23.2385 172.643 21.0722 172.161 19.4967C172.065 19.2998 171.969 19.0044 171.872 18.8074C171.487 17.8228 171.294 17.3304 171.294 17.3304C171.198 17.035 170.716 17.2319 170.716 17.2319C170.716 17.2319 170.524 17.3304 170.235 17.4289L169.175 18.0197L168.404 19.9891C167.923 21.0722 167.249 23.0416 166.671 24.3217C165.707 26.7834 165.129 28.2604 164.455 29.9344C164.262 30.4267 163.684 31.9037 163.203 33.1838C162.721 34.4639 162.143 35.744 162.047 35.9409C162.047 35.9409 162.047 36.0394 161.95 36.0394C161.661 36.5317 161.18 37.5164 160.313 37.7133C160.313 37.7133 159.831 37.7133 159.638 37.9103C159.446 38.1072 159.446 38.2057 159.446 38.2057V38.4026C159.446 38.4026 159.446 38.5011 159.542 38.5996C159.638 38.698 159.735 38.698 159.735 38.698H162.914H166.285C166.285 38.698 166.478 38.698 166.574 38.698C166.671 38.5996 166.671 38.5011 166.671 38.5011V38.3042C166.671 38.3042 166.671 38.0088 166.478 37.9103C166.382 37.8118 165.9 37.7133 165.9 37.7133C164.551 37.5164 164.359 36.5317 164.455 35.547C164.551 35.0547 165.129 33.3807 165.707 31.7068L165.9 31.116H169.368C171.294 31.116 172.932 31.116 173.028 31.116C173.221 31.116 173.414 31.6083 173.992 33.1838C174.955 35.547 175.051 35.8424 174.762 36.3348V36.4333C174.57 36.8271 174.184 37.7133 173.221 37.8118C173.221 37.8118 172.739 37.8118 172.547 38.0088C172.45 38.2057 172.45 38.3042 172.45 38.3042V38.5011C172.45 38.5011 172.45 38.5996 172.547 38.698C172.643 38.7965 172.739 38.698 172.739 38.698H175.918H180.35H180.542C180.542 38.5996 180.638 38.5996 180.638 38.5996V38.3042C181.024 38.3042 181.024 38.1072 180.927 38.0088ZM169.849 28.8512C168.019 28.8512 166.96 28.8512 166.96 28.7527C166.96 28.6543 167.056 28.4573 167.056 28.2604C167.152 27.965 167.73 26.1926 169.079 22.4508C169.271 21.86 169.464 21.3676 169.464 21.2691C169.56 21.0722 169.657 21.2691 169.946 22.0569C170.138 22.4508 170.331 23.14 170.524 23.4354C170.62 23.8293 171.102 24.814 171.391 25.6017C171.68 26.488 172.161 27.5711 172.354 27.965C172.547 28.4573 172.643 28.7527 172.643 28.7527C172.643 28.7527 171.391 28.8512 169.849 28.8512ZM198.652 21.4661C197.882 18.9059 195.666 17.3304 192.487 17.2319C192.006 17.2319 191.428 17.2319 190.85 17.2319C189.501 17.2319 188.056 17.2319 187.093 17.3304H186.707C185.551 17.3304 184.01 17.5274 183.336 17.5274C183.143 17.5274 183.143 17.5274 183.047 17.6258C183.047 17.7243 183.047 17.8228 183.047 17.8228C183.047 17.8228 183.047 18.2166 183.047 18.3151C183.047 18.4136 183.432 18.4136 183.432 18.512C183.625 18.6105 183.721 18.6105 183.914 18.6105C184.684 18.8074 185.262 18.9059 185.551 19.4967C185.744 19.7921 185.744 21.1707 185.744 27.965C185.744 35.1532 185.744 36.0394 185.551 36.5317C185.359 37.1225 184.877 37.4179 183.817 37.7133C183.817 37.7133 183.336 37.8118 183.239 37.9103C183.143 38.0088 183.143 38.3042 183.143 38.3042C183.143 38.3042 183.143 38.5996 183.239 38.698C183.336 38.7965 183.625 38.7965 183.625 38.7965H186.322H190.753C190.753 38.7965 190.946 38.7965 191.042 38.698C191.139 38.5996 191.139 38.3042 191.139 38.3042C191.139 38.3042 191.139 38.0088 191.042 37.9103C190.946 37.8118 190.464 37.7133 190.464 37.7133C189.405 37.4179 188.923 37.1225 188.73 36.6302C188.538 36.2363 188.538 35.1532 188.538 32.8884V29.6389C188.634 29.7374 188.73 29.7374 188.827 29.8359C189.308 30.1313 189.983 30.6236 192.391 30.7221C195.281 30.8206 197.111 29.442 198.074 27.965C198.941 26.488 199.423 24.0263 198.652 21.4661ZM194.799 27.8665C193.643 28.9497 191.331 29.3435 189.79 28.9497C189.308 28.8512 189.019 28.7527 188.827 28.5558L188.441 28.3589V24.4201C188.441 21.9584 188.441 20.3829 188.538 20.0875C188.634 18.8074 190.464 18.6105 191.428 18.6105C195.377 18.6105 196.148 21.9584 196.244 23.7309C196.051 25.0109 195.955 26.7834 194.799 27.8665ZM159.349 17.035C156.267 17.035 156.171 17.035 156.171 17.5274C156.171 17.9212 156.363 18.1182 156.845 18.1182C157.904 18.1182 158.29 18.4136 158.29 19.1028C158.29 19.5952 153.184 33.8731 152.895 34.1685C152.703 34.3654 148.079 21.1707 147.886 19.9891C147.693 18.8074 148.175 18.2166 149.331 18.2166C149.813 18.2166 149.909 18.0197 149.909 17.6258C149.909 17.1335 149.716 17.1335 145.767 17.1335C141.817 17.1335 141.625 17.1335 141.625 17.6258C141.625 17.9212 141.817 18.2166 142.106 18.2166C142.973 18.2166 144.033 19.0044 144.322 19.8906C144.707 21.0722 144.418 22.2538 142.01 28.8512L139.987 34.4639L139.505 33.3807C139.216 32.7899 137.964 29.3435 136.712 25.7002C134.111 18.512 134.111 18.2166 135.845 18.2166C136.423 18.2166 136.615 18.1182 136.615 17.6258C136.615 17.1335 136.423 17.1335 132.666 17.1335C128.813 17.1335 128.716 17.1335 128.813 17.6258C128.909 17.9212 129.198 18.2166 129.583 18.2166C129.872 18.2166 130.45 18.512 130.739 18.9059C131.125 19.2998 132.858 23.7309 134.881 29.0481L138.446 38.5996L139.409 38.698L140.372 38.7965L142.877 32.0022C144.225 28.2604 145.574 24.9125 145.67 24.6171C145.959 23.9278 146.056 24.0263 146.826 26.291C147.308 27.5711 148.56 30.919 149.62 33.6761L151.547 38.7965H152.414C152.895 38.7965 153.377 38.5996 153.377 38.4026C153.473 38.2057 154.726 34.9562 156.171 31.2144C157.615 27.4726 159.157 23.337 159.735 21.9584C160.891 18.9059 161.083 18.512 162.047 18.2166C162.432 18.1182 162.817 17.7243 162.817 17.5274C162.528 17.1335 162.047 17.035 159.349 17.035ZM108.005 37.221C107.716 37.221 107.138 37.0241 106.849 36.8271C106.368 36.5317 106.368 36.0394 106.271 27.8665C106.175 19.4967 106.175 19.2013 106.753 18.709C107.042 18.4136 107.62 18.2166 108.005 18.2166C108.487 18.2166 108.679 18.1182 108.679 17.6258C108.679 17.1335 108.487 17.1335 104.634 17.1335C100.78 17.1335 100.588 17.1335 100.588 17.6258C100.588 18.0197 100.78 18.2166 101.358 18.2166C101.744 18.2166 102.322 18.4136 102.611 18.512C103.092 18.9059 103.092 19.3982 103.189 26.8818C103.285 36.3348 103.189 36.8271 101.647 37.1225C100.877 37.221 100.588 37.4179 100.588 37.8118C100.588 38.3042 100.877 38.3042 104.634 38.3042C108.487 38.3042 108.679 38.3042 108.679 37.8118C108.679 37.4179 108.487 37.221 108.005 37.221ZM92.7849 17.2319C89.2207 17.1335 89.1243 17.1335 89.1243 17.7243C89.1243 18.1182 89.317 18.2166 89.7987 18.2166C90.0877 18.2166 90.762 18.512 91.1473 18.9059L91.9179 19.4967L92.0143 26.0941C92.0143 29.8359 92.0143 32.6915 91.8216 32.6915C91.7253 32.6915 90.8583 31.9037 89.9913 30.8206C89.1243 29.8359 86.6198 26.9803 84.5005 24.6171C82.3812 22.2538 79.9729 19.5952 79.2986 18.709L77.95 17.1335H75.1564C72.5555 17.1335 72.3628 17.1335 72.3628 17.6258C72.3628 18.0197 72.5555 18.2166 73.1335 18.2166C74.4821 18.2166 75.2527 18.709 75.5417 19.9891C75.7344 20.6783 75.8307 23.8293 75.7344 28.3589C75.6381 36.4333 75.5417 37.0241 73.9041 37.3195C73.4224 37.4179 73.1335 37.6149 73.1335 38.0088C73.1335 38.5011 73.4224 38.5011 76.8904 38.5011C80.2619 38.5011 80.6472 38.5011 80.6472 38.0088C80.6472 37.7133 80.3583 37.4179 79.4913 37.221C78.4316 36.9256 78.239 36.8271 78.0463 35.8424C77.7573 34.6608 77.661 22.3523 77.95 22.4508C78.0463 22.4508 79.106 23.5339 80.2619 24.9125C81.4179 26.291 84.5968 29.9344 87.2941 32.9869C91.5326 37.7133 92.3033 38.5011 92.9776 38.5011H93.7482L93.8446 28.8512C93.9409 21.9584 94.0372 19.1028 94.2299 18.8074C94.4225 18.6105 94.9042 18.4136 95.3858 18.3151C95.9638 18.2166 96.2528 18.0197 96.2528 17.7243C96.5418 17.3304 95.8675 17.2319 92.7849 17.2319ZM64.9453 17.035C61.9591 17.035 61.7664 17.035 61.7664 17.5274C61.7664 17.9212 61.9591 18.1182 62.6334 18.1182C64.0784 18.2166 64.1747 18.8074 64.1747 25.6017C64.1747 32.4945 63.982 33.7746 62.5371 35.2516C61.1884 36.5317 60.1288 37.0241 58.2985 37.0241C55.6976 37.0241 53.771 35.744 53.193 33.5777C53.0003 32.7899 52.904 30.1313 53.0003 25.5033L53.0967 18.512L54.06 18.2166C54.638 18.0197 55.0233 17.7243 55.1196 17.4289C55.2159 17.035 54.8306 17.035 51.459 17.035C47.7985 17.035 47.7021 17.035 47.7021 17.5274C47.7021 17.9212 47.8948 18.1182 48.3765 18.1182C49.6288 18.1182 49.7251 18.512 49.9178 26.3895C50.0141 33.2823 50.1104 33.8731 50.5921 34.8578C51.3627 36.3348 52.4224 37.3195 54.06 38.0088C55.1196 38.5011 55.8903 38.698 58.1059 38.698C60.5141 38.698 60.9958 38.5996 62.3444 37.9103C63.2114 37.4179 64.271 36.7287 64.6564 36.1379C66.1976 34.267 66.3903 33.3807 66.4866 25.6017C66.6793 18.2166 66.6793 18.0197 67.9316 18.0197C68.2206 18.0197 68.4132 17.8228 68.4132 17.4289C68.2206 17.1335 68.0279 17.035 64.9453 17.035ZM125.537 29.8359C124.959 28.6543 123.418 27.3742 120.721 25.7002C117.927 24.0263 116.675 22.7462 116.579 21.4661C116.29 19.4967 118.024 17.9212 120.335 17.9212C122.166 17.9212 122.936 18.3151 123.611 19.7921C123.996 20.6783 124.285 20.9737 124.767 20.9737C125.345 20.9737 125.345 20.8753 125.248 20.3829C125.152 19.9891 125.056 19.2013 125.056 18.512C125.056 17.6258 124.959 17.2319 124.574 17.035C123.803 16.7396 119.18 16.5427 118.216 16.8381C114.652 17.7243 113.014 20.5799 114.074 23.9278C114.556 25.4048 115.808 26.8818 117.831 27.965C121.202 29.9344 122.166 30.7221 122.744 32.0022C123.225 32.9869 123.225 33.3807 123.033 34.267C122.455 36.4333 121.01 37.6149 118.891 37.6149C116.771 37.6149 115.23 36.3348 114.845 34.3654C114.748 33.5777 114.556 33.2823 114.17 33.2823C113.689 33.2823 113.689 33.4792 113.689 35.547V37.8118L115.037 38.3042C117.253 39.0919 120.335 38.9934 122.262 38.1072C125.826 36.4333 127.175 32.9869 125.537 29.8359ZM17.936 22.2538C17.358 21.86 16.3947 22.1554 16.3947 22.8446C16.3947 23.14 16.8763 23.4354 17.358 23.4354C17.647 23.4354 18.0323 23.2385 18.225 23.0416C18.3213 22.7462 18.225 22.4508 17.936 22.2538ZM18.1286 21.9584C17.8396 21.7615 17.069 21.7615 16.6837 21.86C16.202 22.0569 15.624 22.6477 15.4314 23.2385C15.335 23.6324 15.4314 24.2232 15.5277 24.4201C15.7204 24.7155 16.0094 24.814 16.5873 24.814C17.8396 24.814 18.8993 24.3217 18.9956 23.6324C19.1883 23.14 18.7066 22.3523 18.1286 21.9584ZM29.1103 44.1138C27.9544 44.6061 26.7021 44.6061 26.0277 44.0153C25.6424 43.7199 25.2571 43.0306 25.0644 42.1444C25.0644 42.0459 24.9681 41.3567 24.8718 40.7659C24.6791 39.1904 24.3901 38.4026 23.8121 37.6149C23.2342 36.7287 22.1745 36.0394 21.0185 35.744C20.3442 35.547 18.9956 35.4486 18.1286 35.6455C16.202 35.9409 14.1791 37.0241 12.5414 38.4026L12.0598 38.7965L12.4451 38.895C14.7571 39.2888 15.335 39.5842 16.8763 41.2582C17.7433 42.2429 18.0323 42.4398 18.8029 42.6368C19.8626 42.9322 21.0185 42.4398 21.4039 41.3567C21.5965 40.8643 21.5002 40.1751 21.4039 39.7812C20.9222 38.895 19.6699 38.5996 18.9956 39.1904C18.4176 39.7812 18.6103 40.5689 19.2846 40.7659C19.4773 40.7659 19.3809 40.7659 19.2846 40.6674C18.9956 40.5689 18.8029 40.372 18.8029 40.0766C18.8029 39.3873 19.5736 38.9934 20.2479 39.2888C20.8259 39.4858 21.0185 39.8797 21.0185 40.372C21.0185 41.2582 20.2479 41.9475 19.4773 41.849C18.9956 41.7505 18.514 41.5536 18.225 41.1597C17.4543 40.2735 17.7433 38.9934 18.8029 38.4026C19.5736 38.0088 20.6332 38.1072 21.4039 38.5996C22.3672 39.1904 22.7525 39.7812 23.5231 41.6521C23.8121 42.2429 24.1011 42.9322 24.2938 43.2276C25.0644 44.4092 25.9314 45 27.0874 45C27.6654 45 28.147 44.9015 28.725 44.6061C29.1103 44.4092 29.7846 44.0153 29.6883 43.9168C29.4956 44.0153 29.303 44.0153 29.1103 44.1138ZM36.3351 34.3654C36.1425 33.2823 35.7571 32.2976 35.1792 31.5098C34.4085 30.6236 33.4452 29.8359 31.6149 28.7527C30.17 27.965 29.592 27.6696 29.303 27.4726C29.2067 27.3742 29.014 27.2757 29.014 27.2757C29.014 27.2757 28.9177 27.3742 28.9177 27.4726C28.6287 28.6543 28.725 29.9344 29.303 31.2144C29.592 31.9037 29.881 32.3961 31.1333 34.1685C32.1929 35.8424 32.6746 36.7287 32.9636 37.5164C33.3489 38.7965 33.2525 39.8797 32.7709 41.0613C32.6746 41.3567 32.5782 41.5536 32.5782 41.5536C32.5782 41.5536 32.7709 41.4551 33.0599 41.3567C34.6975 40.4705 35.8535 38.895 36.3351 36.9256C36.4315 36.4333 36.4315 34.9562 36.3351 34.3654ZM27.858 27.8665C27.6654 27.2757 27.3764 26.8818 27.0874 26.488L26.8947 26.291L26.9911 26.6849C27.0874 26.8818 27.1837 27.3742 27.1837 27.6696C27.569 29.8359 26.4131 31.6083 24.2938 32.2976C24.1011 32.3961 23.1378 32.593 22.2708 32.6915C20.4406 32.9869 19.7662 33.1838 18.8993 33.5777C18.3213 33.8731 17.647 34.267 17.7433 34.3654C17.7433 34.3654 17.8396 34.3654 18.0323 34.267C18.9956 33.8731 20.1516 33.7746 21.8855 33.5777C22.5598 33.5777 23.3305 33.4792 23.6195 33.4792C25.1608 33.2823 26.2204 32.7899 26.9911 31.9037C27.4727 31.4114 27.7617 31.0175 27.9544 30.3282C28.0507 29.9344 28.147 29.8359 28.147 29.0481C28.0507 28.3589 28.0507 28.2604 27.858 27.8665ZM37.6838 27.8665C37.2984 25.3063 35.5645 23.4354 32.8672 22.4508C32.0002 22.1554 31.0369 21.9584 29.3993 21.663C26.6057 21.2691 25.5461 20.8753 24.6791 20.186C24.4865 19.9891 24.2938 19.8906 24.2938 19.8906C24.2938 19.8906 24.2938 20.186 24.2938 20.5799C24.2938 23.337 25.8351 24.9125 30.3626 26.7834C33.3489 27.965 34.5048 28.6543 35.4682 29.5405C36.2388 30.2298 36.7205 31.2144 36.8168 32.1991C36.8168 32.3961 36.8168 32.4945 36.9131 32.4945C37.0094 32.3961 37.4911 31.4114 37.6838 30.8206C37.7801 30.0328 37.8764 28.6543 37.6838 27.8665ZM18.8993 18.1182C18.5139 17.6258 18.1286 16.8381 18.0323 16.4442C17.936 16.2473 17.8396 15.558 17.7433 14.9672C17.358 12.9978 16.9727 12.3085 16.0094 11.7177C15.624 11.5208 14.9497 11.2254 14.5644 11.2254H14.3717V11.7177C14.2754 13.2932 14.8534 15.361 15.8167 16.7396C16.5873 17.8228 17.7433 18.6105 18.514 18.709C18.9956 18.709 19.1883 18.512 18.8993 18.1182ZM34.5048 17.035C34.3122 16.7396 33.7342 16.0503 33.2525 15.558C32.1929 14.3764 32.0966 14.2779 32.0002 13.1947C31.9039 12.407 31.9039 11.6193 32.0966 11.1269C32.0966 11.0284 32.0966 10.8315 32.0966 10.8315C32.0966 10.8315 32.0002 11.0284 31.9039 11.2254C31.7113 11.7177 31.5186 12.3085 31.5186 13.1947C31.5186 13.7856 31.4223 13.9825 31.3259 14.081C31.2296 14.081 31.1333 14.081 30.2663 13.7856C29.7846 13.5886 28.436 13.1947 28.3397 13.1947C28.3397 13.1947 28.6287 13.2932 28.9177 13.4902C29.2067 13.6871 29.881 13.9825 30.17 14.1794C31.5186 14.9672 31.8076 15.4595 31.8076 17.5274C31.8076 18.512 31.8076 18.6105 31.7113 19.0044C31.5186 19.3982 31.6149 19.4967 31.7113 19.1028C32.0966 18.4136 32.1929 17.7243 32.1929 16.7396C32.1929 16.0503 32.1929 15.9519 32.2892 15.8534C32.3856 15.7549 32.3856 15.7549 32.5782 15.8534C32.7709 15.9519 33.9269 16.8381 34.4085 17.3304L34.7938 17.7243L34.5048 17.035ZM35.4682 22.2538C35.2755 20.9737 34.4085 19.1028 33.2525 17.8228L33.0599 17.6258L32.9636 18.1182C32.6746 19.2998 32.0966 20.186 31.6149 20.186C31.3259 20.186 31.0369 19.9891 30.9406 19.7921C30.8443 19.4967 30.8443 19.3982 31.0369 19.0044C31.3259 18.4136 31.4223 17.5274 31.2296 16.4442C31.1333 16.1488 31.1333 15.8534 31.0369 15.7549C30.9406 15.6565 29.9773 15.0656 29.3993 14.7702C27.28 13.7856 24.6791 13.4902 22.1745 13.884L21.5965 13.9825L21.2112 13.4902C19.6699 11.7177 18.225 10.6346 16.5873 10.2407C15.913 10.0438 14.8534 9.9453 14.4681 10.0438C14.2754 10.1422 14.2754 10.1422 14.7571 10.1422C16.491 10.4376 17.8396 11.1269 19.1883 12.5055C19.7662 13.0963 20.4406 13.884 21.4039 15.1641C23.6195 18.1182 24.4865 19.0044 26.4131 19.5952C27.4727 19.9891 28.6287 20.0875 30.5553 20.186C32.6746 20.2845 33.5415 20.4814 34.3122 20.9737C34.7938 21.2691 35.0828 21.663 35.3718 22.1554L35.5645 22.4508L35.4682 22.2538ZM7.33959 32.7899C6.95427 32.4945 6.37628 32.6915 6.37628 32.9869C6.37628 33.0853 6.47261 33.1838 6.56894 33.1838C6.76161 33.2823 6.76161 33.3807 6.66528 33.6761C6.47261 33.9716 6.47261 34.1685 6.66528 34.3654C7.0506 34.5624 7.43592 34.4639 7.62858 34.07C7.82124 33.6761 7.72491 33.0853 7.33959 32.7899ZM15.7204 17.9212C14.7571 16.6411 0.114788 0 0.0184571 0C-0.0778736 0 0.211119 0.492341 0.692772 0.984683C5.70197 7.18818 11.0965 15.0656 12.0598 16.3457C12.0598 16.4442 12.1561 16.4442 12.1561 16.4442C12.6378 17.1335 13.0231 17.6258 13.3121 18.0197C13.6974 18.6105 13.9864 18.9059 13.9864 19.1028C13.9864 19.2013 13.8901 19.2998 13.7937 19.3982C13.4084 19.5952 13.1194 19.5952 12.8304 19.5952C12.4451 19.5952 12.0598 19.3982 11.7708 19.1028C11.5781 18.9059 10.1332 16.7396 8.11024 13.4902C6.56894 11.0284 5.31665 9.05908 5.31665 9.05908C5.22031 8.96061 5.22031 8.96061 8.0139 14.081C9.74786 17.2319 10.9038 19.5952 10.9038 19.7921C10.9038 20.0875 10.8075 20.2845 10.4222 20.6783C9.84419 21.3676 9.5552 22.1554 9.36253 23.8293C9.16987 25.7002 8.49556 26.9803 6.76161 29.1466C5.7983 30.4267 5.60564 30.6236 5.31665 31.2144C5.02765 31.8053 4.93132 32.1991 4.93132 33.0853C4.93132 33.9715 4.93132 34.5624 5.22031 35.3501C5.41298 36.1379 5.70197 36.5317 6.27995 37.5164C6.76161 38.4026 7.14693 38.9934 7.14693 39.1904C7.14693 39.3873 7.14693 39.3873 8.0139 39.1904C9.94052 38.698 11.5781 37.9103 12.4451 36.9256C13.0231 36.3348 13.1194 35.9409 13.1194 35.1532C13.1194 34.5624 13.1194 34.4639 12.9268 34.1685C12.7341 33.6761 12.2525 33.2823 11.2891 32.593C10.0368 31.7068 9.5552 31.0175 9.36253 30.1313C9.2662 29.3435 9.36253 28.7527 10.0368 27.3742C10.7112 25.8972 10.9038 25.2079 11.0002 23.7309C11.0965 22.7462 11.1928 22.3523 11.4818 22.0569C11.7708 21.7615 11.9635 21.663 12.7341 21.5646C13.8901 21.3676 14.6607 21.0722 15.2387 20.4814C15.7204 19.9891 16.0094 19.4967 16.0094 18.8074V18.3151L15.7204 17.9212Z" fill="#FF007A"/>
</svg>
