<svg width="718" height="377" viewBox="0 0 718 377" fill="none" xmlns="http://www.w3.org/2000/svg">
<g opacity="0.5">
<path d="M718 0C701.148 1.69622 684.413 4.36171 667.912 7.99648C589.268 25.3222 516.008 63.1238 448.599 108.437C354.625 171.561 267.673 251.041 160.474 284.239C108.045 300.474 52.1054 305.078 1.90003 327.977C1.54894 328.098 1.08082 328.341 0.729736 328.462H717.883V0H718Z" fill="url(#paint0_linear_210_729)"/>
</g>
<g opacity="0.5">
<path d="M717.117 102.206C682.711 99.1765 647.719 101.963 613.898 109.354C547.191 124.014 484.932 156.121 427.705 194.65C348.008 248.202 274.28 315.688 183.348 343.918C142.739 356.518 99.5558 360.88 60 376.267H717.117V102.206Z" fill="url(#paint1_linear_210_729)"/>
</g>
<defs>
<linearGradient id="paint0_linear_210_729" x1="-58.8732" y1="1089.72" x2="680.291" y2="-165.415" gradientUnits="userSpaceOnUse">
<stop stop-opacity="0"/>
<stop offset="0.1903" stop-color="#000204" stop-opacity="0.1903"/>
<stop offset="0.3617" stop-color="#00060F" stop-opacity="0.3617"/>
<stop offset="0.5258" stop-color="#000F21" stop-opacity="0.5258"/>
<stop offset="0.6854" stop-color="#001A3B" stop-opacity="0.6854"/>
<stop offset="0.8418" stop-color="#00295C" stop-opacity="0.8418"/>
<stop offset="0.9938" stop-color="#003B84" stop-opacity="0.9938"/>
<stop offset="1" stop-color="#003C86"/>
</linearGradient>
<linearGradient id="paint1_linear_210_729" x1="22.4715" y1="1042.49" x2="649.849" y2="-22.8282" gradientUnits="userSpaceOnUse">
<stop stop-opacity="0"/>
<stop offset="0.1903" stop-color="#000204" stop-opacity="0.1903"/>
<stop offset="0.3617" stop-color="#00060F" stop-opacity="0.3617"/>
<stop offset="0.5258" stop-color="#000F21" stop-opacity="0.5258"/>
<stop offset="0.6854" stop-color="#001A3B" stop-opacity="0.6854"/>
<stop offset="0.8418" stop-color="#00295C" stop-opacity="0.8418"/>
<stop offset="0.9938" stop-color="#003B84" stop-opacity="0.9938"/>
<stop offset="1" stop-color="#003C86"/>
</linearGradient>
</defs>
</svg>
