<svg width="208" height="30" viewBox="0 0 208 30" fill="none" xmlns="http://www.w3.org/2000/svg">
<path d="M66.6587 29.1555H70.917L76.4855 8.92871H72.0634L66.6587 29.1555Z" fill="white"/>
<path d="M97.368 8.92871H78.5333L77.5507 12.5319H84.8388L80.4168 29.1555H84.6751L89.2609 12.5319H96.3034L97.368 8.92871Z" fill="white"/>
<path d="M104.328 13.6785C105.311 12.8596 106.703 12.532 108.587 12.532H115.875L116.857 9.01074H109.078C107.031 9.01074 105.147 9.3383 103.837 9.82964C102.281 10.321 101.135 11.3855 99.9062 12.6958C98.3503 14.4155 97.3677 16.6265 96.7125 19.3289C95.7299 23.4233 95.8936 26.1257 97.5314 27.8454C98.0228 28.3367 98.9236 28.8281 99.7425 28.9918C100.561 29.1556 101.79 29.3194 103.264 29.3194H106.294C109.487 29.3194 113.09 26.7808 114.073 23.5871C115.056 20.2296 113.254 17.2816 109.651 17.2816H106.785C105.802 17.2816 104.738 18.1005 104.41 19.1651C104.083 20.1478 104.738 21.0485 105.802 21.0485H107.85C109.242 21.0485 110.061 22.0312 109.733 23.4233C109.405 24.8155 108.013 25.9619 106.703 25.9619H104.983C104.001 25.9619 103.1 25.7981 102.609 25.6344C101.953 25.4706 101.626 25.143 101.216 24.6517C100.889 24.1604 100.725 23.5052 100.725 22.4407C100.725 21.458 100.889 20.3934 101.216 19.0832C102.117 16.217 103.1 14.5793 104.328 13.6785Z" fill="white"/>
<path d="M121.77 25.061C121.115 24.7334 120.788 24.0783 120.951 23.1775C120.951 22.6862 121.279 21.7854 121.443 20.3114L124.473 8.92871H120.214L117.184 20.3114C116.693 22.3586 116.366 23.6689 116.366 24.5697C116.366 26.7807 117.348 28.0909 119.396 28.8279C120.214 28.9917 121.77 29.1555 123.981 29.1555H128.567L129.55 25.6342H125.455C123.654 25.5523 122.425 25.3886 121.77 25.061Z" fill="white"/>
<path d="M152.806 14.0022C152.642 12.1187 151.823 10.6447 150.431 9.74391C149.285 9.08879 147.565 8.76123 145.682 8.76123C142.816 8.76123 140.441 9.41635 138.557 10.8085C136.346 12.5282 134.627 15.2305 133.644 19.0793C133.153 21.2904 132.989 23.1738 133.153 24.6478C133.48 26.2038 134.135 27.3502 135.364 28.0053C136.756 28.8242 138.394 29.3974 140.605 29.3974C142.324 29.3974 143.634 29.0699 145.19 28.5786C147.074 27.9234 148.548 26.5313 149.94 24.8116C150.923 23.2557 151.823 21.4541 152.315 19.4069C152.806 17.2778 152.97 15.3943 152.806 14.0022ZM147.893 18.9975C147.238 21.3723 146.337 23.0919 145.354 24.2384C144.371 25.3849 142.816 25.9581 141.26 25.9581C139.54 25.9581 138.394 25.4667 137.902 24.2384C137.411 23.2557 137.411 21.3723 138.066 18.9975C138.721 16.7864 139.458 15.0667 140.277 14.0841C141.423 12.6919 142.979 12.2006 144.863 12.2006C146.746 12.2006 147.893 12.8557 148.22 14.2478C148.548 15.2305 148.384 16.9502 147.893 18.9975Z" fill="white"/>
<path d="M185.317 8.92871L172.624 29.1555H177.046L186.218 13.6783L187.037 29.1555H191.295L189.575 8.92871H185.317Z" fill="white"/>
<path d="M204.151 25.5523C202.268 25.5523 200.958 25.3886 200.221 25.061C199.566 24.7334 199.238 24.0783 199.402 23.1775C199.402 22.6862 199.729 21.7854 199.893 20.3114L202.923 8.92871H198.665L195.635 20.3114C195.143 22.3586 194.816 23.6689 194.816 24.5697C194.816 26.7807 195.799 28.0909 197.846 28.8279C198.665 28.9917 200.221 29.1555 202.432 29.1555H207.017L208 25.6342H204.151V25.5523Z" fill="white"/>
<path d="M67.3137 14.9035C68.1326 11.546 66.331 8.76172 62.8916 8.76172H54.6208C52.0822 8.76172 49.8712 10.4814 49.216 13.02L44.9578 29.1523H45.1215H49.216H57.4869C60.8444 29.1523 64.2838 26.4499 65.1026 23.0105C65.594 21.2909 65.2664 19.9806 64.4475 18.9161C65.8397 17.9334 66.8223 16.6231 67.3137 14.9035ZM60.7625 23.1743C60.4349 24.5664 59.0428 25.5491 57.7326 25.5491H50.0349L51.4271 20.7995H59.0428C60.4349 20.7995 61.09 21.8641 60.7625 23.1743ZM62.9735 14.9035C62.646 16.2956 61.2538 17.2783 59.9436 17.2783H52.3278L52.983 14.4121C53.3105 13.2657 54.3751 12.3649 55.5215 12.3649H61.09C62.5641 12.5286 63.3011 13.5113 62.9735 14.9035Z" fill="white"/>
<path d="M174.343 14.903C175.162 11.5455 173.36 8.76123 169.921 8.76123H161.65C159.111 8.76123 156.9 10.4809 156.245 13.0195L151.987 29.1518H152.151H156.245H164.516C167.874 29.1518 171.313 26.4494 172.132 23.0101C172.623 21.2904 172.296 19.9801 171.477 18.9156C172.787 17.9329 174.015 16.6226 174.343 14.903ZM167.874 23.1738C167.546 24.566 166.154 25.5486 164.844 25.5486H157.228L158.62 20.799H166.236C167.382 20.799 168.201 21.8636 167.874 23.1738ZM170.085 14.903C169.757 16.2951 168.365 17.2778 167.055 17.2778H159.439L160.094 14.4116C160.422 13.2652 161.486 12.3644 162.633 12.3644H168.201C169.593 12.5282 170.412 13.5108 170.085 14.903Z" fill="white"/>
<path d="M34.1479 12.6875L28.2518 14.7347L25.3857 18.0922L24.1574 22.3505H8.02507L6.1416 29.3111H24.0755C28.8251 29.3111 34.066 25.7899 35.7857 20.7946C37.014 17.4371 36.1951 14.571 34.1479 12.6875Z" fill="url(#paint0_linear_4_2573)"/>
<path d="M13.5937 22.3559C9.00788 22.3559 8.8441 18.9984 9.33543 17.115C9.82677 15.2315 9.33543 17.115 10.1543 13.7575C10.6457 12.0378 11.874 10.2362 13.5118 8.8441C13.6756 8.68032 14.0032 8.51654 14.1669 8.35276C14.1669 8.35276 14.1669 8.35276 14.3307 8.35276C15.8866 7.53386 17.5244 6.79685 19.4079 6.79685C24.3213 6.79685 28.0882 6.79685 28.0882 6.79685L28.7433 4.74961L33.8205 9.00787L26.3685 13.2661L27.0236 11.0551H18.9165C16.0504 11.0551 15.1496 13.1024 14.8221 13.9213C14.6583 15.3134 14.3307 18.1795 17.852 18.1795H24.1575H27.0236C31.7732 18.1795 37.0142 14.6583 38.7339 9.663C40.4535 4.42205 37.5874 0 32.2646 0H15.1496C13.2661 0 11.3827 0.49134 10.0724 1.55591C10.0724 1.55591 10.0724 1.55591 9.90866 1.55591C9.74488 1.71969 9.41733 1.88346 9.25354 2.04724C7.53386 3.43937 6.3874 5.07717 5.89606 6.96063L0 29.3165H7.45197L9.33543 22.3559H14.4126C14.085 22.3559 13.7575 22.3559 13.5937 22.3559Z" fill="#F37320"/>
<defs>
<linearGradient id="paint0_linear_4_2573" x1="37.6287" y1="18.136" x2="15.89" y2="26.1217" gradientUnits="userSpaceOnUse">
<stop offset="0.3633" stop-color="#D63026"/>
<stop offset="1" stop-color="#F37320"/>
</linearGradient>
</defs>
</svg>
