<svg width="832" height="354" viewBox="0 0 832 354" fill="none" xmlns="http://www.w3.org/2000/svg">
<path opacity="0.5" d="M0 5V350.207C46.1031 356.985 93.7277 354.463 139.222 344.374C216.061 327.35 287.574 290.465 353.457 246.172C445.207 184.539 529.957 106.828 634.792 74.3566C686.068 58.2785 740.692 53.8649 789.686 31.4816C804.445 24.7036 818.748 15.7187 831.377 5H0Z" fill="url(#paint0_linear_210_730)"/>
<g opacity="0.5">
<path d="M0 0V218.281C15.2232 233.727 33.0343 246.493 52.3677 255.949C102.3 280.377 160.604 283.372 214.647 271.552C268.689 259.574 319.078 233.569 365.508 202.363C430.054 159.022 489.881 104.334 563.714 81.3236C599.793 70.1338 638.307 66.9817 672.864 51.2213C695.699 40.8194 717.163 22.5374 728.124 0H0Z" fill="url(#paint1_linear_210_730)"/>
</g>
<defs>
<linearGradient id="paint0_linear_210_730" x1="819.497" y1="-730.415" x2="96.8124" y2="495.933" gradientUnits="userSpaceOnUse">
<stop stop-opacity="0"/>
<stop offset="0.1903" stop-color="#000204" stop-opacity="0.1903"/>
<stop offset="0.3617" stop-color="#00060F" stop-opacity="0.3617"/>
<stop offset="0.5258" stop-color="#000F21" stop-opacity="0.5258"/>
<stop offset="0.6854" stop-color="#001A3B" stop-opacity="0.6854"/>
<stop offset="0.8418" stop-color="#00295C" stop-opacity="0.8418"/>
<stop offset="0.9938" stop-color="#003B84" stop-opacity="0.9938"/>
<stop offset="1" stop-color="#003C86"/>
</linearGradient>
<linearGradient id="paint1_linear_210_730" x1="646.082" y1="-513.151" x2="137.52" y2="350.412" gradientUnits="userSpaceOnUse">
<stop stop-opacity="0"/>
<stop offset="0.1903" stop-color="#000204" stop-opacity="0.1903"/>
<stop offset="0.3617" stop-color="#00060F" stop-opacity="0.3617"/>
<stop offset="0.5258" stop-color="#000F21" stop-opacity="0.5258"/>
<stop offset="0.6854" stop-color="#001A3B" stop-opacity="0.6854"/>
<stop offset="0.8418" stop-color="#00295C" stop-opacity="0.8418"/>
<stop offset="0.9938" stop-color="#003B84" stop-opacity="0.9938"/>
<stop offset="1" stop-color="#003C86"/>
</linearGradient>
</defs>
</svg>
