<svg width="106" height="22" viewBox="0 0 106 22" fill="none" xmlns="http://www.w3.org/2000/svg">
<path d="M6.48428 8.89399L10.6014 4.78376L14.7208 8.89616L17.1164 6.50445L10.6014 0L4.08862 6.50228L6.48428 8.89399Z" fill="#F3BA2F"/>
<path d="M4.79136 10.5813L2.39575 8.18965L2.13697e-05 10.5814L2.39563 12.9731L4.79136 10.5813Z" fill="#F3BA2F"/>
<path d="M6.4834 12.2708L10.6006 16.381L14.7197 12.2688L17.1167 14.6592L17.1156 14.6605L10.6006 21.1648L4.08758 14.6627L4.08423 14.6593L6.4834 12.2708Z" fill="#F3BA2F"/>
<path d="M18.8053 12.9742L21.201 10.5824L18.8054 8.19076L16.4097 10.5825L18.8053 12.9742Z" fill="#F3BA2F"/>
<path d="M13.0322 10.5802H13.0332L10.6022 8.15326L8.80567 9.94684H8.8055L8.59921 10.153L8.17339 10.5781L8.17004 10.5814L8.17339 10.5849L10.6022 13.0097L13.0332 10.5828L13.0344 10.5814L13.0322 10.5802Z" fill="#F3BA2F"/>
<path d="M24.9354 5.1306H30.1459C31.439 5.1306 32.4169 5.46193 33.0797 6.1246C33.5926 6.63781 33.8489 7.2739 33.8489 8.03269V8.06478C33.8489 8.38542 33.8092 8.66877 33.7294 8.91451C33.6497 9.16059 33.5432 9.38209 33.41 9.57985C33.2773 9.77778 33.1229 9.95147 32.9474 10.1009C32.7717 10.2507 32.583 10.3791 32.3809 10.4858C33.031 10.7318 33.5427 11.0657 33.9157 11.4879C34.2886 11.9104 34.4753 12.4956 34.4753 13.2437V13.2757C34.4753 13.7889 34.3765 14.2377 34.1788 14.6227C33.981 15.0074 33.6977 15.3282 33.3288 15.5848C32.96 15.8414 32.5164 16.0337 31.998 16.162C31.4796 16.2903 30.9051 16.3543 30.2746 16.3543H24.9354V5.1306ZM29.6249 9.66812C30.1711 9.66812 30.6048 9.57484 30.9258 9.38761C31.247 9.20054 31.4076 8.89846 31.4076 8.48171V8.44961C31.4076 8.07565 31.2682 7.78979 30.9899 7.59186C30.7115 7.39409 30.3099 7.29513 29.7855 7.29513H27.3443V9.66812H29.6249ZM30.2835 14.1899C30.8295 14.1899 31.2575 14.0913 31.5683 13.8934C31.8788 13.6956 32.0341 13.3882 32.0341 12.9712V12.9393C32.0341 12.5652 31.8895 12.2686 31.6005 12.0493C31.3113 11.8305 30.8456 11.7208 30.2031 11.7208H27.3443V14.1901H30.2835V14.1899Z" fill="#F3BA2F"/>
<path d="M37.5809 5.1306H40.0544V16.3546H37.5809V5.1306Z" fill="#F3BA2F"/>
<path d="M43.7998 5.1306H46.0801L51.3481 12.0414V5.1306H53.7893V16.3546H51.6855L46.2408 9.21943V16.3546H43.7998V5.1306Z" fill="#F3BA2F"/>
<path d="M61.2777 5.04779H63.5582L68.3766 16.3519H65.7907L64.7628 13.8346H60.0088L58.981 16.3519H56.4591L61.2777 5.04779ZM63.8795 11.6537L62.3857 8.01407L60.8924 11.6537H63.8795Z" fill="#F3BA2F"/>
<path d="M71.0472 5.1306H73.328L78.5957 12.0414V5.1306H81.0369V16.3546H78.9331L73.4884 9.21943V16.3546H71.0472V5.1306Z" fill="#F3BA2F"/>
<path d="M89.9382 16.5461C89.1134 16.5461 88.3481 16.3963 87.6414 16.0972C86.9346 15.7981 86.3244 15.3891 85.8105 14.8705C85.2964 14.3521 84.8947 13.7401 84.6061 13.0346C84.3169 12.329 84.1724 11.5754 84.1724 10.7736V10.7417C84.1724 9.93997 84.3169 9.1892 84.6061 8.48892C84.8949 7.78881 85.2964 7.17412 85.8105 6.64503C86.3242 6.11593 86.9401 5.69884 87.6573 5.39426C88.3744 5.08967 89.1673 4.93738 90.0345 4.93738C90.5588 4.93738 91.0378 4.98034 91.4715 5.0656C91.9052 5.15136 92.2985 5.26871 92.6522 5.41833C93.0057 5.56811 93.3318 5.74983 93.6321 5.96347C93.9313 6.17745 94.2099 6.41249 94.467 6.6691L92.8933 8.4809C92.4538 8.08554 92.007 7.77527 91.5521 7.55093C91.0968 7.32658 90.5857 7.21425 90.0182 7.21425C89.5471 7.21425 89.1107 7.30519 88.7095 7.4869C88.308 7.66862 87.9625 7.91971 87.6733 8.24034C87.3845 8.56097 87.1596 8.93259 86.9987 9.3547C86.8384 9.77714 86.7582 10.2287 86.7582 10.7096V10.7416C86.7582 11.2225 86.8384 11.677 86.9987 12.1043C87.1596 12.5321 87.3813 12.9061 87.6655 13.2267C87.949 13.5473 88.2917 13.8014 88.6931 13.9885C89.0949 14.1757 89.5365 14.269 90.0182 14.269C90.6609 14.269 91.2038 14.1515 91.6482 13.9163C92.0926 13.6814 92.5345 13.3606 92.9733 12.9542L94.5473 14.5417C94.2582 14.8518 93.9579 15.1298 93.648 15.3754C93.3374 15.6214 92.9975 15.8324 92.6279 16.0089C92.2587 16.1851 91.8541 16.319 91.4156 16.4096C90.9762 16.5004 90.4839 16.5461 89.9382 16.5461Z" fill="#F3BA2F"/>
<path d="M97.4553 5.1306H105.919V7.32739H99.8967V9.60426H105.197V11.8009H99.8967V14.158H106V16.3546H97.4553V5.1306Z" fill="#F3BA2F"/>
</svg>
