<svg width="64" height="62" viewBox="0 0 64 62" fill="none" xmlns="http://www.w3.org/2000/svg">
<path d="M53.7379 7.22064L53.6691 7.38039L53.795 7.50041C59.8856 13.3083 63.3175 21.3372 63.3175 29.8806C63.3175 47.1359 49.2467 61.1473 31.9135 61.1473C14.5802 61.1473 0.509399 47.1359 0.509399 29.8806C0.509399 23.3039 2.65421 16.8102 6.51659 11.4263L6.6091 11.2974L6.53177 11.1588C6.11752 10.4164 5.87156 9.59682 5.87156 8.69726C5.87156 6.0808 8.00725 3.95282 10.6378 3.95282C13.2683 3.95282 15.404 6.0808 15.404 8.69726C15.404 11.3137 13.2683 13.4417 10.6378 13.4417C9.98691 13.4417 9.41232 13.2799 8.90031 13.11L8.72568 13.052L8.61843 13.2015C5.12926 18.0652 3.2094 23.8853 3.2094 29.8806C3.2094 45.6061 16.1223 58.4604 31.9121 58.5473H31.9135C47.7915 58.5473 60.6175 45.6914 60.6175 29.9667C60.6175 22.2341 57.4759 14.9369 51.9803 9.55203L51.8532 9.42749L51.6939 9.50679C51.0285 9.83807 50.2017 10.0834 49.3837 10.0834C46.7532 10.0834 44.6175 7.95539 44.6175 5.33893C44.6175 2.72247 46.7532 0.594482 49.3837 0.594482C52.0142 0.594482 54.1499 2.72247 54.1499 5.33893C54.1499 5.98742 53.9867 6.6426 53.7379 7.22064ZM49.3837 3.28059C48.2012 3.28059 47.3175 4.26038 47.3175 5.33893C47.3175 6.41747 48.2012 7.39726 49.3837 7.39726C50.5586 7.39726 51.4499 6.51136 51.4499 5.33893C51.4499 4.1665 50.5586 3.28059 49.3837 3.28059ZM12.704 8.78337C12.704 7.6033 11.7184 6.72504 10.6378 6.72504C9.55719 6.72504 8.57156 7.6033 8.57156 8.78337C8.57156 9.9558 9.46289 10.8417 10.6378 10.8417C11.8127 10.8417 12.704 9.9558 12.704 8.78337Z" fill="#F0F9FF" stroke="black" stroke-width="0.5"/>
<path d="M17.3626 24.9617L17.4109 24.8093L17.2928 24.7015C16.3068 23.8016 15.7289 22.5746 15.6445 21.176C15.6485 18.5629 17.7827 16.4389 20.4107 16.4389C23.0413 16.4389 25.177 18.5669 25.177 21.1833C25.177 23.7998 23.0413 25.9278 20.4107 25.9278H20.4102H20.4097H20.4092H20.4087H20.4082H20.4077H20.4072H20.4066H20.4061H20.4056H20.4051H20.4045H20.404H20.4035H20.4029H20.4024H20.4019H20.4013H20.4008H20.4002H20.3997H20.3991H20.3986H20.398H20.3975H20.3969H20.3964H20.3958H20.3952H20.3947H20.3941H20.3936H20.393H20.3924H20.3919H20.3913H20.3907H20.3901H20.3896H20.389H20.3884H20.3878H20.3872H20.3866H20.3861H20.3855H20.3849H20.3843H20.3837H20.3831H20.3825H20.3819H20.3813H20.3807H20.3801H20.3795H20.3789H20.3783H20.3777H20.3771H20.3764H20.3758H20.3752H20.3746H20.374H20.3734H20.3727H20.3721H20.3715H20.3709H20.3702H20.3696H20.369H20.3683H20.3677H20.3671H20.3664H20.3658H20.3652H20.3645H20.3639H20.3632H20.3626H20.362H20.3613H20.3607H20.36H20.3594H20.3587H20.3581H20.3574H20.3568H20.3561H20.3554H20.3548H20.3541H20.3535H20.3528H20.3521H20.3515H20.3508H20.3501H20.3495H20.3488H20.3481H20.3474H20.3468H20.3461H20.3454H20.3447H20.3441H20.3434H20.3427H20.342H20.3413H20.3407H20.34H20.3393H20.3386H20.3379H20.3372H20.3365H20.3358H20.3351H20.3345H20.3338H20.3331H20.3324H20.3317H20.331H20.3303H20.3296H20.3289H20.3282H20.3275H20.3268H20.3261H20.3254H20.3246H20.3239H20.3232H20.3225H20.3218H20.3211H20.3204H20.3197H20.319H20.3182H20.3175H20.3168H20.3161H20.3154H20.3147H20.3139H20.3132H20.3125H20.3118H20.3111H20.3103H20.3096H20.3089H20.3082H20.3074H20.3067H20.306H20.3052H20.3045H20.3038H20.3031H20.3023H20.3016H20.3009H20.3001H20.2994H20.2987H20.2979H20.2972H20.2965H20.2957H20.295H20.2942H20.2935H20.2928H20.292H20.2913H20.2905H20.2898H20.2891H20.2883H20.2876H20.2868H20.2861H20.2853H20.2846H20.2838H20.2831H20.2824H20.2816H20.2809H20.2801H20.2794H20.2786H20.2779H20.2771H20.2764H20.2756H20.2749H20.2741H20.2734H20.2726H20.2719H20.2711H20.2704H20.2696H20.2689H20.2681H20.2673H20.2666H20.2658H20.2651H20.2643H20.2636H20.2628H20.2621H20.2613H20.2605H20.2598H20.259H20.2583H20.2575H20.2568H20.256H20.2552H20.2545H20.2537H20.253H20.2522H20.2514H20.2507H20.2499H20.2492H20.2484H20.2477H20.2469H20.2461H20.2454H20.2446H20.2439H20.2431H20.2423H20.2416H20.2408H20.2401H20.2393H20.2385H20.2378H20.237H20.2363H20.2355H20.2347H20.234H20.2332H20.2325H20.2317H20.2309H20.2302H20.2294H20.2287H20.2279H20.2271H20.2264H20.2256H20.2249H20.2241H20.2233H20.2226H20.2218H20.2211H20.2203H20.2195H20.2188H20.218H20.2173H20.2165H20.2158H20.215H20.2142H20.2135H20.2127H20.212H20.2112H20.2105H20.2097H20.209H20.2082H20.2075H20.2067H20.2059H20.2052H20.2044H20.2037H20.2029H20.2022H20.2014H20.2007H20.1999H20.1992H20.1984H20.1977H20.1969H20.1962H20.1954H20.1947H20.1939H20.1932H20.1924H20.1917H20.191H20.1902H20.1895H20.1887H20.188H20.1872H20.1865H20.1857H20.185H20.1843H20.1835H20.1828H20.182H20.1813H20.1806H20.1798H20.1791H20.1784H20.1776H20.1769H20.1762H20.1754H20.1747H20.174H20.1732H20.1725H20.1718H20.171H20.1703H20.1696H20.1688H20.1681H20.1674H20.1667H20.1659H20.1652H20.1645H20.1638H20.1631H20.1623H20.1616H20.1609H20.1602H20.1595H20.1587H20.158H20.1573H20.1566H20.1559H20.1552H20.1545H20.1537H20.153H20.1523H20.1516H20.1509H20.1502H20.1495H20.1488H20.1481H20.1474H20.1467H20.146H20.1453H20.1446H20.1439H20.1432H20.1425H20.1418H20.1411H20.1404H20.1397H20.139H20.1383H20.1376H20.137H20.1363H20.1356H20.1349H20.1342H20.1335H20.1328H20.1322H20.1315H20.1308H20.1301H20.1295H20.1288H20.1281H20.1274H20.1268H20.1261H20.1254H20.1248H20.1241H20.1234H20.1228H20.1221H20.1214H20.1208H20.1201H20.1195H20.1188H20.1181H20.1175H20.1168H20.1162H20.1155H20.1149H20.1142H20.1136H20.1129H20.1123H20.1117H20.111H20.1104H20.1097H20.1091H20.1085H20.1078H20.1072H20.1066H20.1059H20.1053H20.1047H20.1041H20.1034H20.1028H20.1022H20.1016H20.101H20.1003H20.0997H20.0991H20.0985H20.0979H20.0973H20.0967H20.0961H20.0955H20.0949H20.0942H20.0936H20.0931H20.0925H20.0919H20.0913H20.0907H20.0901H20.0895H20.0889H20.0883H20.0877H20.0872H20.0866H20.086H20.0854H20.0848H20.0843H20.0837H20.0831H20.0826H20.082H20.0814H20.0809H20.0803H20.0797H20.0792H20.0786H20.0781H20.0775H20.077H20.0764H20.0759H20.0753H20.0748H20.0742H20.0737H20.0732H20.0726H20.0721H20.0716H20.071H20.0705H20.07H20.0694H20.0689H20.0684H20.0679H20.0674H20.0668H20.0663H20.0658H20.0653H20.0648H19.8889L19.8295 26.0934C19.3852 27.3321 19.2094 28.6535 19.2094 29.9667C19.2094 36.9086 24.8575 42.5306 31.827 42.5306C38.7964 42.5306 44.4445 36.9086 44.4445 29.9667C44.4445 28.1264 44.0924 26.3691 43.385 24.7842L43.3036 24.602L43.1079 24.6409C42.6709 24.7279 42.2629 24.8083 41.8594 24.8083C39.2289 24.8083 37.0932 22.6804 37.0932 20.0639C37.0932 17.4474 39.2289 15.3195 41.8594 15.3195C44.4899 15.3195 46.6256 17.4474 46.6256 20.0639C46.6256 21.0423 46.2976 22.0259 45.7197 22.8479L45.6322 22.9725L45.7027 23.1074C46.8067 25.2214 47.3175 27.5062 47.3175 29.8806C47.3175 38.3526 40.4251 45.2167 31.9135 45.2167C23.4018 45.2167 16.5094 38.3526 16.5094 29.8806C16.5094 28.1923 16.8484 26.5828 17.3626 24.9617ZM41.9459 18.0056C40.7633 18.0056 39.8797 18.9854 39.8797 20.0639C39.8797 21.1424 40.7633 22.1222 41.9459 22.1222C43.1208 22.1222 44.0121 21.2363 44.0121 20.0639C44.0121 18.8915 43.1208 18.0056 41.9459 18.0056ZM22.5634 21.1833C22.5634 20.0033 21.5778 19.125 20.4972 19.125C19.3224 19.125 18.431 20.0109 18.431 21.1833C18.431 22.3558 19.3224 23.2417 20.4972 23.2417C21.6721 23.2417 22.5634 22.3558 22.5634 21.1833Z" fill="#F0F9FF" stroke="black" stroke-width="0.5"/>
<path d="M33.1371 9.48087L32.9741 9.47248L32.9008 9.61835C32.0735 11.2657 30.4248 12.4083 28.5404 12.4083C25.9043 12.4083 23.6877 10.2748 23.6877 7.66388C23.6877 5.04742 25.8234 2.91943 28.454 2.91943C30.7588 2.91943 32.6474 4.47486 33.1401 6.60088L33.1823 6.78274L33.3686 6.79398C39.0157 7.13474 44.3205 9.51995 48.3424 13.5244L48.3442 13.5261C52.7924 17.8698 55.1877 23.6605 55.1877 29.8805C55.1877 42.5726 44.8352 52.9667 31.9999 52.9667C23.2723 52.9667 15.3997 48.1108 11.3775 40.5273L11.307 40.3944H11.1567H11.1561H11.1556H11.1551H11.1546H11.1541H11.1536H11.1531H11.1525H11.152H11.1515H11.151H11.1504H11.1499H11.1494H11.1488H11.1483H11.1478H11.1472H11.1467H11.1461H11.1456H11.145H11.1445H11.1439H11.1434H11.1428H11.1423H11.1417H11.1411H11.1406H11.14H11.1394H11.1389H11.1383H11.1377H11.1372H11.1366H11.136H11.1354H11.1348H11.1343H11.1337H11.1331H11.1325H11.1319H11.1313H11.1307H11.1301H11.1295H11.1289H11.1283H11.1277H11.1271H11.1265H11.1259H11.1253H11.1247H11.1241H11.1234H11.1228H11.1222H11.1216H11.121H11.1203H11.1197H11.1191H11.1185H11.1178H11.1172H11.1166H11.1159H11.1153H11.1146H11.114H11.1134H11.1127H11.1121H11.1114H11.1108H11.1101H11.1095H11.1088H11.1081H11.1075H11.1068H11.1062H11.1055H11.1048H11.1042H11.1035H11.1028H11.1022H11.1015H11.1008H11.1001H11.0995H11.0988H11.0981H11.0974H11.0967H11.096H11.0954H11.0947H11.094H11.0933H11.0926H11.0919H11.0912H11.0905H11.0898H11.0891H11.0884H11.0877H11.087H11.0863H11.0856H11.0848H11.0841H11.0834H11.0827H11.082H11.0813H11.0805H11.0798H11.0791H11.0784H11.0777H11.0769H11.0762H11.0755H11.0747H11.074H11.0733H11.0725H11.0718H11.0711H11.0703H11.0696H11.0688H11.0681H11.0673H11.0666H11.0658H11.0651H11.0643H11.0636H11.0628H11.0621H11.0613H11.0605H11.0598H11.059H11.0583H11.0575H11.0567H11.056H11.0552H11.0544H11.0536H11.0529H11.0521H11.0513H11.0505H11.0498H11.049H11.0482H11.0474H11.0466H11.0459H11.0451H11.0443H11.0435H11.0427H11.0419H11.0411H11.0403H11.0395H11.0387H11.0379H11.0371H11.0363H11.0355H11.0347H11.0339H11.0331H11.0323H11.0315H11.0307H11.0299H11.0291H11.0282H11.0274H11.0266H11.0258H11.025H11.0242H11.0233H11.0225H11.0217H11.0209H11.02H11.0192H11.0184H11.0176H11.0167H11.0159H11.0151H11.0142H11.0134H11.0126H11.0117H11.0109H11.01H11.0092H11.0084H11.0075H11.0067H11.0058H11.005H11.0041H11.0033H11.0024H11.0016H11.0007H10.9999H10.999H10.9982H10.9973H10.9964H10.9956H10.9947H10.9939H10.993H10.9921H10.9913H10.9904H10.9895H10.9887H10.9878H10.9869H10.9861H10.9852H10.9843H10.9834H10.9826H10.9817H10.9808H10.9799H10.9791H10.9782H10.9773H10.9764H10.9755H10.9746H10.9738H10.9729H10.972H10.9711H10.9702H10.9693H10.9684H10.9675H10.9666H10.9657H10.9649H10.964H10.9631H10.9622H10.9613H10.9604H10.9595H10.9586H10.9577H10.9568H10.9558H10.9549H10.954H10.9531H10.9522H10.9513H10.9504H10.9495H10.9486H10.9477H10.9468H10.9458H10.9449H10.944H10.9431H10.9422H10.9413H10.9403H10.9394H10.9385H10.9376H10.9366H10.9357H10.9348H10.9339H10.9329H10.932H10.9311H10.9302H10.9292H10.9283H10.9274H10.9264H10.9255H10.9246H10.9236H10.9227H10.9218H10.9208H10.9199H10.919H10.918H10.9171H10.9161H10.9152H10.9143H10.9133H10.9124H10.9114H10.9105H10.9095H10.9086H10.9076H10.9067H10.9057H10.9048H10.9038H10.9029H10.9019H10.901H10.9H10.8991H10.8981H10.8972H10.8962H10.8953H10.8943H10.8934H10.8924H10.8914H10.8905H10.8895H10.8886H10.8876H10.8866H10.8857H10.8847H10.8837H10.8828H10.8818H10.8809H10.8799H10.8789H10.878H10.877H10.876H10.875H10.8741H10.8731H10.8721H10.8712H10.8702H10.8692H10.8682H10.8673H10.8663H10.8653H10.8643H10.8634H10.8624H10.8614H10.8604H10.8595H10.8585H10.8575H10.8565H10.8555H10.8546H10.8536H10.8526H10.8516H10.8506H10.8497H10.8487H10.8477H10.8467H10.8457H10.8447H10.8437H10.8428H10.8418H10.8408H10.8398H10.8388H10.8378H10.8368H10.8358H10.8349H10.8339H10.8329H10.8319H10.8309H10.8299H10.8289H10.8279H10.8269H10.8259H10.8249H10.8239H10.8229H10.8219H10.821H10.82H10.819H10.818H10.817H10.816H10.815H10.814H10.813H10.812H10.811H10.81H10.809H10.808H10.807H10.806H10.805H10.804H10.803H10.802H10.801H10.8H10.799H10.798H10.797H10.796H10.7949H10.7939H10.7929H10.7919H10.7909H10.7899H10.7889H10.7879H10.7869H10.7859H10.7849H10.7839H10.7829H10.7819H10.7809H10.7799H10.7789H10.7778H10.7768H10.7758H10.7748H10.7738H10.7728H10.7718H10.7708H10.7698H10.7688H10.7678H10.7667H10.7657H10.7647H10.7637H10.7627H10.7617H10.7607H10.7597H10.7587H10.7576H10.7566H10.7556H10.7546H10.7536H10.7526H10.7516H10.7506H10.7496H10.7485H10.7475H10.7465H10.7455H10.7445H10.7435H10.7425H10.7414H10.7404H10.7394H10.7384H10.7374H10.7364H10.7354H10.7344H10.7333H10.7323H10.7313H10.7303H10.7293H10.7283H10.7273H10.7263H10.7252H10.7242C8.0937 40.3944 5.95801 38.2665 5.95801 35.65C5.95801 33.0335 8.0937 30.9055 10.7242 30.9055C13.3547 30.9055 15.4904 33.0335 15.4904 35.65C15.4904 36.9538 14.9171 38.1837 14.0073 39.0895L13.8762 39.22L13.9627 39.3835C17.4656 46.0103 24.3834 50.1944 31.9999 50.1944C43.2937 50.1944 52.4877 41.0419 52.4877 29.7944C52.4877 24.3872 50.2978 19.2434 46.4466 15.4089C42.8576 11.8356 38.2159 9.74243 33.1371 9.48087ZM10.7242 33.6778C9.54166 33.6778 8.65801 34.6576 8.65801 35.7361C8.65801 36.9085 9.54934 37.7944 10.7242 37.7944C11.8991 37.7944 12.7904 36.9085 12.7904 35.7361C12.7904 34.5637 11.8991 33.6778 10.7242 33.6778ZM30.6067 7.74999C30.6067 6.56991 29.621 5.69166 28.5404 5.69166C27.9661 5.69166 27.4489 5.88276 27.073 6.23213C26.6953 6.58308 26.4742 7.08111 26.4742 7.66388C26.4742 8.84395 27.4599 9.72221 28.5404 9.72221C29.6042 9.72221 30.6067 8.94569 30.6067 7.74999Z" fill="#F0F9FF" stroke="black" stroke-width="0.5"/>
</svg>
