<svg width="513" height="1606" viewBox="0 0 513 1606" fill="none" xmlns="http://www.w3.org/2000/svg">
<g opacity="0.3">
<path d="M-371.341 315.405L71.6924 670.003L-189.464 879.962L-40.2319 1113.25L-371.341 1495.84" stroke="#57C3F9" stroke-width="0.75" stroke-miterlimit="10"/>
<path d="M-371.482 300.428L85.3555 661.464L-156.075 876.323L-18.8274 1116.47L-369.71 1501.07" stroke="#57C3F9" stroke-width="0.73" stroke-miterlimit="10"/>
<path d="M-371.575 285.404L98.973 652.926L-122.637 872.636L2.62484 1119.73L-368.031 1506.29" stroke="#57C3F9" stroke-width="0.7" stroke-miterlimit="10"/>
<path d="M-371.667 270.427L112.639 644.341L-89.1981 868.997L24.032 1122.95L-366.351 1511.52" stroke="#57C3F9" stroke-width="0.68" stroke-miterlimit="10"/>
<path d="M-371.808 255.45L126.302 635.803L-55.8084 865.311L45.4831 1126.17L-364.673 1516.74" stroke="#57C3F9" stroke-width="0.65" stroke-miterlimit="10"/>
<path d="M-371.902 240.427L139.965 627.265L-22.3722 861.672L66.8875 1129.39L-363.042 1521.97" stroke="#57C3F9" stroke-width="0.63" stroke-miterlimit="10"/>
<path d="M-372.04 225.45L153.631 618.68L11.0671 857.986L88.3415 1132.61L-361.361 1527.2" stroke="#57C3F9" stroke-width="0.61" stroke-miterlimit="10"/>
<path d="M-372.135 210.425L167.293 610.141L44.4565 854.3L109.746 1135.83L-359.683 1532.42" stroke="#57C3F9" stroke-width="0.58" stroke-miterlimit="10"/>
<path d="M-372.228 195.448L180.958 601.602L77.8943 850.66L131.198 1139.05L-358.051 1537.65" stroke="#57C3F9" stroke-width="0.56" stroke-miterlimit="10"/>
<path d="M-372.369 180.425L194.574 593.018L111.33 846.975L152.602 1142.27L-356.373 1542.87" stroke="#57C3F9" stroke-width="0.54" stroke-miterlimit="10"/>
<path d="M-372.461 165.448L208.24 584.479L144.723 843.336L174.056 1145.49L-354.693 1548.05" stroke="#57C3F9" stroke-width="0.51" stroke-miterlimit="10"/>
<path d="M-372.602 150.471L221.903 575.941L178.159 839.65L195.507 1148.71L-353.015 1553.28" stroke="#57C3F9" stroke-width="0.49" stroke-miterlimit="10"/>
<path d="M-372.694 135.447L235.567 567.356L211.597 836.011L216.913 1151.93L-351.382 1558.5" stroke="#57C3F9" stroke-width="0.46" stroke-miterlimit="10"/>
<path d="M-372.788 120.47L249.232 558.818L244.988 832.325L238.319 1155.15L-349.703 1563.73" stroke="#57C3F9" stroke-width="0.44" stroke-miterlimit="10"/>
<path d="M-372.928 105.446L262.896 550.28L278.425 828.639L259.771 1158.37L-348.025 1568.95" stroke="#57C3F9" stroke-width="0.42" stroke-miterlimit="10"/>
<path d="M-373.021 90.4692L276.559 541.695L311.862 824.999L281.223 1161.59L-346.393 1574.18" stroke="#57C3F9" stroke-width="0.39" stroke-miterlimit="10"/>
<path d="M-373.114 75.4922L290.177 533.156L345.253 821.313L302.629 1164.81L-344.713 1579.41" stroke="#57C3F9" stroke-width="0.37" stroke-miterlimit="10"/>
<path d="M-373.254 60.4678L303.841 524.617L378.69 817.673L324.081 1168.02L-343.035 1584.63" stroke="#57C3F9" stroke-width="0.35" stroke-miterlimit="10"/>
<path d="M-373.347 45.4907L317.506 516.032L412.128 813.987L345.487 1171.24L-341.355 1589.86" stroke="#57C3F9" stroke-width="0.32" stroke-miterlimit="10"/>
<path d="M-373.487 30.4675L331.169 507.494L445.519 810.349L366.938 1174.46L-339.724 1595.08" stroke="#57C3F9" stroke-width="0.3" stroke-miterlimit="10"/>
<path d="M-373.58 15.4907L344.834 498.956L478.957 806.663L388.345 1177.68L-338.044 1600.31" stroke="#57C3F9" stroke-width="0.27" stroke-miterlimit="10"/>
<path d="M-373.673 0.466309L358.498 490.371L512.394 802.976L409.797 1180.9L-336.365 1605.49" stroke="#57C3F9" stroke-width="0.25" stroke-miterlimit="10"/>
</g>
</svg>
