<svg width="686" height="1538" viewBox="0 0 686 1538" fill="none" xmlns="http://www.w3.org/2000/svg">
<g opacity="0.6">
<path d="M-6.29654 1.49292L488.2 314.095C546.654 360.751 684.133 715.344 684.133 715.344L526.361 1146.08C516.808 1172.22 498.227 1194.08 473.972 1207.72L-109.161 1536.51" stroke="#61D4FF" stroke-width="0.75" stroke-miterlimit="10"/>
<path d="M-6.39005 10.6844L470.986 315.074C498.417 336.957 538.909 432.557 575.344 521.998C590.178 558.484 607.159 595.11 620.548 626.09C642.427 676.526 657.355 713.851 658.382 715.251C659.408 716.651 616.676 834.973 615.65 836.186L574.457 944.244C574.131 945.503 505.274 1138.01 504.481 1140.58C497.624 1167.5 477.144 1188.59 453.492 1201.93L-110.981 1525.26" stroke="#61D4FF" stroke-width="0.73" stroke-miterlimit="10"/>
<path d="M-6.52987 19.9225L453.772 316.101C480.736 337.376 515.351 435.496 547.727 523.351C561.022 559.464 579.402 596.183 593.304 626.976C615.277 675.733 630.625 712.732 632.677 715.204C634.73 717.677 594.097 832.127 591.998 834.6L550.012 940.604C549.313 943.124 484.282 1129.94 482.975 1135.07C476.304 1161.99 456.478 1183.13 433.386 1196.14L-112.66 1514.07" stroke="#61D4FF" stroke-width="0.7" stroke-miterlimit="10"/>
<path d="M-6.62174 29.1605L436.559 317.267C462.777 337.983 491.794 438.575 520.111 524.937C531.82 560.677 551.693 597.442 566.015 628.003C588.034 674.8 603.849 711.472 606.694 715.158C609.54 718.844 571.287 829.327 568.114 833.013L525.242 936.965C524.216 940.791 462.917 1121.87 461.004 1129.52C457.516 1142.37 451.444 1154.38 443.158 1164.81C434.872 1175.24 424.547 1183.87 412.814 1190.17L-114.851 1502.77" stroke="#61D4FF" stroke-width="0.68" stroke-miterlimit="10"/>
<path d="M-6.76271 38.3521L419.344 318.294C444.955 338.45 468.234 441.608 492.492 526.337C502.662 561.75 523.935 598.562 538.77 628.982C560.882 674.193 577.07 710.492 581.175 715.438C585.281 720.383 548.94 826.855 544.695 831.754L500.983 933.139C499.63 938.225 442.016 1113.56 439.544 1123.83C436.333 1136.59 430.536 1148.56 422.511 1158.99C414.487 1169.43 404.406 1178.1 392.893 1184.48L-116.392 1491.62" stroke="#61D4FF" stroke-width="0.65" stroke-miterlimit="10"/>
<path d="M-6.85704 47.5901L402.129 319.087C427.134 338.636 444.581 444.408 464.921 527.457C473.458 562.543 496.177 599.402 511.572 629.496C533.637 672.933 550.385 708.812 555.517 715.018C560.648 721.223 526.407 823.682 521.088 829.841L476.537 929.686C474.811 936.079 420.929 1105.68 417.897 1118.51C414.879 1131.14 409.285 1143.02 401.466 1153.39C393.648 1163.76 383.773 1172.41 372.459 1178.79L-118.305 1480.38" stroke="#61D4FF" stroke-width="0.63" stroke-miterlimit="10"/>
<path d="M-6.94833 56.7812L384.917 320.066C409.315 339.056 420.978 447.44 437.306 528.856C444.257 563.569 468.422 600.475 484.236 630.335C506.349 672 523.563 707.599 529.721 714.971C535.879 722.343 503.736 820.882 497.392 828.254L452.001 926.234C449.948 933.839 399.705 1097.7 396.02 1112.86C393.221 1125.37 387.858 1137.17 380.27 1147.51C372.682 1157.84 363.034 1166.49 351.935 1172.91L-120.403 1469.09" stroke="#61D4FF" stroke-width="0.61" stroke-miterlimit="10"/>
<path d="M-7.09028 66.0193L367.701 321.093C391.493 339.476 397.278 450.519 409.687 530.209C415.051 564.642 440.663 601.594 456.99 631.175C479.009 671.113 496.783 706.293 503.968 714.924C511.152 723.556 481.155 818.083 473.738 826.901L427.507 922.641C425.128 931.552 378.524 1089.63 374.465 1107.64C371.892 1120.02 366.767 1131.73 359.418 1142.02C352.068 1152.31 342.656 1160.95 331.78 1167.4L-122.131 1458.12" stroke="#61D4FF" stroke-width="0.58" stroke-miterlimit="10"/>
<path d="M-7.18239 75.2577L350.488 321.933C373.813 339.756 373.534 453.506 382.071 531.423C385.803 565.576 412.86 602.528 429.701 631.875C451.673 670.087 470.054 704.847 478.264 714.738C486.475 724.629 458.578 815.097 450.274 824.988L403.203 918.675C400.451 928.847 357.486 1081.18 352.961 1101.76C350.606 1114.02 345.713 1125.65 338.594 1135.9C331.476 1146.15 322.29 1154.8 311.628 1161.29L-123.856 1446.6" stroke="#61D4FF" stroke-width="0.56" stroke-miterlimit="10"/>
<path d="M-7.32312 84.4491L333.227 323.099C355.852 340.316 349.741 456.772 354.453 533.056C356.552 566.929 385.009 603.834 402.456 632.948C424.289 669.341 443.415 703.68 452.512 714.785C461.609 725.889 435.998 812.438 426.435 823.542L378.571 915.176C375.445 926.654 336.119 1073.11 331.081 1096.44C325.249 1123.5 310.181 1144.96 291.148 1155.74L-125.909 1435.68" stroke="#61D4FF" stroke-width="0.54" stroke-miterlimit="10"/>
<path d="M-7.41511 93.6871L316.014 324.079C338.033 340.596 325.904 459.944 326.79 534.315C327.21 567.908 357.113 604.861 375.12 633.695C396.813 668.454 416.453 702.42 426.716 714.738C436.979 727.055 413.327 809.638 402.691 822.049L353.987 911.63C350.489 924.368 314.708 1065.18 309.296 1090.98C303.465 1117.95 289.47 1139.46 270.809 1149.91L-127.82 1424.3" stroke="#61D4FF" stroke-width="0.51" stroke-miterlimit="10"/>
<path d="M-7.50961 102.925L298.799 325.059C320.211 341.156 302.017 463.117 299.265 535.668C297.959 569.028 329.308 605.934 347.922 634.581C369.428 667.614 389.907 701.114 401.057 714.691C412.206 728.268 390.794 806.839 379.131 820.369L329.588 907.944C325.763 921.941 293.527 1056.97 287.602 1085.24C282.051 1112.35 268.289 1133.9 250.282 1144.03L-129.921 1412.96" stroke="#61D4FF" stroke-width="0.49" stroke-miterlimit="10"/>
<path d="M-7.65043 111.977L281.584 325.945C302.39 341.435 278.038 466.149 271.647 536.928C268.661 569.961 301.457 606.914 320.677 635.281C341.996 666.634 362.989 699.668 375.305 714.598C387.621 729.528 368.214 803.946 355.478 818.736L305.096 904.258C300.944 919.515 272.44 1048.89 266.002 1079.78C260.544 1106.94 247.342 1128.49 230.175 1138.29L-131.601 1401.81" stroke="#61D4FF" stroke-width="0.46" stroke-miterlimit="10"/>
<path d="M-7.74327 121.308L264.37 327.065C284.57 341.995 254.014 469.416 244.03 538.421C239.365 571.081 273.513 608.407 293.433 636.401C314.473 666.075 336.259 698.688 349.414 714.691C362.57 730.694 345.449 801.333 331.64 817.336L280.604 900.479C275.939 917.042 250.841 1040.45 244.31 1074.09C238.992 1101.29 226.583 1122.89 209.882 1132.36L-133.467 1390.47" stroke="#61D4FF" stroke-width="0.44" stroke-miterlimit="10"/>
<path d="M-7.8366 130.64L247.156 328.092C266.749 342.415 229.942 472.728 216.413 539.774C209.882 572.434 245.616 609.387 266.143 637.101C286.669 664.815 309.481 697.242 323.849 714.505C338.218 731.768 323.056 798.487 308.175 815.61L256.113 897.027C251.448 914.85 229.475 1032.57 222.571 1068.77C217.393 1095.97 205.683 1117.62 189.542 1126.77L-135.38 1379.41" stroke="#61D4FF" stroke-width="0.42" stroke-miterlimit="10"/>
<path d="M-7.97517 139.971L229.943 329.258C248.93 343.255 205.778 475.901 188.797 541.361C180.493 573.601 217.627 610.74 238.9 638.127C259.426 664.535 282.705 696.122 298.1 714.645C313.494 733.168 300.479 795.735 284.524 814.211L231.623 893.528C226.444 912.657 208.297 1024.54 200.88 1063.41C195.841 1090.61 184.785 1112.3 169.251 1121.12L-137.244 1368.4" stroke="#61D4FF" stroke-width="0.39" stroke-miterlimit="10"/>
<path d="M-8.06942 149.022L212.728 330.098C231.108 343.255 181.566 478.794 161.412 542.527C151.196 574.44 189.823 611.766 211.842 638.78C232.041 663.602 256.16 694.769 272.488 714.365C288.815 733.961 277.946 792.748 260.965 812.344L207.223 889.702C201.672 910.044 186.79 1016.14 179.233 1057.67C174.568 1084.96 163.978 1106.66 148.957 1115.15L-139.111 1356.92" stroke="#61D4FF" stroke-width="0.37" stroke-miterlimit="10"/>
<path d="M-8.20868 158.214L195.515 331.264C213.289 343.862 157.308 482.013 133.609 544.067C121.527 575.7 161.6 613.212 184.365 639.807C204.238 663.135 229.196 693.555 246.644 714.458C264.091 735.36 255.274 790.089 237.314 811.038L182.732 886.295C176.854 907.944 165.378 1008.26 157.588 1052.35C152.923 1079.64 143.126 1101.34 128.711 1109.55L-140.93 1345.91" stroke="#61D4FF" stroke-width="0.35" stroke-miterlimit="10"/>
<path d="M-8.30204 167.452L178.301 332.057C195.468 344.095 133.049 484.812 105.992 545.28C91.9968 576.493 133.563 614.285 157.308 640.46C176.854 662.202 202.606 692.062 221.079 714.271C239.553 736.48 232.882 787.149 213.755 809.311L158.334 882.516C152.083 905.425 144.012 999.952 135.988 1046.7C131.323 1074.04 122.32 1095.74 108.465 1103.62L-142.936 1334.39" stroke="#61D4FF" stroke-width="0.32" stroke-miterlimit="10"/>
<path d="M-8.39448 176.643L161.087 333.084C177.648 344.515 108.745 487.705 78.3757 546.633C62.5145 577.473 105.48 615.638 129.691 641.3C148.818 661.502 175.502 690.756 195.002 714.225C214.502 737.693 209.931 784.21 189.731 807.538L133.47 878.69C126.892 902.905 122.134 991.6 113.924 1040.96C109.258 1068.35 101.048 1090.09 87.7992 1097.65L-144.988 1323.14" stroke="#61D4FF" stroke-width="0.3" stroke-miterlimit="10"/>
<path d="M-8.53661 185.881L143.871 334.064C159.826 344.935 84.3915 490.551 50.5698 547.986C32.7959 578.406 77.114 617.038 102.399 642.186C121.059 660.849 148.723 689.496 169.249 714.131C189.775 738.766 187.35 781.504 166.077 806.139L108.976 875.238C102.072 900.712 100.626 983.622 92.2288 1035.64C87.5638 1063.08 80.1463 1084.82 67.4573 1092.05L-146.902 1312.09" stroke="#61D4FF" stroke-width="0.27" stroke-miterlimit="10"/>
<path d="M-8.62882 195.119L126.658 335.09C142.006 345.355 60.0875 493.351 23.1869 549.386C3.407 579.339 49.1247 618.485 75.3423 643.026C99.4704 665.394 122.304 689.118 143.732 714.085C154.282 726.857 159.959 742.958 159.754 759.524C159.549 776.09 153.475 792.045 142.612 804.553L84.6724 871.645C73.7562 911.77 83.5062 1065.69 47.3519 1086.27L-148.581 1300.89" stroke="#61D4FF" stroke-width="0.25" stroke-miterlimit="10"/>
</g>
</svg>
