<svg width="381" height="874" viewBox="0 0 381 874" fill="none" xmlns="http://www.w3.org/2000/svg">
<g opacity="0.6" clip-path="url(#clip0_4_2636)">
<path d="M-169.002 0.238147L-26.3438 282.078L380.234 444.83L192.994 677.05L9.05338 770.553L-170.786 873.544" stroke="#57C3F9" stroke-width="0.5" stroke-miterlimit="10"/>
<path d="M-168.948 8.87194L-27.9303 283.626L103.494 337.334L366.753 447.232L255.96 585.591L183.882 674.886L4.59585 767.596L-170.767 869.455" stroke="#57C3F9" stroke-width="0.49" stroke-miterlimit="10"/>
<path d="M-168.878 17.4859L-29.5181 285.174L98.6251 338.664L353.271 449.653L245.35 585.392L174.769 672.723L0.154877 764.658L-170.732 865.386" stroke="#57C3F9" stroke-width="0.48" stroke-miterlimit="10"/>
<path d="M-168.806 26.1198L-31.0869 286.722L93.7573 339.974L339.79 452.055L234.74 585.214L165.675 670.56L-4.30278 761.721L-170.696 861.297" stroke="#57C3F9" stroke-width="0.47" stroke-miterlimit="10"/>
<path d="M-168.735 34.7536L-32.6747 288.27L88.8705 341.304L326.326 454.456L224.111 585.015L156.562 668.376L-8.76157 758.783L-170.661 857.209" stroke="#57C3F9" stroke-width="0.46" stroke-miterlimit="10"/>
<path d="M-168.664 43.3675L-34.2613 289.818L84.0027 342.633L312.845 456.858L213.501 584.817L147.468 666.213L-13.2192 755.826L-170.625 853.12" stroke="#57C3F9" stroke-width="0.45" stroke-miterlimit="10"/>
<path d="M-168.592 52.0013L-35.8301 291.346L79.135 343.943L299.364 459.259L202.891 584.638L138.356 664.049L-17.6768 752.888L-170.589 849.051" stroke="#57C3F9" stroke-width="0.44" stroke-miterlimit="10"/>
<path d="M-168.539 60.6352L-37.4178 292.895L74.2662 345.273L285.883 461.661L192.281 584.44L129.243 661.886L-22.1355 749.951L-170.554 844.963" stroke="#57C3F9" stroke-width="0.43" stroke-miterlimit="10"/>
<path d="M-168.467 69.2491L-39.0044 294.443L69.3805 346.603L272.402 464.063L181.653 584.241L120.149 659.723L-26.5931 746.994L-170.518 840.874" stroke="#57C3F9" stroke-width="0.42" stroke-miterlimit="10"/>
<path d="M-168.396 77.8829L-40.5735 295.991L64.5125 347.913L258.938 466.484L171.043 584.063L111.037 657.559L-31.051 744.056L-170.482 836.785" stroke="#57C3F9" stroke-width="0.41" stroke-miterlimit="10"/>
<path d="M-168.325 86.4969L-42.1611 297.539L59.6437 349.243L245.457 468.886L160.432 583.864L101.942 655.376L-35.5097 741.119L-170.447 832.716" stroke="#57C3F9" stroke-width="0.4" stroke-miterlimit="10"/>
<path d="M-168.253 95.1308L-43.7478 299.087L54.7759 350.573L231.976 471.287L149.804 583.666L92.8301 653.213L-39.9673 738.161L-170.411 828.628" stroke="#57C3F9" stroke-width="0.39" stroke-miterlimit="10"/>
<path d="M-168.182 103.765L-45.3354 300.635L49.8893 351.883L218.494 473.689L139.194 583.487L83.7172 651.049L-44.426 735.224L-170.376 824.539" stroke="#57C3F9" stroke-width="0.38" stroke-miterlimit="10"/>
<path d="M-168.111 112.378L-46.9044 302.183L45.0213 353.212L205.031 476.09L128.584 583.289L74.623 648.886L-48.8659 732.286L-170.34 820.45" stroke="#57C3F9" stroke-width="0.38" stroke-miterlimit="10"/>
<path d="M-168.057 121.012L-48.4911 303.712L40.1535 354.542L191.55 478.492L117.974 583.09L65.5111 646.702L-53.3236 729.329L-170.322 816.362" stroke="#57C3F9" stroke-width="0.37" stroke-miterlimit="10"/>
<path d="M-167.986 129.626L-50.0787 305.26L35.2669 355.852L178.068 480.913L107.345 582.911L56.416 644.539L-57.7823 726.391L-170.286 812.293" stroke="#57C3F9" stroke-width="0.36" stroke-miterlimit="10"/>
<path d="M-167.914 138.26L-51.6475 306.808L30.399 357.182L164.587 483.315L96.7353 582.713L47.3041 642.376L-62.24 723.454L-170.25 808.204" stroke="#57C3F9" stroke-width="0.35" stroke-miterlimit="10"/>
<path d="M-167.844 146.894L-53.2356 308.356L25.5299 358.492L151.123 485.717L86.1242 582.514L38.2087 640.212L-66.699 720.517L-170.216 804.116" stroke="#57C3F9" stroke-width="0.34" stroke-miterlimit="10"/>
<path d="M-167.772 155.508L-54.8221 309.904L20.6622 359.822L137.642 488.118L75.5145 582.336L29.0969 638.049L-71.1565 717.559L-170.18 800.027" stroke="#57C3F9" stroke-width="0.33" stroke-miterlimit="10"/>
<path d="M-167.7 164.142L-56.3909 311.452L15.7765 361.151L124.161 490.52L64.8868 582.137L19.985 635.885L-75.6142 714.622L-170.143 795.958" stroke="#57C3F9" stroke-width="0.32" stroke-miterlimit="10"/>
<path d="M-167.647 172.776L-57.9786 312.981L10.9078 362.461L110.68 492.921L54.276 581.939L10.8899 633.702L-80.0729 711.684L-170.108 791.87" stroke="#57C3F9" stroke-width="0.31" stroke-miterlimit="10"/>
<path d="M-167.576 181.389L-59.5651 314.529L6.04003 363.791L97.199 495.323L43.6663 581.76L1.7781 631.539L-84.5304 708.727L-170.072 787.781" stroke="#57C3F9" stroke-width="0.3" stroke-miterlimit="10"/>
<path d="M-167.504 190.023L-61.1342 316.077L1.17198 365.121L83.7357 497.744L33.0562 581.562L-7.31621 629.375L-88.9883 705.789L-170.036 783.692" stroke="#57C3F9" stroke-width="0.29" stroke-miterlimit="10"/>
<path d="M-167.433 198.637L-62.7219 317.625L-3.71468 366.431L70.2539 500.146L22.4275 581.363L-16.4291 627.212L-93.447 702.852L-170.001 779.623" stroke="#57C3F9" stroke-width="0.28" stroke-miterlimit="10"/>
<path d="M-167.362 207.271L-64.3084 319.173L-8.58233 367.761L56.7732 502.548L11.8179 581.185L-25.5231 625.049L-97.8867 699.895L-169.965 775.535" stroke="#57C3F9" stroke-width="0.27" stroke-miterlimit="10"/>
<path d="M-167.291 215.905L-65.8782 320.721L-13.4511 369.091L43.2914 504.949L1.20708 580.986L-34.6359 622.865L-102.345 696.957L-169.93 771.446" stroke="#57C3F9" stroke-width="0.26" stroke-miterlimit="10"/>
<path d="M-167.219 224.519L-18.3193 370.401L29.828 507.351L-9.40314 580.788L-169.894 767.357" stroke="#57C3F9" stroke-width="0.25" stroke-miterlimit="10"/>
<g style="mix-blend-mode:exclusion" filter="url(#filter0_f_4_2636)">
<ellipse rx="172.224" ry="189.554" transform="matrix(-1 -4.55053e-08 -4.08521e-08 1 104.76 355.144)" fill="#193969"/>
</g>
</g>
<defs>
<filter id="filter0_f_4_2636" x="-267.464" y="-34.4099" width="744.448" height="779.107" filterUnits="userSpaceOnUse" color-interpolation-filters="sRGB">
<feFlood flood-opacity="0" result="BackgroundImageFix"/>
<feBlend mode="normal" in="SourceGraphic" in2="BackgroundImageFix" result="shape"/>
<feGaussianBlur stdDeviation="100" result="effect1_foregroundBlur_4_2636"/>
</filter>
<clipPath id="clip0_4_2636">
<rect width="552" height="874" fill="white" transform="matrix(-1 -2.15259e-08 -2.15259e-08 1 381 0)"/>
</clipPath>
</defs>
</svg>
