<svg width="161" height="39" viewBox="0 0 161 39" fill="none" xmlns="http://www.w3.org/2000/svg">
<path d="M7.81628 0V5.96293H11.6035V3.78727H34.166V26.4303H11.6035V14.2627H7.81628V30.2176H37.9533V0.080582H7.81628V0ZM0 8.5415V38.6785H30.137V32.4738H26.3497V34.9718H3.78727V12.3288H26.3497V24.2546H30.137V8.5415H0Z" fill="#0082D7"/>
<path d="M57.3731 19.7409H52.6994V12.3275H57.6148C60.1934 12.3275 61.805 13.8586 61.805 16.1148C61.7244 18.3711 60.1128 19.7409 57.3731 19.7409ZM52.6994 3.38314H56.809C59.3876 3.38314 60.838 4.67243 60.838 6.68693C60.838 9.02375 59.307 10.5548 57.0508 10.5548H52.6994V3.38314C52.6188 3.38314 52.6994 3.38314 52.6994 3.38314ZM59.8711 11.28C62.0467 10.6354 63.1748 8.94318 63.1748 6.52577C63.1748 3.38314 60.838 1.44922 56.809 1.44922H50.4432V21.5943H57.3731C61.5632 21.5943 64.0612 19.5798 64.0612 16.1148C64.0612 13.6974 62.5302 11.9246 59.8711 11.28Z" fill="white"/>
<path d="M120.387 14.174L119.823 13.61C122.482 12.9653 124.174 10.9508 124.174 7.72761C124.174 3.85976 121.595 1.60352 117.083 1.60352H111.281V21.7486H113.537V13.9323H117.889L122.24 21.7486H124.899L120.387 14.174ZM117.405 12.0789H113.618V3.45686H117.647C120.387 3.45686 121.998 4.98788 121.998 7.72761C121.918 10.6285 120.145 12.0789 117.405 12.0789Z" fill="white"/>
<path d="M140.694 12.4081H132.233V19.7409H141.661V21.6748H129.977V1.5298H141.58V3.46372H132.233V10.6354H140.694V12.4081ZM69.1387 21.5943H71.3949V1.44922H69.1387V21.5943ZM81.8703 3.38314H76.2297V1.44922H89.7672V3.38314H84.1266V21.5943H81.8703V3.38314ZM93.071 3.38314H98.7922V21.5943H101.048V3.38314H106.689V1.44922H93.1516L93.071 3.38314ZM154.957 11.3606L160.919 1.5298H158.18L153.667 9.50723L153.506 10.313L153.345 9.50723L148.832 1.5298H146.093L152.056 11.3606L145.932 21.6748H148.671L153.264 13.3751L153.425 12.5693L153.587 13.3751L158.26 21.6748H161L154.957 11.3606Z" fill="white"/>
<path d="M57.3735 31.1028H60.5967V35.5347C59.5491 35.857 58.5016 36.0182 57.454 36.0182C56.0842 36.0182 55.1172 35.6153 54.3114 34.8095C53.5862 34.0037 53.1833 32.8755 53.1833 31.4251C53.1833 29.9747 53.5862 28.8465 54.392 28.0407C55.1978 27.2349 56.3259 26.832 57.7764 26.832C58.6627 26.832 59.5491 26.9932 60.4355 27.3961L59.952 28.6048C59.3074 28.2825 58.5016 28.1213 57.7764 28.1213C56.8094 28.1213 56.0842 28.4436 55.5201 29.0077C54.9561 29.5718 54.7143 30.3776 54.7143 31.4251C54.7143 32.4726 54.9561 33.359 55.4395 33.9231C55.923 34.4871 56.6482 34.7289 57.6152 34.7289C58.0987 34.7289 58.5822 34.6483 59.1462 34.5677V32.3115H57.2929L57.3735 31.1028ZM73.8924 35.857V26.9932H75.3428V34.6483H79.1301V35.857H73.8924ZM99.678 31.4251C99.678 32.8755 99.3557 34.0037 98.6305 34.8095C97.9053 35.6153 96.8577 36.0182 95.5685 36.0182C94.1986 36.0182 93.2316 35.6153 92.5064 34.8095C91.7812 34.0037 91.4589 32.8755 91.4589 31.4251C91.4589 29.9747 91.7812 28.8465 92.5064 28.0407C93.2316 27.2349 94.2792 26.832 95.5685 26.832C96.8577 26.832 97.9053 27.2349 98.6305 28.0407C99.3557 28.8465 99.678 29.9747 99.678 31.4251ZM92.9093 31.4251C92.9093 32.5532 93.151 33.359 93.5539 33.9231C93.9568 34.4871 94.6821 34.7289 95.4879 34.7289C96.3743 34.7289 97.0189 34.4871 97.4218 33.9231C97.8247 33.359 98.0664 32.5532 98.0664 31.4251C98.0664 30.3776 97.8247 29.4912 97.4218 28.9271C97.0189 28.3631 96.3743 28.1213 95.4879 28.1213C94.6015 28.1213 93.9568 28.3631 93.5539 28.9271C93.151 29.5718 92.9093 30.3776 92.9093 31.4251ZM112.732 26.9932H115.391C116.6 26.9932 117.486 27.1544 118.05 27.5573C118.614 27.9602 118.856 28.4436 118.856 29.2494C118.856 29.7329 118.695 30.2164 118.453 30.5387C118.211 30.861 117.809 31.1028 117.325 31.1834V31.2639C117.97 31.3445 118.373 31.5863 118.695 31.9892C119.017 32.3115 119.098 32.795 119.098 33.359C119.098 34.1648 118.856 34.8095 118.292 35.2124C117.728 35.6958 117.003 35.857 115.955 35.857H112.732V26.9932ZM114.182 30.6999H115.552C116.197 30.6999 116.6 30.6193 116.842 30.3776C117.083 30.2164 117.245 29.8941 117.245 29.4106C117.245 29.0077 117.083 28.6854 116.761 28.5242C116.439 28.3631 115.955 28.2825 115.311 28.2825H114.021V30.6999H114.182ZM114.182 31.828V34.6483H115.713C116.358 34.6483 116.761 34.5677 117.083 34.326C117.406 34.0842 117.567 33.7619 117.567 33.1979C117.567 32.7144 117.406 32.3921 117.083 32.1503C116.761 31.9086 116.278 31.828 115.633 31.828H114.182ZM137.631 35.857L136.745 33.359H133.361L132.474 35.857H130.943L134.247 26.9932H135.859L139.162 35.857H137.631ZM136.342 32.1503L135.536 29.7329C135.375 29.2494 135.214 28.6854 135.053 28.2019C134.892 28.766 134.73 29.33 134.569 29.8135L133.763 32.1503H136.342ZM151.491 35.857V26.9932H152.942V34.6483H156.729V35.857H151.491Z" fill="white"/>
</svg>
