<svg width="542" height="995" viewBox="0 0 542 995" fill="none" xmlns="http://www.w3.org/2000/svg">
<g opacity="0.3" clip-path="url(#clip0_4_2600)">
<path d="M697.467 0.271164L516.559 321.13L0.972035 506.414L238.413 770.783L471.671 877.231L699.728 994.48" stroke="#57C3F9" stroke-width="0.5" stroke-miterlimit="10"/>
<path d="M697.399 10.1002L518.571 322.892L351.91 384.036L18.0672 509.148L158.565 666.662L249.968 768.32L477.324 873.865L699.705 989.825" stroke="#57C3F9" stroke-width="0.49" stroke-miterlimit="10"/>
<path d="M697.309 19.9067L520.585 324.654L358.084 385.55L35.1638 511.905L172.021 666.436L261.525 765.857L482.956 870.52L699.661 985.193" stroke="#57C3F9" stroke-width="0.48" stroke-miterlimit="10"/>
<path d="M697.218 29.736L522.574 326.417L364.257 387.041L52.259 514.639L185.475 666.233L273.057 763.394L488.609 867.176L699.615 980.539" stroke="#57C3F9" stroke-width="0.47" stroke-miterlimit="10"/>
<path d="M697.128 39.565L524.588 328.179L370.454 388.555L69.3331 517.373L198.954 666.007L284.613 760.909L494.263 863.832L699.571 975.884" stroke="#57C3F9" stroke-width="0.46" stroke-miterlimit="10"/>
<path d="M697.037 49.3715L526.6 329.942L376.627 390.069L86.4283 520.107L212.408 665.781L296.146 758.446L499.916 860.465L699.525 971.229" stroke="#57C3F9" stroke-width="0.45" stroke-miterlimit="10"/>
<path d="M696.946 59.2006L528.589 331.682L382.8 391.56L103.524 522.841L225.863 665.578L307.701 755.983L505.569 857.121L699.479 966.597" stroke="#57C3F9" stroke-width="0.44" stroke-miterlimit="10"/>
<path d="M696.879 69.0299L530.602 333.444L388.974 393.074L120.62 525.575L239.318 665.352L319.257 753.52L511.223 853.777L699.435 961.943" stroke="#57C3F9" stroke-width="0.43" stroke-miterlimit="10"/>
<path d="M696.788 78.8363L532.614 335.207L395.17 394.588L137.715 528.309L252.795 665.126L330.789 751.057L516.875 850.41L699.389 957.288" stroke="#57C3F9" stroke-width="0.42" stroke-miterlimit="10"/>
<path d="M696.698 88.6654L534.604 336.969L401.343 396.079L154.788 531.066L266.25 664.923L342.344 748.594L522.529 847.066L699.343 952.633" stroke="#57C3F9" stroke-width="0.41" stroke-miterlimit="10"/>
<path d="M696.608 98.4719L536.617 338.732L407.517 397.593L171.885 533.8L279.706 664.697L353.878 746.109L528.183 843.722L699.299 948.001" stroke="#57C3F9" stroke-width="0.4" stroke-miterlimit="10"/>
<path d="M696.517 108.301L538.629 340.494L413.69 399.107L188.98 536.534L293.183 664.471L365.433 743.646L533.835 840.355L699.253 943.346" stroke="#57C3F9" stroke-width="0.39" stroke-miterlimit="10"/>
<path d="M696.427 118.13L540.643 342.257L419.887 400.599L206.076 539.268L306.639 664.267L376.989 741.183L539.489 837.011L699.208 938.692" stroke="#57C3F9" stroke-width="0.38" stroke-miterlimit="10"/>
<path d="M696.336 127.937L542.633 344.019L426.06 402.112L223.149 542.002L320.093 664.041L388.522 738.72L545.12 833.667L699.163 934.037" stroke="#57C3F9" stroke-width="0.38" stroke-miterlimit="10"/>
<path d="M696.268 137.766L544.645 345.759L432.233 403.626L240.245 544.736L333.548 663.815L400.077 736.234L550.773 830.3L699.14 929.382" stroke="#57C3F9" stroke-width="0.37" stroke-miterlimit="10"/>
<path d="M696.178 147.572L546.658 347.521L438.43 405.118L257.341 547.493L347.026 663.612L411.61 733.771L556.427 826.956L699.095 924.75" stroke="#57C3F9" stroke-width="0.36" stroke-miterlimit="10"/>
<path d="M696.087 157.401L548.647 349.284L444.603 406.632L274.436 550.227L360.481 663.386L423.165 731.309L562.08 823.612L699.05 920.095" stroke="#57C3F9" stroke-width="0.35" stroke-miterlimit="10"/>
<path d="M695.998 167.231L550.661 351.046L450.777 408.123L291.511 552.961L373.937 663.16L434.699 728.846L567.734 820.268L699.005 915.441" stroke="#57C3F9" stroke-width="0.34" stroke-miterlimit="10"/>
<path d="M695.907 177.037L552.673 352.809L456.95 409.637L308.606 555.695L387.391 662.957L446.254 726.383L573.387 816.901L698.96 910.786" stroke="#57C3F9" stroke-width="0.33" stroke-miterlimit="10"/>
<path d="M695.816 186.866L554.662 354.571L463.146 411.151L325.701 558.429L400.868 662.731L457.809 723.92L579.04 813.557L698.914 906.154" stroke="#57C3F9" stroke-width="0.32" stroke-miterlimit="10"/>
<path d="M695.749 196.695L556.676 356.311L469.32 412.642L342.797 561.163L414.324 662.505L469.342 721.434L584.694 810.213L698.869 901.499" stroke="#57C3F9" stroke-width="0.31" stroke-miterlimit="10"/>
<path d="M695.658 206.502L558.688 358.073L475.493 414.156L359.893 563.897L427.778 662.301L480.897 718.971L590.347 806.846L698.823 896.845" stroke="#57C3F9" stroke-width="0.3" stroke-miterlimit="10"/>
<path d="M695.567 216.331L560.678 359.836L481.666 415.67L376.966 566.654L441.233 662.076L492.43 716.508L596 803.502L698.778 892.19" stroke="#57C3F9" stroke-width="0.29" stroke-miterlimit="10"/>
<path d="M695.477 226.137L562.691 361.598L487.863 417.161L394.062 569.388L454.711 661.85L503.986 714.046L601.654 800.158L698.733 887.558" stroke="#57C3F9" stroke-width="0.28" stroke-miterlimit="10"/>
<path d="M695.386 235.967L564.703 363.361L494.036 418.675L411.157 572.122L468.166 661.646L515.519 711.583L607.284 796.791L698.688 882.903" stroke="#57C3F9" stroke-width="0.27" stroke-miterlimit="10"/>
<path d="M695.296 245.796L566.694 365.123L500.21 420.189L428.254 574.856L481.622 661.42L527.075 709.097L612.938 793.447L698.643 878.248" stroke="#57C3F9" stroke-width="0.26" stroke-miterlimit="10"/>
<path d="M695.206 255.602L506.383 421.68L445.327 577.59L495.076 661.194L698.598 873.593" stroke="#57C3F9" stroke-width="0.25" stroke-miterlimit="10"/>
</g>
<defs>
<clipPath id="clip0_4_2600">
<rect width="700" height="995" fill="white"/>
</clipPath>
</defs>
</svg>
