<svg width="834" height="1536" viewBox="0 0 834 1536" fill="none" xmlns="http://www.w3.org/2000/svg">
<path d="M142.703 0.49292L637.2 313.095C695.653 359.751 833.133 714.344 833.133 714.344L675.36 1145.08C665.808 1171.22 647.227 1193.08 622.972 1206.72L39.8385 1535.51" stroke="#61D4FF" stroke-width="0.75" stroke-miterlimit="10"/>
<path d="M142.61 9.68433L619.986 314.074C647.417 335.956 687.909 431.557 724.344 520.998C739.178 557.484 756.159 594.109 769.548 625.09C791.427 675.526 806.355 712.851 807.382 714.251C808.408 715.651 765.676 833.973 764.65 835.186L723.457 943.243C723.131 944.503 654.274 1137.01 653.481 1139.58C646.624 1166.5 626.144 1187.59 602.492 1200.93L38.0192 1524.26" stroke="#61D4FF" stroke-width="0.73" stroke-miterlimit="10"/>
<path d="M142.47 18.9224L602.772 315.101C629.736 336.376 664.351 434.496 696.726 522.351C710.022 558.463 728.402 595.182 742.304 625.976C764.277 674.733 779.625 711.732 781.677 714.204C783.73 716.677 743.097 831.127 740.998 833.6L699.012 939.604C698.313 942.124 633.282 1128.94 631.975 1134.07C625.304 1160.99 605.478 1182.13 582.386 1195.14L36.3398 1513.06" stroke="#61D4FF" stroke-width="0.7" stroke-miterlimit="10"/>
<path d="M142.378 28.1606L585.559 316.267C611.777 336.983 640.794 437.575 669.111 523.937C680.82 559.677 700.693 596.442 715.015 627.003C737.034 673.8 752.848 710.472 755.694 714.158C758.54 717.844 720.286 828.327 717.114 832.013L674.242 935.965C673.216 939.791 611.917 1120.87 610.004 1128.52C606.516 1141.37 600.443 1153.38 592.158 1163.81C583.872 1174.24 573.547 1182.87 561.814 1189.17L34.1485 1501.77" stroke="#61D4FF" stroke-width="0.68" stroke-miterlimit="10"/>
<path d="M142.237 37.3521L568.344 317.294C593.955 337.45 617.234 440.608 641.492 525.337C651.662 560.75 672.935 597.562 687.77 627.982C709.882 673.193 726.07 709.492 730.175 714.438C734.281 719.383 697.94 825.855 693.695 830.754L649.983 932.139C648.63 937.225 591.016 1112.56 588.544 1122.83C585.333 1135.59 579.536 1147.56 571.511 1157.99C563.487 1168.43 553.406 1177.1 541.893 1183.48L32.6082 1490.62" stroke="#61D4FF" stroke-width="0.65" stroke-miterlimit="10"/>
<path d="M142.143 46.5901L551.129 318.087C576.134 337.636 593.581 443.408 613.921 526.457C622.458 561.543 645.177 598.402 660.571 628.496C682.637 671.933 699.385 707.812 704.516 714.018C709.648 720.223 675.406 822.682 670.088 828.841L625.537 928.686C623.811 935.079 569.929 1104.68 566.897 1117.51C563.878 1130.14 558.285 1142.02 550.466 1152.39C542.648 1162.76 532.773 1171.41 521.459 1177.79L30.6942 1479.38" stroke="#61D4FF" stroke-width="0.63" stroke-miterlimit="10"/>
<path d="M142.051 55.7812L533.917 319.066C558.315 338.056 569.978 446.44 586.305 527.856C593.256 562.569 617.421 599.475 633.236 629.335C655.348 671 672.562 706.599 678.72 713.971C684.878 721.343 652.736 819.882 646.391 827.254L601 925.234C598.948 932.839 548.705 1096.7 545.019 1111.86C542.22 1124.37 536.857 1136.17 529.27 1146.51C521.682 1156.84 512.034 1165.49 500.935 1171.91L28.5968 1468.09" stroke="#61D4FF" stroke-width="0.61" stroke-miterlimit="10"/>
<path d="M141.909 65.0193L516.701 320.093C540.493 338.476 546.277 449.519 558.686 529.209C564.051 563.642 589.662 600.594 605.99 630.175C628.009 670.113 645.783 705.293 652.967 713.924C660.152 722.556 630.155 817.083 622.738 825.901L576.507 921.641C574.128 930.552 527.524 1088.63 523.465 1106.64C520.891 1119.02 515.767 1130.73 508.417 1141.02C501.068 1151.31 491.655 1159.95 480.78 1166.4L26.869 1457.12" stroke="#61D4FF" stroke-width="0.58" stroke-miterlimit="10"/>
<path d="M141.817 74.2576L499.488 320.933C522.813 338.756 522.533 452.506 531.07 530.423C534.802 564.576 561.86 601.528 578.701 630.875C600.673 669.087 619.053 703.847 627.264 713.738C635.475 723.629 607.577 814.097 599.274 823.988L552.203 917.675C549.451 927.847 506.485 1080.18 501.96 1100.76C499.606 1113.02 494.712 1124.65 487.594 1134.9C480.475 1145.15 471.29 1153.8 460.628 1160.29L25.1441 1445.6" stroke="#61D4FF" stroke-width="0.56" stroke-miterlimit="10"/>
<path d="M141.677 83.4492L482.226 322.1C504.852 339.316 498.741 455.772 503.452 532.056C505.552 565.929 534.009 602.835 551.456 631.948C573.288 668.341 592.415 702.68 601.512 713.785C610.609 724.889 584.998 811.438 575.434 822.542L527.571 914.176C524.445 925.654 485.119 1072.11 480.08 1095.44C474.249 1122.5 459.181 1143.96 440.148 1154.74L23.0908 1434.68" stroke="#61D4FF" stroke-width="0.54" stroke-miterlimit="10"/>
<path d="M141.585 92.6873L465.014 323.079C487.033 339.596 474.904 458.944 475.79 533.316C476.21 566.909 506.113 603.861 524.12 632.695C545.813 667.454 565.453 701.421 575.716 713.738C585.979 726.055 562.327 808.638 551.691 821.049L502.987 910.63C499.489 923.368 463.707 1064.18 458.296 1089.98C452.465 1116.95 438.469 1138.46 419.809 1148.91L21.1795 1423.3" stroke="#61D4FF" stroke-width="0.51" stroke-miterlimit="10"/>
<path d="M141.49 101.925L447.798 324.059C469.211 340.156 451.017 462.117 448.265 534.669C446.958 568.028 478.308 604.934 496.921 633.581C518.427 666.614 538.907 700.114 550.056 713.691C561.206 727.268 539.793 805.839 528.131 819.369L478.588 906.944C474.762 920.942 442.527 1055.97 436.602 1084.24C431.051 1111.35 417.289 1132.9 399.282 1143.03L19.0788 1411.96" stroke="#61D4FF" stroke-width="0.49" stroke-miterlimit="10"/>
<path d="M141.349 110.977L430.583 324.945C451.39 340.435 427.038 465.149 420.647 535.928C417.661 568.961 450.457 605.914 469.677 634.281C490.996 665.634 511.989 698.668 524.305 713.598C536.62 728.528 517.214 802.946 504.478 817.736L454.095 903.258C449.944 918.515 421.44 1047.89 415.002 1078.78C409.544 1105.94 396.342 1127.49 379.174 1137.29L17.3987 1400.81" stroke="#61D4FF" stroke-width="0.46" stroke-miterlimit="10"/>
<path d="M141.256 120.308L413.37 326.065C433.569 340.995 403.013 468.415 393.03 537.421C388.365 570.081 422.513 607.406 442.433 635.401C463.472 665.074 485.258 697.688 498.414 713.691C511.569 729.694 494.449 800.333 480.64 816.336L429.604 899.479C424.939 916.042 399.841 1039.45 393.31 1073.09C387.992 1100.29 375.583 1121.89 358.882 1131.36L15.533 1389.47" stroke="#61D4FF" stroke-width="0.44" stroke-miterlimit="10"/>
<path d="M141.163 129.64L396.155 327.092C415.749 341.416 378.941 471.728 365.413 538.775C358.881 571.434 394.616 608.387 415.142 636.101C435.668 663.815 458.481 696.242 472.849 713.505C487.217 730.768 472.056 797.487 457.174 814.61L405.112 896.027C400.447 913.85 378.475 1031.57 371.57 1067.77C366.392 1094.97 354.683 1116.62 338.542 1125.77L13.62 1378.41" stroke="#61D4FF" stroke-width="0.42" stroke-miterlimit="10"/>
<path d="M141.025 138.971L378.943 328.258C397.93 342.255 354.778 474.901 337.797 540.361C329.493 572.601 366.627 609.74 387.9 637.127C408.426 663.535 431.705 695.122 447.1 713.645C462.494 732.168 449.479 794.735 433.524 813.211L380.623 892.528C375.444 911.657 357.297 1023.54 349.88 1062.41C344.841 1089.61 333.785 1111.3 318.251 1120.12L11.7558 1367.4" stroke="#61D4FF" stroke-width="0.39" stroke-miterlimit="10"/>
<path d="M140.93 148.022L361.728 329.098C380.108 342.255 330.565 477.794 310.412 541.527C300.196 573.44 338.822 610.766 360.841 637.78C381.041 662.602 405.16 693.769 421.487 713.365C437.815 732.96 426.945 791.748 409.965 811.344L356.223 888.701C350.672 909.044 335.79 1015.14 328.233 1056.67C323.568 1083.96 312.978 1105.66 297.956 1114.15L9.88855 1355.92" stroke="#61D4FF" stroke-width="0.37" stroke-miterlimit="10"/>
<path d="M140.791 157.214L344.514 330.264C362.288 342.862 306.307 481.013 282.609 543.067C270.526 574.7 310.599 612.212 333.365 638.807C353.238 662.135 378.196 692.556 395.643 713.458C413.091 734.36 404.274 789.089 386.313 810.038L331.732 885.295C325.854 906.944 314.378 1007.26 306.587 1051.35C301.922 1078.64 292.126 1100.34 277.711 1108.55L8.06988 1344.91" stroke="#61D4FF" stroke-width="0.35" stroke-miterlimit="10"/>
<path d="M140.698 166.452L327.3 331.057C344.468 343.095 282.049 483.812 254.992 544.28C240.997 575.493 282.562 613.285 306.308 639.46C325.854 661.202 351.605 691.062 370.079 713.271C388.553 735.48 381.882 786.149 362.755 808.311L307.334 881.516C301.083 904.425 293.012 998.952 284.988 1045.7C280.323 1073.04 271.32 1094.74 257.464 1102.62L6.06394 1333.39" stroke="#61D4FF" stroke-width="0.32" stroke-miterlimit="10"/>
<path d="M140.605 175.643L310.087 332.084C326.648 343.515 257.745 486.705 227.375 545.633C211.514 576.473 254.479 614.638 278.691 640.3C297.818 660.502 324.502 689.756 344.002 713.225C363.502 736.693 358.93 783.21 338.73 806.538L282.47 877.69C275.892 901.905 271.134 990.6 262.923 1039.96C258.258 1067.35 250.048 1089.09 236.799 1096.65L4.01206 1322.14" stroke="#61D4FF" stroke-width="0.3" stroke-miterlimit="10"/>
<path d="M140.463 184.881L292.871 333.064C308.826 343.935 233.391 489.551 199.57 546.986C181.796 577.406 226.114 616.038 251.399 641.186C270.059 659.849 297.723 688.496 318.249 713.131C338.775 737.766 336.35 780.504 315.077 805.139L257.976 874.238C251.072 899.712 249.626 982.622 241.229 1034.64C236.564 1062.08 229.146 1083.82 216.457 1091.05L2.09759 1311.09" stroke="#61D4FF" stroke-width="0.27" stroke-miterlimit="10"/>
<path d="M140.371 194.119L275.658 334.09C291.006 344.355 209.088 492.351 172.187 548.386C152.407 578.339 198.125 617.485 224.342 642.026C248.47 664.394 271.304 688.118 292.732 713.085C303.282 725.857 308.959 741.958 308.754 758.524C308.549 775.09 302.475 791.045 291.612 803.553L233.672 870.645C222.756 910.77 232.506 1064.69 196.352 1085.27L0.419264 1299.89" stroke="#61D4FF" stroke-width="0.25" stroke-miterlimit="10"/>
</svg>
