<svg width="184" height="35" viewBox="0 0 184 35" fill="none" xmlns="http://www.w3.org/2000/svg">
<path d="M0 10.0317H5.96594L10.8472 23.8619L16.09 10.0317H19.7961L24.9485 23.7715L29.8297 10.0317H35.886L27.0275 34.4379H23.1406L17.9882 20.5173L12.655 34.4379H8.85852L0 10.0317ZM39.4114 0.630859H45.4677V12.4724C46.5524 11.478 47.7275 10.7549 49.0834 10.1221C50.2585 9.57977 51.524 9.39899 52.7896 9.3086C53.9647 9.3086 55.0494 9.48938 56.1341 9.94135C57.2188 10.3933 58.1227 11.0261 58.9363 11.8396C60.3826 13.2859 61.1057 15.4553 61.1057 18.2575V34.3475H55.0494V23.6811C55.1398 21.7828 54.959 19.7942 54.6878 17.9863C54.507 17.0824 53.9647 16.3593 53.3319 15.7265C52.6088 15.1841 51.7952 15.0034 50.8913 15.0034C49.7162 15.0034 48.5411 15.4553 47.7275 16.2689C46.8236 17.1728 46.1005 18.3479 45.9197 19.6134C45.6485 21.2405 45.5581 22.958 45.6485 24.6754V34.4379H39.5922V0.630859H39.4114ZM72.4048 13.1051C72.4048 12.2916 72.0433 11.478 71.5009 10.9357C70.9586 10.3933 70.145 10.0317 69.3315 10.0317C68.518 10.0317 67.7044 10.3933 67.162 10.9357C66.6197 11.478 66.2581 12.2916 66.2581 13.1051V34.4379H72.4048V13.1051ZM116.065 23.9523H96.4494C96.6302 25.5794 97.4437 27.0256 98.7092 28.1104C100.065 29.1951 101.692 29.7374 103.41 29.647C104.494 29.647 105.579 29.4663 106.573 29.0143C107.568 28.5623 108.472 28.02 109.285 27.2064L114.438 29.647C113.263 31.3645 111.726 32.7204 109.828 33.7147C107.839 34.6187 105.669 35.0706 103.41 34.9802C101.692 35.0706 99.9747 34.7994 98.3477 34.1667C96.7206 33.5339 95.2743 32.63 94.0088 31.3645C92.8337 30.1894 91.9297 28.7431 91.297 27.2064C90.6642 25.6697 90.3931 23.9523 90.3931 22.3252C90.3027 20.6077 90.6642 18.8903 91.2066 17.3536C91.8394 15.7265 92.7433 14.2802 93.9184 13.1051C95.0935 11.93 96.4494 10.9357 98.0765 10.3029C99.6132 9.67017 101.331 9.39899 102.958 9.39899C104.675 9.3086 106.393 9.67017 108.02 10.3029C109.647 10.9357 111.093 11.93 112.359 13.1051C114.799 15.5457 115.974 18.7999 115.974 22.8676L116.065 23.9523ZM110.008 19.1614C109.647 17.8055 108.743 16.6304 107.658 15.8169C106.483 15.0034 105.037 14.5514 103.5 14.5514C101.873 14.5514 100.336 15.0034 98.9804 15.9977C97.9861 16.8112 97.1725 17.8959 96.7206 19.1614H110.008ZM84.7887 10.0317V1.08282H78.642V34.4379H84.7887V15.3649H88.4044V10.1221H84.7887V10.0317Z" fill="white"/>
<path d="M155.115 1.44434H161.352V34.4378H155.115V1.44434ZM165.148 1.44434H183.317V7.59107H177.351V34.3474H171.024V7.59107H165.148V1.44434Z" fill="#CFB764"/>
<path d="M135.319 13.5552L134.686 14.7303C134.596 14.8207 134.596 14.9111 134.506 15.0919C134.506 15.1822 134.506 15.2726 134.506 15.363C134.506 15.4534 134.506 15.5438 134.596 15.6342C134.596 15.7246 134.686 15.815 134.777 15.9054C134.867 15.9958 135.048 16.0862 135.138 16.0862C135.319 16.0862 135.41 16.0862 135.59 16.0862C135.771 15.9958 135.862 15.9054 135.952 15.815C136.042 15.7246 136.042 15.5438 136.042 15.363C136.042 15.2726 136.042 15.1822 135.952 15.0919C135.952 15.0015 135.862 14.9111 135.771 14.8207C135.681 14.7303 135.5 14.6399 135.41 14.6399L135.771 13.9167L135.319 13.5552ZM135.5 15.2726C135.5 15.2726 135.5 15.363 135.5 15.2726C135.5 15.363 135.5 15.363 135.41 15.4534C135.41 15.4534 135.41 15.4534 135.319 15.4534H135.229H135.138C135.138 15.4534 135.138 15.4534 135.048 15.4534C135.048 15.4534 134.958 15.363 134.958 15.2726C134.958 15.1823 134.958 15.1822 135.048 15.0919C135.048 15.0919 135.048 15.0919 135.138 15.0919H135.229H135.319H135.41C135.41 15.1822 135.41 15.1823 135.5 15.2726ZM138.121 4.42548L137.127 5.87176V6.41412H138.121V6.86609H138.754V6.41412H138.935V5.87176H138.754V4.42548H138.121ZM137.85 5.78137L138.121 5.4198V5.78137H137.85ZM125.376 25.0351L126.189 23.408H125.286V22.8657H126.913V23.2272L125.918 25.3063L125.376 25.0351ZM135.41 30.7299C135.5 30.6395 135.5 30.6395 135.5 30.5491C135.5 30.4587 135.5 30.3683 135.41 30.3683L135.319 30.2779C135.229 30.2779 135.229 30.2779 135.229 30.2779L135.138 30.3683L134.686 30.2779L134.958 28.922H136.133V29.4644H135.41V29.6451C135.5 29.6451 135.59 29.6451 135.681 29.7355C135.771 29.7355 135.862 29.8259 135.952 29.9163C136.042 30.0067 136.042 30.0971 136.133 30.1875C136.223 30.2779 136.223 30.3683 136.223 30.4587C136.223 30.5491 136.223 30.6395 136.133 30.8202C136.133 30.9106 136.042 31.001 135.952 31.0914C135.862 31.1818 135.771 31.2722 135.681 31.2722C135.59 31.2722 135.5 31.3626 135.319 31.3626C135.138 31.3626 134.958 31.2722 134.777 31.1818C134.596 31.0914 134.506 30.9106 134.506 30.7299V30.6395H135.138V30.7299C135.138 30.8202 135.229 30.8202 135.229 30.8202C135.319 30.8202 135.319 30.8202 135.41 30.8202C135.319 30.8202 135.41 30.8202 135.41 30.7299ZM135.138 18.8884C135.229 18.798 135.229 18.7076 135.319 18.6172C135.319 18.5268 135.41 18.4364 135.41 18.346C135.41 18.2556 135.41 18.1652 135.319 18.0748C135.319 17.9844 135.229 17.894 135.138 17.8036C135.048 17.7133 134.867 17.6229 134.777 17.6229L135.138 16.8997L134.596 16.6285L133.963 17.8036C133.873 17.894 133.873 17.9844 133.782 18.1652C133.782 18.2556 133.782 18.346 133.782 18.4364C133.782 18.5268 133.782 18.6172 133.873 18.7076C133.963 18.798 133.963 18.8884 134.054 18.9788C134.144 19.0692 134.234 19.0691 134.325 19.1595C134.415 19.1595 134.506 19.2499 134.596 19.2499C134.686 19.2499 134.777 19.2499 134.867 19.1595C134.958 19.0691 135.048 18.9788 135.138 18.8884ZM134.415 18.346C134.415 18.2556 134.415 18.2556 134.506 18.1652C134.506 18.1652 134.506 18.1652 134.596 18.1652C134.686 18.1652 134.686 18.1652 134.686 18.1652H134.777H134.867C134.867 18.1652 134.867 18.1652 134.867 18.2556V18.346V18.4364V18.5268C134.867 18.5268 134.867 18.5268 134.777 18.5268H134.686H134.596C134.596 18.5268 134.596 18.5268 134.506 18.5268C134.415 18.5268 134.415 18.4364 134.415 18.346C134.415 18.4364 134.415 18.346 134.415 18.346ZM147.251 25.2159V24.7639H147.432V24.2216H147.251V22.7753H146.709L145.714 24.2216V24.7639H146.709V25.2159H147.251ZM146.438 24.2216L146.709 23.86V24.2216H146.438ZM133.331 19.0692C133.421 18.9788 133.511 18.8884 133.602 18.798C133.692 18.7076 133.692 18.5268 133.692 18.4364C133.692 18.346 133.692 18.1652 133.602 18.0748C133.602 17.9844 133.511 17.894 133.421 17.894C133.421 17.8037 133.511 17.8036 133.511 17.7133C133.511 17.6229 133.602 17.5325 133.602 17.4421C133.602 17.3517 133.602 17.1709 133.511 17.0805C133.421 16.9901 133.331 16.8997 133.24 16.8093C133.15 16.7189 132.969 16.7189 132.879 16.7189C132.788 16.7189 132.607 16.7189 132.517 16.8093C132.427 16.8997 132.336 16.9901 132.246 17.0805C132.155 17.1709 132.155 17.3517 132.155 17.4421C132.155 17.5325 132.155 17.6229 132.246 17.7133C132.246 17.8036 132.336 17.8037 132.336 17.894C132.246 17.9844 132.246 18.0748 132.155 18.0748C132.065 18.1652 132.065 18.346 132.065 18.4364C132.065 18.6172 132.065 18.7076 132.155 18.798C132.246 18.8884 132.336 18.9788 132.427 19.0692C132.607 19.1595 132.698 19.1595 132.879 19.1595C133.059 19.1595 133.24 19.0692 133.331 19.0692ZM133.059 17.5325C132.969 17.5325 132.969 17.5325 133.059 17.5325C132.969 17.6229 132.879 17.5325 132.879 17.5325C132.879 17.5325 132.788 17.5325 132.788 17.4421V17.3517C132.788 17.3517 132.788 17.3517 132.788 17.2613C132.788 17.2613 132.788 17.2613 132.788 17.1709C132.788 17.1709 132.788 17.1709 132.879 17.1709C132.879 17.1709 132.879 17.1709 132.969 17.1709C132.969 17.1709 132.969 17.1709 133.059 17.1709C133.059 17.1709 133.059 17.1709 133.15 17.1709C133.15 17.1709 133.15 17.1709 133.15 17.2613C133.15 17.2613 133.15 17.2613 133.15 17.3517C133.059 17.4421 133.059 17.4421 133.059 17.5325C133.059 17.4421 133.059 17.4421 133.059 17.5325ZM132.698 18.1652C132.788 18.0748 132.788 18.0748 132.879 18.0748C132.969 18.0748 132.969 18.0748 133.059 18.1652C133.059 18.1652 133.059 18.2556 133.15 18.2556C133.24 18.2556 133.15 18.346 133.15 18.346V18.4364C133.15 18.4364 133.15 18.5268 133.059 18.5268C132.969 18.5268 132.969 18.6172 132.879 18.6172C132.788 18.6172 132.698 18.6172 132.698 18.5268C132.698 18.5268 132.698 18.5268 132.607 18.4364V18.346C132.607 18.346 132.698 18.2556 132.698 18.1652C132.698 18.2556 132.698 18.1652 132.698 18.1652ZM138.483 31.3626V29.5547H137.941L138.302 29.0124H139.025V31.3626H138.483ZM131.161 29.6451C131.071 29.7355 131.071 29.7355 130.98 29.8259C130.98 29.9163 130.89 30.0067 130.89 30.0971C130.89 30.1875 130.89 30.3683 130.98 30.4587C131.071 30.5491 131.161 30.6395 131.251 30.7299C131.342 30.8202 131.432 30.8202 131.613 30.8202C131.703 30.8202 131.794 30.8202 131.975 30.7299C132.065 30.6395 132.155 30.5491 132.246 30.4587L132.336 30.3683L132.788 30.8202L132.698 30.9106C132.517 31.0914 132.427 31.1818 132.246 31.2722C132.065 31.3626 131.884 31.3626 131.703 31.3626C131.523 31.3626 131.342 31.3626 131.251 31.2722C131.071 31.1818 130.98 31.0914 130.799 31.001C130.619 30.8203 130.528 30.5491 130.438 30.2779C130.438 30.0067 130.438 29.7355 130.619 29.4644C130.709 29.2836 130.89 29.1028 131.071 29.0124C131.251 28.922 131.432 28.8316 131.703 28.8316C131.884 28.8316 132.155 28.8316 132.336 28.922C132.517 29.0124 132.698 29.1028 132.788 29.2836L132.879 29.374L132.427 29.7355L132.336 29.6451C132.246 29.5548 132.155 29.4644 132.065 29.4644C131.975 29.374 131.884 29.374 131.703 29.374C131.613 29.374 131.523 29.374 131.432 29.4644C131.342 29.5547 131.251 29.6451 131.161 29.6451ZM133.602 31.3626C133.692 31.3626 133.782 31.3626 133.873 31.2722C133.963 31.2722 134.054 31.1818 134.144 31.0914C134.234 31.001 134.234 30.9106 134.325 30.8202C134.325 30.7299 134.415 30.6395 134.415 30.5491C134.415 30.4587 134.415 30.3683 134.325 30.2779C134.325 30.1875 134.234 30.0971 134.144 30.0067C134.054 29.9163 133.873 29.8259 133.782 29.8259L134.144 29.1028L133.602 28.8316L132.969 30.0067C132.879 30.0971 132.879 30.1875 132.788 30.3683C132.788 30.4587 132.788 30.5491 132.788 30.6395C132.788 30.7299 132.788 30.8202 132.879 30.9106C132.969 31.001 132.969 31.0914 133.059 31.1818C133.15 31.2722 133.24 31.3626 133.331 31.3626C133.331 31.3626 133.421 31.3626 133.602 31.3626ZM133.421 30.6395C133.421 30.5491 133.421 30.5491 133.511 30.4587C133.511 30.4587 133.511 30.4587 133.602 30.4587H133.692H133.782H133.873C133.873 30.4587 133.873 30.4587 133.873 30.5491V30.6395V30.7299V30.8202C133.873 30.8202 133.873 30.8202 133.782 30.8202H133.692H133.602C133.602 30.8202 133.602 30.8202 133.511 30.8202C133.421 30.7299 133.421 30.7299 133.421 30.6395C133.421 30.6395 133.33 30.6395 133.421 30.6395ZM139.748 31.1818L140.562 29.5547H139.658V29.0124H141.285V29.374L140.291 31.453L139.748 31.1818ZM136.946 17.9844C137.037 17.894 137.037 17.8036 137.127 17.6229C137.127 17.5325 137.127 17.4421 137.127 17.3517C137.127 17.2613 137.127 17.1709 137.037 17.0805C137.037 16.9901 136.946 16.8997 136.856 16.8093C136.765 16.7189 136.585 16.6285 136.494 16.6285C136.313 16.6285 136.223 16.6285 136.042 16.6285C135.862 16.7189 135.771 16.8093 135.681 16.8997C135.59 16.9901 135.59 17.1709 135.59 17.3517C135.59 17.4421 135.59 17.5325 135.681 17.6229C135.681 17.7133 135.771 17.8037 135.862 17.894C135.952 17.9844 136.133 18.0748 136.223 18.0748L135.862 18.798L136.404 19.0692L136.946 17.9844ZM136.585 17.4421C136.585 17.5325 136.585 17.5325 136.494 17.6229C136.494 17.6229 136.494 17.6229 136.404 17.6229H136.313H136.223C136.223 17.6229 136.223 17.6229 136.133 17.6229C136.133 17.6229 136.133 17.6229 136.133 17.5325V17.4421V17.3517V17.2613C136.133 17.2613 136.133 17.2613 136.223 17.2613H136.313H136.404C136.404 17.2613 136.404 17.2613 136.494 17.2613C136.494 17.2613 136.494 17.3517 136.585 17.4421C136.585 17.3517 136.585 17.4421 136.585 17.4421ZM133.692 15.4534C133.782 15.363 133.782 15.363 133.782 15.2726C133.782 15.1823 133.782 15.0919 133.692 15.0919L133.602 15.0015C133.511 15.0015 133.511 15.0015 133.511 15.0015L133.421 15.0919L132.969 15.0015L133.24 13.6456H134.415V14.1879H133.692L133.602 14.3687C133.692 14.3687 133.782 14.3687 133.873 14.4591C133.963 14.4591 134.054 14.5495 134.144 14.6399C134.234 14.7303 134.234 14.8207 134.325 14.9111C134.325 15.0015 134.415 15.0919 134.415 15.1823C134.415 15.2726 134.415 15.363 134.325 15.5438C134.325 15.6342 134.234 15.7246 134.144 15.815C134.054 15.9054 133.963 15.9958 133.873 15.9958C133.782 15.9958 133.692 16.0862 133.511 16.0862C133.331 16.0862 133.15 15.9958 132.969 15.9054C132.788 15.815 132.698 15.6342 132.698 15.4534V15.363H133.331V15.4534C133.331 15.5438 133.421 15.5438 133.421 15.5438C133.511 15.5438 133.511 15.5438 133.602 15.5438C133.602 15.4534 133.692 15.4534 133.692 15.4534ZM146.618 20.9674C146.618 21.2386 146.618 21.4194 146.709 21.6905C146.799 21.8713 146.889 21.9617 146.98 22.0521C147.161 22.1425 147.251 22.1425 147.432 22.1425C147.613 22.1425 147.793 22.1425 147.884 22.0521C147.974 21.9617 148.155 21.7809 148.155 21.6905C148.336 21.2386 148.336 20.6962 148.155 20.2443C148.065 20.0635 147.974 19.9731 147.884 19.8827C147.703 19.7923 147.613 19.7019 147.432 19.7923C147.341 19.7923 147.161 19.7923 147.07 19.8827C146.98 19.9731 146.889 20.0635 146.799 20.1539C146.709 20.3347 146.618 20.6962 146.618 20.9674ZM147.251 20.9674C147.251 20.7866 147.251 20.6962 147.251 20.5154C147.251 20.425 147.341 20.3347 147.341 20.3347L147.432 20.2443C147.522 20.2443 147.522 20.2443 147.613 20.3347C147.703 20.5154 147.703 20.6962 147.703 20.877C147.703 21.0578 147.703 21.2386 147.613 21.4194C147.613 21.4194 147.613 21.5098 147.522 21.5098H147.432H147.341L147.251 21.4194C147.251 21.329 147.161 21.1482 147.251 20.9674ZM126.009 7.40844L125.376 8.58356C125.286 8.67395 125.286 8.76434 125.195 8.94513C125.195 9.03552 125.195 9.12591 125.195 9.2163C125.195 9.3067 125.195 9.39709 125.286 9.48749C125.286 9.57788 125.376 9.66827 125.466 9.75867C125.557 9.84906 125.737 9.93945 125.828 9.93945C126.009 9.93945 126.099 9.93945 126.28 9.93945C126.461 9.84906 126.551 9.75866 126.641 9.66827C126.732 9.57788 126.732 9.39709 126.732 9.2163C126.732 9.12591 126.732 9.03552 126.641 8.94513C126.641 8.85474 126.551 8.76434 126.461 8.67395C126.37 8.58355 126.189 8.49316 126.099 8.49316L126.461 7.77002L126.009 7.40844ZM126.189 9.12591C126.189 9.21631 126.189 9.21631 126.189 9.12591C126.189 9.21631 126.189 9.21631 126.099 9.3067C126.099 9.3067 126.099 9.3067 126.009 9.3067H125.918H125.828C125.828 9.3067 125.828 9.3067 125.737 9.3067C125.737 9.3067 125.647 9.21631 125.647 9.12591C125.647 9.03552 125.647 9.03552 125.737 8.94513C125.737 8.94513 125.737 8.94513 125.828 8.94513C125.918 8.94513 125.918 8.94513 125.918 8.94513H126.009H126.099C126.189 9.03552 126.189 9.03552 126.189 9.12591ZM126.189 15.4534C126.28 15.4534 126.28 15.363 126.189 15.4534C126.28 15.363 126.28 15.2726 126.28 15.2726V15.1823C126.28 15.1823 126.28 15.0919 126.189 15.0919C126.099 15.0015 126.009 15.0015 125.828 15.0015H125.737V14.4591H125.828C125.918 14.4591 125.918 14.4591 126.009 14.4591C126.009 14.4591 126.099 14.4591 126.099 14.3687V14.2783C126.099 14.2783 126.099 14.2783 126.099 14.1879C126.099 14.1879 126.099 14.1879 126.009 14.1879C126.009 14.1879 126.009 14.1879 125.918 14.1879H125.828L125.737 14.2783V14.3687H125.195V14.2783C125.195 14.0975 125.286 13.9167 125.466 13.8264C125.647 13.736 125.828 13.6456 126.009 13.6456C126.189 13.6456 126.37 13.736 126.551 13.8264C126.641 13.9167 126.641 13.9167 126.732 14.0071C126.822 14.0975 126.822 14.1879 126.822 14.2783C126.822 14.3687 126.822 14.4591 126.732 14.6399C126.732 14.7303 126.641 14.7303 126.641 14.7303C126.732 14.7303 126.822 14.8207 126.822 14.9111C126.913 15.0015 126.913 15.1823 126.913 15.2726C126.913 15.363 126.913 15.4534 126.822 15.5438C126.732 15.6342 126.732 15.7246 126.641 15.815C126.461 15.9958 126.28 16.0862 126.009 16.0862C125.918 16.0862 125.828 16.0862 125.737 15.9958C125.647 15.9958 125.557 15.9054 125.466 15.815C125.286 15.6342 125.195 15.4534 125.195 15.2726V15.1823H125.737V15.2726C125.737 15.363 125.737 15.4534 125.828 15.4534C125.918 15.4534 125.918 15.5438 126.009 15.5438C126.099 15.5438 126.189 15.4534 126.189 15.4534ZM131.342 5.4198C131.342 5.32941 131.432 5.23901 131.432 5.14862V5.05822V4.96783H131.342H131.251H131.161C131.161 4.96783 131.071 4.96783 131.071 5.05822C130.98 5.14862 130.98 5.23902 130.98 5.23902V5.32941H130.348V5.23902C130.348 4.96784 130.438 4.78705 130.619 4.60626C130.709 4.51587 130.799 4.42548 130.89 4.42548C130.98 4.42548 131.071 4.33508 131.251 4.33508C131.432 4.33508 131.523 4.33508 131.613 4.42548C131.703 4.51587 131.794 4.60626 131.884 4.69665C131.975 4.78704 131.975 4.96783 131.975 5.05822C131.975 5.23901 131.884 5.4198 131.884 5.51019C131.794 5.69098 131.613 5.87176 131.432 6.05255L131.342 6.14295H131.975V6.6853H130.257V6.32373L130.98 5.60058C131.161 5.69097 131.251 5.51019 131.342 5.4198ZM131.884 13.5552L131.251 14.7303C131.161 14.8207 131.161 14.9111 131.071 15.0919C131.071 15.1822 131.071 15.2726 131.071 15.363C131.071 15.4534 131.071 15.5438 131.161 15.6342C131.161 15.7246 131.251 15.815 131.342 15.9054C131.432 15.9958 131.613 16.0862 131.703 16.0862C131.884 16.0862 131.975 16.0862 132.155 16.0862C132.336 15.9958 132.427 15.9054 132.517 15.815C132.607 15.7246 132.607 15.5438 132.607 15.363C132.607 15.2726 132.607 15.1822 132.517 15.0919C132.517 15.0015 132.427 14.9111 132.336 14.8207C132.246 14.7303 132.065 14.6399 131.975 14.6399L132.336 13.9167L131.884 13.5552ZM132.065 15.2726C132.065 15.2726 132.065 15.363 132.065 15.2726C132.065 15.363 132.065 15.363 131.975 15.4534C131.975 15.4534 131.975 15.4534 131.884 15.4534H131.794H131.703C131.703 15.4534 131.703 15.4534 131.613 15.4534C131.613 15.4534 131.523 15.363 131.523 15.2726C131.523 15.1823 131.523 15.1822 131.613 15.0919C131.613 15.0919 131.613 15.0919 131.703 15.0919H131.794H131.884H131.975C131.975 15.1822 131.975 15.1823 132.065 15.2726ZM131.161 25.7582L130.528 26.9334C130.438 27.0237 130.438 27.1141 130.348 27.2949C130.348 27.3853 130.348 27.4757 130.348 27.5661C130.348 27.6565 130.348 27.7469 130.438 27.8373C130.528 27.9277 130.528 28.0181 130.619 28.1085C130.709 28.1989 130.89 28.2892 130.98 28.2892C131.161 28.2892 131.251 28.2892 131.432 28.2892C131.613 28.1989 131.703 28.1085 131.794 28.0181C131.884 27.9277 131.884 27.7469 131.884 27.5661C131.884 27.4757 131.884 27.3853 131.794 27.2949C131.794 27.2045 131.703 27.1141 131.613 27.0237C131.523 26.9333 131.342 26.843 131.251 26.843L131.613 26.1198L131.161 25.7582ZM131.342 27.5661C131.342 27.6565 131.342 27.6565 131.251 27.7469C131.251 27.7469 131.251 27.7469 131.161 27.7469H131.071H130.98C130.98 27.7469 130.98 27.7469 130.89 27.7469C130.89 27.7469 130.799 27.6565 130.799 27.5661C130.799 27.4757 130.799 27.4757 130.89 27.3853C130.89 27.3853 130.89 27.3853 130.98 27.3853H131.071H131.161H131.251C131.342 27.3853 131.342 27.4757 131.342 27.5661C131.342 27.4757 131.342 27.4757 131.342 27.5661ZM125.286 21.6905C125.376 21.8713 125.466 21.9617 125.557 22.0521C125.737 22.1425 125.828 22.1425 126.009 22.1425C126.189 22.1425 126.37 22.1425 126.461 22.0521C126.551 21.9617 126.732 21.7809 126.732 21.6905C126.732 21.6002 126.822 21.5098 126.822 21.4194V21.6905H127.817V22.1425H128.449V21.6905H128.63V21.1482H128.449V19.7019H127.907L126.913 21.1482C126.913 21.0578 126.913 21.0578 126.913 20.9674C126.913 20.6962 126.913 20.5154 126.822 20.2443C126.732 20.0635 126.641 19.9731 126.551 19.8827C126.37 19.7923 126.28 19.7019 126.099 19.7923C126.009 19.7923 125.828 19.7923 125.737 19.8827C125.647 19.9731 125.557 20.0635 125.466 20.1539C125.286 20.4251 125.195 20.7866 125.286 21.0578C125.195 21.2386 125.195 21.4194 125.286 21.6905ZM127.636 21.1482L127.907 20.7866V21.1482H127.636ZM125.828 20.9674C125.828 20.7866 125.828 20.6962 125.828 20.5154C125.828 20.425 125.918 20.3347 125.918 20.3347L126.009 20.2443C126.009 20.2443 126.099 20.2443 126.189 20.3347C126.28 20.5154 126.28 20.6962 126.28 20.877C126.28 21.0578 126.28 21.2386 126.189 21.4194C126.189 21.4194 126.189 21.5098 126.099 21.5098H126.009H125.918L125.828 21.4194C125.828 21.329 125.737 21.1482 125.828 20.9674ZM131.161 16.6285L130.528 17.8036C130.438 17.894 130.438 17.9844 130.348 18.1652C130.348 18.2556 130.348 18.346 130.348 18.4364C130.348 18.5268 130.348 18.6172 130.438 18.7076C130.438 18.798 130.528 18.8884 130.619 18.9788C130.709 19.0692 130.89 19.1595 130.98 19.1595C131.161 19.1595 131.251 19.1595 131.432 19.1595C131.613 19.0691 131.703 18.9788 131.794 18.8884C131.884 18.798 131.884 18.6172 131.884 18.4364C131.884 18.346 131.884 18.2556 131.794 18.1652C131.794 18.0748 131.703 17.9844 131.613 17.894C131.523 17.8037 131.342 17.7133 131.251 17.7133L131.613 16.9901L131.161 16.6285ZM131.342 18.346C131.342 18.346 131.342 18.4364 131.342 18.346C131.342 18.4364 131.342 18.4364 131.251 18.5268C131.251 18.5268 131.251 18.5268 131.161 18.5268H131.071H130.98C130.98 18.5268 130.98 18.5268 130.89 18.5268C130.89 18.5268 130.799 18.4364 130.799 18.346C130.799 18.2556 130.799 18.2556 130.89 18.1652C130.89 18.1652 130.89 18.1652 130.98 18.1652C131.071 18.1652 131.071 18.1652 131.071 18.1652H131.161H131.251C131.342 18.2556 131.342 18.2556 131.342 18.346C131.342 18.2556 131.342 18.346 131.342 18.346ZM129.444 13.0128L130.076 11.8377C130.167 11.7473 130.167 11.6569 130.257 11.4761C130.257 11.3857 130.257 11.2953 130.257 11.205C130.257 11.1146 130.257 11.0242 130.167 10.9338C130.167 10.8434 130.076 10.753 129.986 10.6626C129.896 10.5722 129.715 10.4818 129.624 10.4818C129.444 10.4818 129.353 10.4818 129.172 10.4818C128.992 10.5722 128.901 10.6626 128.811 10.753C128.72 10.8434 128.72 11.0242 128.72 11.205C128.72 11.2953 128.72 11.3857 128.811 11.4761C128.811 11.5665 128.901 11.6569 128.992 11.7473C129.082 11.8377 129.263 11.9281 129.353 11.9281L128.992 12.6512L129.444 13.0128ZM129.263 11.2953C129.263 11.2953 129.353 11.205 129.263 11.2953C129.263 11.205 129.263 11.205 129.353 11.1146C129.353 11.1146 129.353 11.1146 129.444 11.1146H129.534H129.624C129.624 11.1146 129.624 11.1146 129.715 11.1146C129.715 11.1146 129.715 11.1146 129.715 11.205V11.2953C129.715 11.3857 129.715 11.3857 129.624 11.4761C129.624 11.4761 129.624 11.4761 129.534 11.4761H129.444H129.353C129.353 11.4761 129.353 11.4761 129.263 11.4761C129.353 11.3857 129.353 11.3857 129.263 11.2953C129.353 11.3857 129.263 11.2953 129.263 11.2953ZM139.929 12.3801C139.929 12.3801 140.02 12.2897 139.929 12.3801C140.02 12.2897 140.02 12.1993 140.02 12.1993V12.1089C140.02 12.1089 140.02 12.0185 139.929 12.0185C139.839 11.9281 139.748 11.9281 139.568 11.9281H139.477V11.3857H139.568C139.658 11.3857 139.658 11.3857 139.748 11.3857C139.748 11.3857 139.839 11.3857 139.839 11.2953V11.205C139.839 11.205 139.839 11.205 139.839 11.1146C139.839 11.1146 139.839 11.1146 139.748 11.1146C139.658 11.1146 139.748 11.1146 139.658 11.1146H139.568L139.477 11.205V11.2953H138.935V11.205C138.935 11.0242 139.025 10.8434 139.206 10.753C139.387 10.6626 139.568 10.5722 139.748 10.5722C139.929 10.5722 140.11 10.6626 140.291 10.753C140.381 10.8434 140.381 10.8434 140.472 10.9338C140.562 11.0242 140.562 11.1146 140.562 11.205C140.562 11.2953 140.562 11.3857 140.472 11.5665C140.472 11.6569 140.381 11.6569 140.381 11.6569C140.472 11.6569 140.562 11.7473 140.562 11.8377C140.652 11.9281 140.652 12.1089 140.652 12.1993C140.652 12.2897 140.652 12.3801 140.562 12.4705C140.562 12.5609 140.472 12.6512 140.381 12.7416C140.2 12.9224 140.02 13.0128 139.748 13.0128C139.658 13.0128 139.568 13.0128 139.477 12.9224C139.387 12.9224 139.296 12.832 139.206 12.7416C139.025 12.5608 138.935 12.3801 138.935 12.1993V12.1089H139.477V12.1993C139.477 12.2897 139.477 12.3801 139.568 12.3801C139.658 12.3801 139.658 12.4705 139.748 12.4705C139.839 12.4705 139.929 12.3801 139.929 12.3801ZM126.913 9.2163C126.913 9.39709 126.913 9.48748 127.003 9.57788C127.093 9.66827 127.184 9.75867 127.274 9.84906C127.455 9.93945 127.545 9.93945 127.726 9.93945C127.907 9.93945 127.997 9.93945 128.178 9.84906C128.268 9.75867 128.359 9.66827 128.449 9.57788C128.54 9.48748 128.54 9.3067 128.54 9.2163C128.54 9.12591 128.54 8.94513 128.449 8.85474C128.359 8.76434 128.359 8.67395 128.268 8.67395C128.268 8.58355 128.359 8.58356 128.359 8.49316C128.359 8.40277 128.449 8.31238 128.449 8.22198C128.449 8.13159 128.449 7.9508 128.359 7.86041C128.268 7.77002 128.178 7.67963 128.088 7.58923C127.997 7.49884 127.817 7.49884 127.726 7.49884C127.636 7.49884 127.455 7.49884 127.365 7.58923C127.274 7.67963 127.184 7.77002 127.093 7.86041C127.003 7.9508 127.003 8.13159 127.003 8.22198C127.003 8.31238 127.003 8.40277 127.093 8.49316C127.093 8.58356 127.184 8.58355 127.184 8.67395C127.093 8.76434 127.093 8.85474 127.003 8.85474C126.913 8.94513 126.913 9.03552 126.913 9.2163ZM127.907 8.31237C127.817 8.31237 127.817 8.31237 127.907 8.31237C127.817 8.40277 127.726 8.31237 127.726 8.31237C127.726 8.31237 127.636 8.31238 127.636 8.22198V8.13159C127.636 8.13159 127.636 8.13159 127.636 8.0412C127.636 8.0412 127.636 8.0412 127.636 7.95081C127.636 7.95081 127.636 7.95081 127.726 7.95081C127.726 7.95081 127.726 7.95081 127.817 7.95081C127.817 7.95081 127.817 7.95081 127.907 7.95081C127.907 7.95081 127.907 7.95081 127.997 7.95081C127.997 7.95081 127.997 7.95081 127.997 8.0412C127.997 8.0412 127.997 8.0412 127.997 8.13159C127.907 8.22198 127.907 8.22198 127.907 8.31237ZM127.726 8.94513C127.817 8.94513 127.817 8.94513 127.907 9.03552C127.907 9.03552 127.907 9.12591 127.997 9.12591V9.2163V9.3067C127.997 9.3067 127.997 9.39709 127.907 9.39709C127.817 9.39709 127.817 9.48749 127.726 9.48749C127.636 9.48749 127.545 9.48749 127.545 9.39709C127.545 9.39709 127.545 9.3971 127.455 9.3067V9.2163V9.12591C127.455 9.12591 127.455 9.03552 127.545 9.03552C127.636 8.94513 127.726 8.94513 127.726 8.94513ZM127.726 10.4818L127.093 11.6569C127.003 11.7473 127.003 11.8377 126.913 12.0185C126.913 12.1089 126.913 12.1993 126.913 12.2897C126.913 12.3801 126.913 12.4705 127.003 12.5609C127.093 12.6512 127.093 12.7416 127.184 12.832C127.274 12.9224 127.455 13.0128 127.545 13.0128C127.726 13.0128 127.817 13.0128 127.997 13.0128C128.178 12.9224 128.268 12.832 128.359 12.7416C128.449 12.6512 128.449 12.4705 128.449 12.2897C128.449 12.1993 128.449 12.1089 128.359 12.0185C128.359 11.9281 128.268 11.8377 128.178 11.7473C128.088 11.6569 127.907 11.5665 127.817 11.5665L128.178 10.8434L127.726 10.4818ZM127.907 12.1993C127.907 12.2897 127.907 12.2897 127.907 12.1993C127.907 12.2897 127.907 12.2897 127.817 12.3801C127.817 12.3801 127.817 12.3801 127.726 12.3801H127.636H127.545C127.545 12.3801 127.545 12.3801 127.455 12.3801C127.455 12.3801 127.365 12.2897 127.365 12.1993C127.365 12.1089 127.365 12.1089 127.455 12.0185C127.455 12.0185 127.455 12.0185 127.545 12.0185H127.636H127.726H127.817C127.907 12.1089 127.907 12.1089 127.907 12.1993ZM129.624 20.6962C129.624 20.6058 129.715 20.5154 129.715 20.425V20.3347V20.2443H129.624H129.534H129.444C129.444 20.2443 129.353 20.2443 129.353 20.3347C129.263 20.425 129.263 20.5154 129.263 20.5154V20.6058H128.63V20.5154C128.63 20.2443 128.72 20.0635 128.901 19.8827C128.992 19.7923 129.082 19.7019 129.172 19.7019C129.263 19.7019 129.353 19.6115 129.534 19.6115C129.715 19.6115 129.805 19.6115 129.896 19.7019C129.986 19.7923 130.076 19.8827 130.167 19.9731C130.257 20.0635 130.257 20.2443 130.257 20.3347C130.257 20.5154 130.167 20.6962 130.167 20.7866C130.076 20.9674 129.896 21.1482 129.715 21.329L129.624 21.4194H130.257V21.9617H128.54V21.6002L129.263 20.877C129.444 20.9674 129.534 20.877 129.624 20.6962ZM129.444 7.40844L128.811 8.58356C128.72 8.67395 128.72 8.76434 128.63 8.94513C128.63 9.03552 128.63 9.12591 128.63 9.2163C128.63 9.3067 128.63 9.39709 128.72 9.48749C128.811 9.57788 128.811 9.66827 128.901 9.75867C128.992 9.84906 129.172 9.93945 129.263 9.93945C129.444 9.93945 129.534 9.93945 129.715 9.93945C129.896 9.84906 129.986 9.75866 130.076 9.66827C130.167 9.57788 130.167 9.39709 130.167 9.2163C130.167 9.12591 130.167 9.03552 130.076 8.94513C130.076 8.85474 129.986 8.76434 129.896 8.67395C129.805 8.58355 129.624 8.49316 129.534 8.49316L129.896 7.77002L129.444 7.40844ZM129.624 9.12591C129.624 9.21631 129.624 9.21631 129.624 9.12591C129.624 9.21631 129.624 9.21631 129.534 9.3067C129.534 9.3067 129.534 9.3067 129.444 9.3067H129.353H129.263C129.263 9.3067 129.263 9.3067 129.172 9.3067C129.172 9.3067 129.082 9.21631 129.082 9.12591C129.082 9.03552 129.082 9.03552 129.172 8.94513C129.172 8.94513 129.172 8.94513 129.263 8.94513H129.353H129.444H129.534C129.624 9.03552 129.624 9.03552 129.624 9.12591ZM127.093 18.8884L127.907 17.2613H127.003V16.7189H128.63V17.0805L127.636 19.1595L127.093 18.8884ZM128.63 14.8207C128.63 14.6399 128.72 14.3687 128.811 14.1879C128.901 14.0071 129.082 13.8264 129.263 13.736C129.444 13.6456 129.624 13.5552 129.896 13.5552C130.167 13.5552 130.348 13.5552 130.528 13.6456C130.709 13.736 130.89 13.8264 130.98 14.0071L131.071 14.0975L130.619 14.4591L130.528 14.3687C130.438 14.2783 130.348 14.1879 130.257 14.1879C130.167 14.0975 130.076 14.0975 129.896 14.0975C129.805 14.0975 129.715 14.0975 129.624 14.1879C129.534 14.1879 129.444 14.2783 129.444 14.3687C129.353 14.4591 129.353 14.4591 129.263 14.5495C129.172 14.6399 129.172 14.7303 129.172 14.8207C129.172 14.9111 129.172 15.0919 129.263 15.1823C129.353 15.2726 129.444 15.363 129.534 15.4534C129.624 15.5438 129.715 15.5438 129.896 15.5438C129.986 15.5438 130.076 15.5438 130.257 15.4534C130.348 15.363 130.438 15.2726 130.528 15.1823L130.619 15.0919L131.071 15.5438L130.98 15.6342C130.799 15.815 130.709 15.9054 130.528 15.9958C130.348 16.0862 130.167 16.0862 129.986 16.0862C129.805 16.0862 129.624 16.0862 129.534 15.9958C129.353 15.9054 129.263 15.815 129.082 15.7246C128.992 15.6342 128.901 15.4534 128.811 15.2726C128.72 15.1823 128.63 15.0015 128.63 14.8207ZM131.251 22.1425H131.884V21.6905H132.065V21.1482H131.884V19.7019H131.342L130.348 21.1482V21.6905H131.342V22.1425H131.251ZM131.071 21.1482L131.342 20.7866V21.1482H131.071ZM127.184 15.815C127.274 15.9054 127.455 15.9958 127.545 15.9958C127.726 15.9958 127.817 15.9958 127.997 15.9958C128.178 15.9054 128.268 15.815 128.359 15.7246C128.449 15.6342 128.449 15.4534 128.449 15.2726C128.449 15.1823 128.449 15.0919 128.359 15.0015C128.359 14.9111 128.268 14.8207 128.178 14.7303C128.088 14.6399 127.907 14.5495 127.817 14.5495L128.178 13.8264L127.636 13.5552L127.003 14.7303C126.913 14.8207 126.913 14.9111 126.822 15.0919C126.822 15.1822 126.822 15.2726 126.822 15.363C126.822 15.4534 126.822 15.5438 126.913 15.6342C127.093 15.7246 127.093 15.7246 127.184 15.815ZM127.545 15.2726C127.545 15.1823 127.545 15.1822 127.636 15.0919C127.636 15.0919 127.636 15.0919 127.726 15.0919H127.817H127.907H127.997C127.997 15.0919 127.997 15.0919 127.997 15.1823V15.2726V15.363V15.4534C127.997 15.4534 127.997 15.4534 127.907 15.4534H127.817H127.726C127.726 15.4534 127.726 15.4534 127.636 15.4534C127.636 15.4534 127.545 15.363 127.545 15.2726C127.545 15.363 127.545 15.2726 127.545 15.2726ZM130.709 25.2159C130.89 25.3063 130.98 25.3063 131.161 25.3063C131.342 25.3063 131.432 25.3063 131.613 25.2159C131.703 25.1255 131.794 25.0351 131.884 24.9447C131.975 24.8543 131.975 24.6735 131.975 24.5831C131.975 24.4927 131.975 24.312 131.884 24.2216C131.884 24.1312 131.794 24.0408 131.703 24.0408C131.703 23.9504 131.794 23.9504 131.794 23.86C131.794 23.7696 131.884 23.6792 131.884 23.5888C131.884 23.4984 131.884 23.3176 131.794 23.2272C131.703 23.1368 131.613 23.0464 131.523 22.9561C131.432 22.8657 131.251 22.8657 131.161 22.8657C131.071 22.8657 130.89 22.8657 130.799 22.9561C130.709 23.0464 130.619 23.1368 130.528 23.2272C130.438 23.3176 130.438 23.4984 130.438 23.5888C130.438 23.6792 130.438 23.7696 130.528 23.86C130.528 23.9504 130.619 23.9504 130.619 24.0408C130.528 24.1312 130.528 24.2216 130.438 24.2216C130.348 24.312 130.348 24.4927 130.348 24.5831C130.348 24.7639 130.348 24.8543 130.438 24.9447C130.528 25.0351 130.619 25.1255 130.709 25.2159ZM131.342 23.5888C131.251 23.6792 131.251 23.6792 131.342 23.5888C131.251 23.6792 131.161 23.5888 131.161 23.5888C131.161 23.5888 131.071 23.5888 131.071 23.4984V23.408C131.071 23.408 131.071 23.408 131.071 23.3176C131.071 23.3176 131.071 23.3176 131.071 23.2272C131.071 23.2272 131.071 23.2272 131.161 23.2272C131.161 23.2272 131.161 23.2272 131.251 23.2272C131.251 23.2272 131.251 23.2272 131.342 23.2272C131.342 23.2272 131.342 23.2272 131.432 23.2272C131.432 23.2272 131.432 23.2272 131.432 23.3176C131.432 23.3176 131.432 23.3176 131.432 23.408C131.342 23.4984 131.342 23.5888 131.342 23.5888ZM131.161 24.2216C131.251 24.2216 131.251 24.2216 131.342 24.312C131.342 24.312 131.342 24.4023 131.432 24.4023V24.4927V24.5831C131.432 24.5831 131.432 24.6735 131.342 24.6735C131.251 24.6735 131.251 24.7639 131.161 24.7639C131.071 24.7639 130.98 24.7639 130.98 24.6735C130.98 24.6735 130.98 24.6735 130.89 24.5831V24.4927V24.4023C130.89 24.4023 130.89 24.312 130.98 24.312C131.071 24.2216 131.161 24.2216 131.161 24.2216ZM128.992 28.1988C129.172 28.2892 129.263 28.2892 129.444 28.2892C129.624 28.2892 129.805 28.2892 129.896 28.1988C129.986 28.1085 130.167 27.9277 130.167 27.8373C130.348 27.3853 130.348 26.843 130.167 26.391C130.076 26.2102 129.986 26.1198 129.896 26.0294C129.715 25.939 129.624 25.8486 129.444 25.939C129.353 25.939 129.172 25.939 129.082 26.0294C128.992 26.1198 128.901 26.2102 128.811 26.3006C128.63 26.5718 128.54 26.9333 128.63 27.2045C128.63 27.4757 128.63 27.6565 128.72 27.9277C128.811 27.9277 128.901 28.1085 128.992 28.1988ZM129.172 27.1141C129.172 26.9333 129.172 26.843 129.172 26.6622C129.172 26.5718 129.263 26.4814 129.263 26.4814L129.353 26.391C129.444 26.391 129.444 26.391 129.534 26.4814C129.624 26.6622 129.624 26.843 129.624 27.0237C129.624 27.2045 129.624 27.3853 129.534 27.5661C129.534 27.5661 129.534 27.6565 129.444 27.6565H129.353H129.263L129.172 27.5661C129.263 27.4757 129.172 27.2949 129.172 27.1141ZM125.286 12.4705C125.376 12.6512 125.466 12.7416 125.557 12.832C125.737 12.9224 125.828 12.9224 126.009 12.9224C126.189 12.9224 126.37 12.9224 126.461 12.832C126.551 12.7416 126.732 12.5609 126.732 12.4705C126.822 12.1993 126.822 12.0185 126.822 11.7473C126.822 11.4761 126.822 11.2953 126.732 11.0242C126.641 10.8434 126.551 10.753 126.461 10.6626C126.28 10.5722 126.189 10.4818 126.009 10.5722C125.918 10.5722 125.737 10.5722 125.647 10.6626C125.557 10.753 125.466 10.8434 125.376 10.9338C125.195 11.205 125.105 11.5665 125.195 11.8377C125.195 12.0185 125.195 12.2897 125.286 12.4705ZM125.828 11.8377C125.828 11.6569 125.828 11.5665 125.828 11.3857C125.828 11.2953 125.918 11.205 125.918 11.205L126.009 11.1146C126.009 11.1146 126.099 11.1146 126.189 11.205C126.28 11.3857 126.28 11.5665 126.28 11.7473C126.28 11.9281 126.28 12.1089 126.189 12.2897C126.189 12.2897 126.189 12.3801 126.099 12.3801H126.009H125.918L125.828 12.2897C125.828 12.1993 125.737 12.0185 125.828 11.8377ZM125.286 18.6172C125.376 18.798 125.466 18.8884 125.557 18.9788C125.737 19.0692 125.828 19.0692 126.009 19.0692C126.189 19.0692 126.37 19.0692 126.461 18.9788C126.551 18.8884 126.732 18.7076 126.732 18.6172C126.913 18.1652 126.913 17.6229 126.732 17.1709C126.641 16.9901 126.551 16.8997 126.461 16.8093C126.28 16.7189 126.189 16.6285 126.009 16.7189C125.918 16.7189 125.737 16.7189 125.647 16.8093C125.557 16.8997 125.466 16.9901 125.376 17.0805C125.195 17.3517 125.105 17.7133 125.195 17.9844C125.195 18.1652 125.195 18.346 125.286 18.6172ZM125.828 17.894C125.828 17.7133 125.828 17.6229 125.828 17.4421C125.828 17.3517 125.918 17.2613 125.918 17.2613L126.009 17.1709C126.009 17.1709 126.099 17.1709 126.189 17.2613C126.28 17.4421 126.28 17.6229 126.28 17.8036C126.28 17.9844 126.28 18.1652 126.189 18.346C126.189 18.346 126.189 18.4364 126.099 18.4364H126.009H125.918L125.828 18.346C125.828 18.2556 125.737 18.0748 125.828 17.894ZM131.161 9.93945L131.794 8.76434C131.884 8.67395 131.884 8.58356 131.975 8.40277C131.975 8.31238 131.975 8.22198 131.975 8.13159C131.975 8.0412 131.975 7.9508 131.884 7.86041C131.884 7.77002 131.794 7.67963 131.703 7.58923C131.613 7.49884 131.432 7.40844 131.342 7.40844C131.161 7.40844 131.071 7.40844 130.89 7.40844C130.709 7.49884 130.619 7.58923 130.528 7.67963C130.438 7.77002 130.438 7.9508 130.438 8.13159C130.438 8.22198 130.438 8.31238 130.528 8.40277C130.528 8.49317 130.619 8.58355 130.709 8.67395C130.799 8.76434 130.98 8.85474 131.071 8.85474L130.709 9.57788L131.161 9.93945ZM130.98 8.22198C130.98 8.13159 130.98 8.13159 131.071 8.0412C131.071 8.0412 131.071 8.0412 131.161 8.0412H131.251H131.342C131.342 8.0412 131.342 8.0412 131.432 8.0412C131.432 8.0412 131.432 8.0412 131.432 8.13159C131.432 8.22198 131.432 8.22198 131.432 8.22198C131.432 8.31238 131.432 8.31238 131.342 8.40277C131.342 8.40277 131.342 8.40277 131.251 8.40277H131.161H131.071C131.071 8.40277 131.071 8.40277 130.98 8.40277C131.071 8.40277 131.071 8.31238 130.98 8.22198C130.98 8.31238 130.98 8.22198 130.98 8.22198ZM128.811 18.8884L129.624 17.2613H128.72V16.7189H130.348V17.0805L129.353 19.1595L128.811 18.8884ZM130.438 10.5722H132.065V10.9338L131.071 13.0128L130.528 12.7416L131.342 11.1146H130.438V10.5722ZM128.63 28.2892H126.913V27.9277L127.636 27.2045C127.726 27.1141 127.907 26.9333 127.907 26.843C127.907 26.7526 127.997 26.6622 127.997 26.5718V26.4814V26.391H127.907H127.817H127.726C127.726 26.391 127.636 26.391 127.636 26.4814C127.545 26.5718 127.545 26.6622 127.545 26.6622V26.7526H126.913V26.6622C126.913 26.391 127.003 26.2102 127.184 26.0294C127.274 25.939 127.365 25.8486 127.455 25.8486C127.545 25.8486 127.636 25.7582 127.817 25.7582C127.997 25.7582 128.088 25.7582 128.178 25.8486C128.268 25.939 128.359 26.0294 128.449 26.1198C128.54 26.2102 128.54 26.391 128.54 26.4814C128.54 26.6622 128.449 26.843 128.449 26.9334C128.359 27.1141 128.178 27.2949 127.997 27.4757L127.907 27.5661H128.54V28.2892H128.63ZM128.63 23.1368L127.636 25.2159L127.093 24.9447L127.907 23.3176H127.003V22.7753H128.63V23.1368ZM129.444 22.7753L128.811 23.9504C128.72 24.0408 128.72 24.1312 128.63 24.312C128.63 24.4023 128.63 24.4927 128.63 24.5831C128.63 24.6735 128.63 24.7639 128.72 24.8543C128.811 24.9447 128.811 25.0351 128.901 25.1255C128.992 25.2159 129.172 25.3063 129.263 25.3063C129.444 25.3063 129.534 25.3063 129.715 25.3063C129.896 25.2159 129.986 25.1255 130.076 25.0351C130.167 24.9447 130.167 24.7639 130.167 24.5831C130.167 24.4927 130.167 24.4023 130.076 24.312C130.076 24.2216 129.986 24.1312 129.896 24.0408C129.805 23.9504 129.624 23.86 129.534 23.86L129.896 23.1368L129.444 22.7753ZM129.624 24.4927C129.624 24.5831 129.624 24.5831 129.534 24.6735C129.534 24.6735 129.534 24.6735 129.444 24.6735H129.353H129.263C129.263 24.6735 129.263 24.6735 129.172 24.6735C129.172 24.6735 129.082 24.5831 129.082 24.4927C129.082 24.4023 129.082 24.4023 129.172 24.312C129.172 24.312 129.172 24.312 129.263 24.312H129.353H129.444H129.534C129.624 24.312 129.624 24.4023 129.624 24.4927C129.624 24.4023 129.624 24.4927 129.624 24.4927ZM126.913 6.86609H125.195V6.50451L125.918 5.78137C126.009 5.69098 126.099 5.51019 126.189 5.4198C126.189 5.32941 126.28 5.23901 126.28 5.14862V5.05822V4.96783H126.189H126.099H126.009C126.009 4.96783 125.918 4.96783 125.918 5.05822C125.828 5.14862 125.828 5.23902 125.828 5.23902V5.32941H125.195V5.23902C125.195 4.96784 125.286 4.78705 125.466 4.60626C125.557 4.51587 125.647 4.42548 125.737 4.42548C125.828 4.42548 125.918 4.33508 126.099 4.33508C126.28 4.33508 126.37 4.33508 126.461 4.42548C126.551 4.51587 126.641 4.60626 126.732 4.69665C126.822 4.78704 126.822 4.96783 126.822 5.05822C126.822 5.23901 126.732 5.4198 126.732 5.51019C126.641 5.69098 126.461 5.87176 126.28 6.05255L126.189 6.14295H126.822V6.86609H126.913ZM127.907 1.98486H127.003V1.4425H128.63V1.80408L127.636 3.88312L127.093 3.61194L127.907 1.98486ZM126.189 1.98486H125.286V1.4425H126.913V1.80408L125.918 3.88312L125.376 3.61194L126.189 1.98486ZM127.184 31.1818C127.003 31.001 126.913 30.8203 126.913 30.6395V30.5491H127.455V30.6395C127.455 30.7299 127.455 30.8202 127.545 30.8202C127.636 30.8202 127.636 30.9106 127.726 30.9106C127.817 30.9106 127.817 30.9106 127.907 30.8202C127.907 30.8202 127.907 30.7299 127.997 30.7299V30.6395V30.5491C127.997 30.5491 127.997 30.4587 127.907 30.4587C127.817 30.3683 127.726 30.3683 127.545 30.3683H127.455V29.8259H127.545C127.636 29.8259 127.636 29.8259 127.726 29.8259C127.726 29.8259 127.817 29.8259 127.817 29.7355V29.6451C127.817 29.6451 127.817 29.6451 127.817 29.5547C127.817 29.5547 127.817 29.5547 127.726 29.5547C127.726 29.5547 127.726 29.5547 127.636 29.5547H127.545L127.455 29.6451V29.7355H126.913V29.6451C126.913 29.4644 127.003 29.2836 127.184 29.1932C127.365 29.1028 127.545 29.0124 127.726 29.0124C127.907 29.0124 128.088 29.1028 128.268 29.1932C128.359 29.2836 128.359 29.2836 128.449 29.374C128.449 29.4644 128.54 29.5548 128.54 29.6451C128.54 29.7355 128.54 29.8259 128.449 30.0067C128.449 30.0971 128.359 30.0971 128.359 30.0971C128.449 30.0971 128.54 30.1875 128.54 30.2779C128.63 30.3683 128.63 30.5491 128.63 30.6395C128.63 30.7299 128.63 30.8202 128.54 30.9106C128.54 31.001 128.449 31.0914 128.359 31.1818C128.178 31.3626 127.997 31.453 127.726 31.453C127.636 31.453 127.545 31.453 127.455 31.3626C127.365 31.2722 127.274 31.2722 127.184 31.1818ZM126.009 31.3626C126.099 31.3626 126.189 31.3626 126.28 31.2722C126.37 31.2722 126.461 31.1818 126.551 31.0914C126.641 31.001 126.641 30.9106 126.732 30.8202C126.732 30.7299 126.822 30.6395 126.822 30.5491C126.822 30.4587 126.822 30.3683 126.732 30.2779C126.732 30.1875 126.641 30.0971 126.551 30.0067C126.461 29.9163 126.28 29.8259 126.189 29.8259L126.551 29.1028L126.009 28.8316L125.376 30.0067C125.286 30.0971 125.286 30.1875 125.195 30.3683C125.195 30.4587 125.195 30.5491 125.195 30.6395C125.195 30.7299 125.195 30.8202 125.286 30.9106C125.376 31.001 125.376 31.0914 125.466 31.1818C125.557 31.2722 125.647 31.3626 125.737 31.3626C125.828 31.3626 125.918 31.3626 126.009 31.3626ZM125.828 30.6395C125.828 30.5491 125.828 30.5491 125.918 30.4587C125.918 30.4587 125.918 30.4587 126.009 30.4587H126.099H126.189H126.28C126.28 30.4587 126.28 30.4587 126.28 30.5491V30.6395V30.7299V30.8202C126.28 30.8202 126.28 30.8202 126.189 30.8202H126.099H126.009C126.009 30.8202 126.009 30.8202 125.918 30.8202C125.918 30.7299 125.828 30.7299 125.828 30.6395ZM125.286 31.9954H126.913V32.3569L125.918 34.436L125.376 34.1648L126.189 32.5377H125.286V31.9954ZM129.444 3.79272C129.534 3.79272 129.624 3.79272 129.715 3.70233C129.805 3.70233 129.896 3.61194 129.986 3.52155C130.076 3.43115 130.076 3.34076 130.167 3.25036C130.257 3.15997 130.257 3.06958 130.257 2.97919C130.257 2.8888 130.257 2.7984 130.167 2.70801C130.167 2.61761 130.076 2.52722 129.986 2.43682C129.896 2.34643 129.715 2.25604 129.624 2.25604L129.986 1.53289L129.444 1.26172L128.811 2.43682C128.72 2.52722 128.72 2.61761 128.63 2.7984C128.63 2.88879 128.63 2.97919 128.63 3.06958C128.63 3.15997 128.63 3.25036 128.72 3.34076C128.72 3.43115 128.811 3.52154 128.901 3.61194C128.992 3.70233 129.082 3.79272 129.172 3.79272C129.263 3.79272 129.353 3.79272 129.444 3.79272ZM129.263 3.06958C129.263 2.97919 129.263 2.97918 129.353 2.88879C129.353 2.88879 129.353 2.88879 129.444 2.88879H129.534H129.624H129.715C129.715 2.88879 129.715 2.8888 129.715 2.97919V3.06958V3.15997V3.25036C129.715 3.25036 129.715 3.25036 129.624 3.25036H129.534H129.444C129.444 3.25036 129.444 3.25036 129.353 3.25036C129.353 3.15997 129.263 3.15997 129.263 3.06958ZM125.466 28.1085C125.286 28.0181 125.195 27.8373 125.195 27.6565V27.5661H125.828V27.6565C125.828 27.7469 125.918 27.7469 125.918 27.7469C126.009 27.7469 126.009 27.7469 126.099 27.7469C126.189 27.7469 126.189 27.7469 126.28 27.6565C126.37 27.5661 126.37 27.5661 126.37 27.4757C126.37 27.3853 126.37 27.2949 126.28 27.2949L126.189 27.2045H126.099L126.009 27.2949L125.557 27.2045L125.828 25.8486H127.003V26.391H126.28V26.5718C126.37 26.5718 126.461 26.5718 126.551 26.6622C126.641 26.7526 126.732 26.7526 126.822 26.843C126.913 26.9333 126.913 27.0237 127.003 27.1141C127.003 27.2045 127.093 27.2949 127.093 27.3853C127.093 27.4757 127.093 27.5661 127.003 27.7469C127.003 27.8373 126.913 27.9277 126.822 28.0181C126.732 28.1085 126.641 28.1988 126.551 28.1988C126.461 28.1988 126.37 28.2892 126.189 28.2892C125.828 28.2892 125.647 28.2892 125.466 28.1085ZM128.54 4.96783C128.449 4.78705 128.359 4.69665 128.268 4.60626C128.088 4.51587 127.997 4.42547 127.817 4.51587C127.726 4.51587 127.545 4.51587 127.455 4.60626C127.365 4.69665 127.274 4.78705 127.184 4.87744C127.003 5.14862 127.003 5.51019 127.003 5.78137C127.003 6.05255 127.003 6.23333 127.093 6.50451C127.184 6.6853 127.274 6.77569 127.365 6.86609C127.545 6.95648 127.636 6.95648 127.817 6.95648C127.997 6.95648 128.178 6.95648 128.268 6.86609C128.359 6.77569 128.54 6.59491 128.54 6.50451C128.54 6.41412 128.63 6.32373 128.63 6.23334V6.50451H129.624V6.95648H130.257V6.50451H130.438V5.96216H130.257V4.51587H129.624L128.63 5.96216C128.63 5.87176 128.63 5.87177 128.63 5.78137C128.63 5.4198 128.63 5.14862 128.54 4.96783ZM127.997 5.60058C127.997 5.78137 127.997 5.96216 127.907 6.14295C127.907 6.14295 127.907 6.23334 127.817 6.23334H127.726H127.636L127.545 6.14295C127.455 5.96216 127.455 5.78137 127.455 5.60058C127.455 5.4198 127.455 5.3294 127.455 5.14862C127.455 5.05822 127.545 4.96783 127.545 4.96783L127.636 4.87744C127.636 4.87744 127.726 4.87744 127.817 4.96783C127.997 5.23901 128.088 5.4198 127.997 5.60058ZM129.353 5.78137L129.624 5.4198V5.78137H129.353ZM135.5 6.23334V6.14295H136.133V6.23334C136.133 6.32373 136.223 6.32373 136.223 6.32373C136.313 6.32373 136.313 6.32373 136.404 6.32373C136.494 6.32373 136.494 6.32373 136.585 6.23334C136.675 6.14294 136.675 6.14294 136.675 6.05255C136.675 5.96215 136.675 5.87176 136.585 5.87176L136.494 5.78137C136.404 5.78137 136.404 5.78137 136.404 5.78137L136.313 5.87176L135.862 5.78137L136.133 4.42548H137.308V4.96783H136.585V5.14862C136.675 5.14862 136.765 5.14862 136.856 5.23902C136.946 5.23902 137.037 5.32941 137.127 5.4198C137.217 5.51019 137.217 5.60059 137.308 5.69098C137.308 5.78137 137.398 5.87176 137.398 5.96216C137.398 6.05255 137.398 6.14294 137.308 6.32373C137.308 6.41412 137.217 6.50452 137.127 6.59491C137.037 6.6853 136.946 6.77569 136.856 6.77569C136.765 6.77569 136.675 6.86609 136.494 6.86609C136.313 6.86609 136.133 6.7757 135.952 6.6853C135.59 6.59491 135.5 6.41412 135.5 6.23334ZM136.404 1.98486H135.5V1.4425H137.127V1.80408L136.133 3.88312L135.59 3.61194L136.404 1.98486ZM134.506 2.88879L134.144 3.61194L134.686 3.88312L135.319 2.70801C135.41 2.61761 135.41 2.52722 135.5 2.34643C135.5 2.25604 135.5 2.16565 135.5 2.07526C135.5 1.98486 135.5 1.89447 135.41 1.80408C135.41 1.71368 135.319 1.62329 135.229 1.53289C135.138 1.4425 134.958 1.35211 134.867 1.35211C134.686 1.35211 134.596 1.35211 134.415 1.35211C134.234 1.35211 134.144 1.5329 134.054 1.62329C133.963 1.71369 133.963 1.89447 133.963 2.07526C133.963 2.16565 133.963 2.25604 134.054 2.34643C134.054 2.43683 134.144 2.52722 134.234 2.61761C134.234 2.7984 134.325 2.88879 134.506 2.88879ZM134.415 2.07526C134.415 1.98486 134.415 1.98486 134.506 1.89447C134.506 1.89447 134.506 1.89447 134.596 1.89447H134.686H134.777C134.777 1.89447 134.777 1.89447 134.867 1.89447C134.867 1.89447 134.867 1.89447 134.867 1.98486C134.867 2.07525 134.867 2.07526 134.867 2.07526C134.867 2.16565 134.867 2.16565 134.777 2.25604C134.777 2.25604 134.777 2.25604 134.686 2.25604H134.596H134.506C134.506 2.25604 134.506 2.25604 134.415 2.25604C134.506 2.25604 134.506 2.25604 134.415 2.07526C134.415 2.16565 134.415 2.16565 134.415 2.07526ZM137.127 2.7984V3.34076H138.121V3.79272H138.754V3.34076H138.935V2.7984H138.754V1.35211H138.212L137.127 2.7984ZM137.85 2.70801L138.121 2.34643V2.70801H137.85ZM132.879 3.79272C132.969 3.79272 133.059 3.79272 133.15 3.70233C133.24 3.61194 133.33 3.61194 133.421 3.52155C133.511 3.43115 133.511 3.34076 133.602 3.25036C133.602 3.15997 133.692 3.06958 133.692 2.97919C133.692 2.8888 133.692 2.7984 133.602 2.70801C133.511 2.61761 133.511 2.52722 133.421 2.43682C133.33 2.34643 133.15 2.25604 133.059 2.25604L133.421 1.53289L132.879 1.26172L132.246 2.43682C132.155 2.52722 132.155 2.61761 132.065 2.7984C132.065 2.88879 132.065 2.97919 132.065 3.06958C132.065 3.15997 132.065 3.25036 132.155 3.34076C132.155 3.43115 132.246 3.52154 132.336 3.61194C132.427 3.70233 132.517 3.79272 132.607 3.79272C132.698 3.79272 132.788 3.79272 132.879 3.79272ZM132.698 3.06958C132.698 2.97919 132.698 2.97918 132.788 2.88879C132.788 2.88879 132.788 2.88879 132.879 2.88879H132.969H133.059H133.15C133.15 2.88879 133.15 2.8888 133.15 2.97919V3.06958V3.15997V3.25036C133.15 3.25036 133.15 3.25036 133.059 3.25036H132.969H132.879C132.879 3.25036 132.879 3.25036 132.788 3.25036C132.698 3.15997 132.698 3.15997 132.698 3.06958ZM130.709 3.70233C130.89 3.79272 130.98 3.79272 131.161 3.79272C131.342 3.79272 131.432 3.79272 131.613 3.70233C131.703 3.61194 131.794 3.52155 131.884 3.43115C131.975 3.34076 131.975 3.15997 131.975 3.06958C131.975 2.97919 131.975 2.7984 131.884 2.70801C131.884 2.61761 131.794 2.52722 131.703 2.52722C131.703 2.43683 131.794 2.43683 131.794 2.34643C131.794 2.25604 131.884 2.16565 131.884 2.07526C131.884 1.98486 131.884 1.80408 131.794 1.71368C131.703 1.62329 131.613 1.5329 131.523 1.4425C131.432 1.35211 131.251 1.35211 131.161 1.35211C131.071 1.35211 130.89 1.35211 130.799 1.4425C130.709 1.5329 130.619 1.62329 130.528 1.71368C130.438 1.80408 130.438 1.98486 130.438 2.07526C130.438 2.16565 130.438 2.25604 130.528 2.34643C130.528 2.43683 130.619 2.43683 130.619 2.52722C130.528 2.61762 130.528 2.70801 130.438 2.70801C130.348 2.7984 130.348 2.97919 130.348 3.06958C130.348 3.25037 130.348 3.34076 130.438 3.43115C130.528 3.61194 130.619 3.70233 130.709 3.70233ZM131.342 2.16565C131.251 2.16565 131.251 2.16565 131.342 2.16565C131.251 2.16565 131.251 2.25604 131.251 2.25604C131.251 2.25604 131.251 2.25604 131.161 2.25604C131.161 2.25604 131.161 2.25604 131.071 2.25604C131.071 2.25604 131.071 2.25604 131.071 2.16565C131.071 2.16565 131.071 2.16565 131.071 2.07526C131.071 2.07526 131.071 2.07525 131.071 1.98486C131.071 1.98486 131.071 1.98486 131.071 1.89447C131.071 1.89447 131.071 1.89447 131.161 1.89447C131.161 1.89447 131.161 1.89447 131.251 1.89447C131.251 1.89447 131.251 1.89447 131.342 1.89447C131.342 1.89447 131.342 1.89447 131.432 1.89447C131.432 1.89447 131.432 1.89447 131.432 1.98486C131.432 1.98486 131.432 1.98486 131.432 2.07526C131.342 2.07526 131.342 2.07526 131.342 2.16565ZM131.161 2.7984C131.251 2.7984 131.251 2.7984 131.342 2.88879C131.342 2.88879 131.342 2.97919 131.432 2.97919V3.06958V3.15997C131.432 3.15997 131.432 3.25036 131.342 3.25036C131.251 3.25036 131.251 3.34076 131.161 3.34076C131.071 3.34076 130.98 3.34076 130.98 3.25036C130.98 3.25036 130.98 3.25036 130.89 3.15997V3.06958V2.97919C130.89 2.97919 130.89 2.88879 130.98 2.88879C131.071 2.7984 131.161 2.7984 131.161 2.7984ZM133.602 4.42548H133.059L132.065 5.87176V6.41412H133.059V6.86609H133.692V6.41412H133.873V5.87176H133.692V4.42548H133.602ZM132.788 5.78137L133.059 5.4198V5.78137H132.788ZM134.506 5.96216L134.144 6.6853L134.686 6.95648L135.319 5.78137C135.41 5.69098 135.41 5.60058 135.5 5.4198C135.5 5.32941 135.5 5.23901 135.5 5.14862C135.5 5.05822 135.5 4.96783 135.41 4.87744C135.41 4.78705 135.319 4.69665 135.229 4.60626C135.138 4.51587 134.958 4.42548 134.867 4.42548C134.686 4.42548 134.596 4.42548 134.415 4.42548C134.234 4.51587 134.144 4.60626 134.054 4.69665C133.963 4.78704 133.963 4.96783 133.963 5.14862C133.963 5.23901 133.963 5.32941 134.054 5.4198C134.054 5.51019 134.144 5.60059 134.234 5.69098C134.234 5.87177 134.325 5.96216 134.506 5.96216ZM134.415 5.14862C134.415 5.05822 134.415 5.05823 134.506 4.96783C134.506 4.96783 134.506 4.96783 134.596 4.96783H134.686H134.777C134.777 4.96783 134.777 4.96783 134.867 4.96783C134.867 4.96783 134.867 4.96783 134.867 5.05822V5.14862C134.867 5.23901 134.867 5.23901 134.777 5.32941C134.777 5.32941 134.777 5.32941 134.686 5.32941H134.596H134.506C134.506 5.32941 134.506 5.32941 134.415 5.32941C134.506 5.32941 134.506 5.23901 134.415 5.14862C134.415 5.23901 134.415 5.23901 134.415 5.14862ZM146.076 29.0124C145.895 28.922 145.805 28.8316 145.624 28.922C145.534 28.922 145.353 28.922 145.262 29.0124C145.172 29.1028 145.082 29.1932 144.991 29.2836C144.81 29.5547 144.72 29.9163 144.81 30.1875C144.81 30.4587 144.81 30.6395 144.901 30.9106C144.991 31.0914 145.082 31.1818 145.172 31.2722C145.353 31.3626 145.443 31.3626 145.624 31.3626C145.805 31.3626 145.986 31.3626 146.076 31.2722C146.166 31.1818 146.347 31.001 146.347 30.9106C146.528 30.4587 146.528 29.9163 146.347 29.4644C146.257 29.2836 146.166 29.1028 146.076 29.0124ZM145.895 30.1875C145.895 30.3683 145.895 30.5491 145.805 30.7299C145.805 30.7299 145.805 30.8202 145.714 30.8202H145.624H145.534L145.443 30.7299C145.353 30.5491 145.353 30.3683 145.353 30.1875C145.353 30.0067 145.353 29.9163 145.353 29.7355C145.353 29.6451 145.443 29.5547 145.443 29.5547L145.534 29.4644C145.534 29.4644 145.624 29.4644 145.714 29.5547C145.805 29.7355 145.895 29.9163 145.895 30.1875ZM143.364 33.8032H143.997V34.3456H142.279V33.984L143.003 33.2609C143.093 33.1705 143.274 32.9897 143.274 32.8993C143.274 32.8089 143.364 32.7185 143.364 32.6281V32.5377V32.4473H143.274H143.183H143.093C143.093 32.4473 143.003 32.4473 143.003 32.5377C142.912 32.6281 142.912 32.7185 142.912 32.7185V32.8089H142.279V32.7185C142.279 32.4473 142.37 32.2665 142.551 32.0858C142.641 31.9954 142.731 31.905 142.822 31.905C142.912 31.905 143.003 31.8146 143.183 31.8146C143.364 31.8146 143.455 31.8146 143.545 31.905C143.635 31.9954 143.726 32.0858 143.816 32.1761C143.906 32.2665 143.906 32.4473 143.906 32.5377C143.906 32.7185 143.816 32.8993 143.816 32.9897C143.726 33.1705 143.545 33.3513 143.364 33.532V33.8032ZM143.997 30.7299H144.63V31.2722H142.912V30.9106L143.635 30.1875C143.726 30.0971 143.906 29.9163 143.906 29.8259C143.906 29.7355 143.997 29.6451 143.997 29.5547V29.4644V29.374H143.906H143.816H143.726C143.726 29.374 143.635 29.374 143.635 29.4644C143.545 29.5547 143.545 29.6451 143.545 29.6451V29.7355H142.912V29.6451C142.912 29.374 143.003 29.1932 143.183 29.0124C143.274 28.922 143.364 28.8316 143.455 28.8316C143.545 28.8316 143.635 28.7412 143.816 28.7412C143.997 28.7412 144.087 28.7412 144.178 28.8316C144.268 28.922 144.358 29.0124 144.449 29.1028C144.539 29.1932 144.539 29.374 144.539 29.4644C144.539 29.6451 144.449 29.8259 144.449 29.9163C144.358 30.0971 144.178 30.2779 143.997 30.4587V30.7299ZM139.929 32.8993L140.291 32.1761L139.748 31.905L139.116 33.0801C139.025 33.1705 139.025 33.2609 138.935 33.4417C138.935 33.532 138.935 33.6224 138.935 33.7128C138.935 33.8032 138.935 33.8936 139.025 33.984C139.116 34.0744 139.116 34.1648 139.206 34.2552C139.296 34.3456 139.477 34.436 139.568 34.436C139.748 34.436 139.839 34.436 140.02 34.436C140.2 34.3456 140.291 34.2552 140.381 34.1648C140.472 34.0744 140.472 33.8936 140.472 33.7128C140.472 33.6224 140.472 33.532 140.381 33.4417C140.381 33.3513 140.291 33.2609 140.2 33.1705C140.2 32.9897 140.11 32.8993 139.929 32.8993ZM139.929 33.7128C139.929 33.8032 139.929 33.8032 139.839 33.8936C139.839 33.8936 139.839 33.8936 139.748 33.8936H139.658H139.568C139.568 33.8936 139.568 33.8936 139.477 33.8936C139.477 33.8936 139.387 33.8032 139.387 33.7128C139.387 33.6224 139.387 33.6224 139.477 33.532C139.477 33.532 139.477 33.532 139.568 33.532H139.658H139.748H139.839C139.929 33.532 139.929 33.532 139.929 33.7128C139.929 33.6224 139.929 33.6224 139.929 33.7128ZM127.003 31.9954H128.63V32.3569L127.636 34.436L127.093 34.1648L127.907 32.5377H127.003V31.9954ZM139.568 5.32941H138.935V5.23902C138.935 4.96784 139.025 4.78705 139.206 4.60626C139.296 4.51587 139.387 4.42548 139.477 4.42548C139.568 4.42548 139.658 4.33508 139.839 4.33508C140.02 4.33508 140.11 4.33508 140.2 4.42548C140.291 4.51587 140.381 4.60626 140.472 4.69665C140.562 4.78704 140.562 4.96783 140.562 5.05822C140.562 5.23901 140.472 5.4198 140.472 5.51019C140.381 5.69098 140.2 5.87176 140.02 6.05255L139.929 6.14295H140.562V6.6853H138.844V6.32373L139.568 5.60058C139.658 5.51019 139.748 5.32941 139.839 5.23902C139.839 5.14862 139.929 5.05823 139.929 4.96783V4.87744V4.78705H139.839H139.748H139.658C139.658 4.78705 139.568 4.78705 139.568 4.87744C139.568 5.05823 139.568 5.14862 139.568 5.32941ZM148.878 23.9504C148.788 23.86 148.607 23.7696 148.517 23.7696L148.878 23.0464L148.336 22.7753L147.703 23.9504C147.613 24.0408 147.613 24.1312 147.522 24.312C147.522 24.4023 147.522 24.4927 147.522 24.5831C147.522 24.6735 147.522 24.7639 147.613 24.8543C147.613 24.9447 147.703 25.0351 147.793 25.1255C147.884 25.2159 148.065 25.3063 148.155 25.3063C148.336 25.3063 148.426 25.3063 148.607 25.3063C148.788 25.2159 148.878 25.1255 148.968 25.0351C149.059 24.9447 149.059 24.7639 149.059 24.5831C149.059 24.4927 149.059 24.4023 148.968 24.312C149.059 24.0408 148.969 24.0408 148.878 23.9504ZM148.517 24.4927C148.517 24.5831 148.517 24.5831 148.426 24.6735C148.426 24.6735 148.426 24.6735 148.336 24.6735H148.245H148.155C148.155 24.6735 148.155 24.6735 148.065 24.6735C148.065 24.6735 147.974 24.5831 147.974 24.4927C147.974 24.4023 147.974 24.4023 148.065 24.312C148.065 24.312 148.065 24.312 148.155 24.312H148.245H148.336H148.426C148.517 24.312 148.517 24.4023 148.517 24.4927C148.517 24.4023 148.517 24.4927 148.517 24.4927ZM145.895 27.7469H146.528V28.2892H144.81V27.9277L145.534 27.2045C145.624 27.1141 145.714 26.9333 145.805 26.843C145.805 26.7526 145.895 26.6622 145.895 26.5718V26.4814V26.391H145.805H145.714H145.624C145.624 26.391 145.534 26.391 145.534 26.4814C145.443 26.5718 145.443 26.6622 145.443 26.6622V26.7526H144.81V26.6622C144.81 26.391 144.901 26.2102 145.082 26.0294C145.172 25.939 145.262 25.8486 145.353 25.8486C145.443 25.8486 145.534 25.7582 145.714 25.7582C145.895 25.7582 145.986 25.7582 146.076 25.8486C146.166 25.939 146.257 26.0294 146.347 26.1198C146.437 26.2102 146.438 26.391 146.438 26.4814C146.438 26.6622 146.347 26.843 146.347 26.9334C146.257 27.1141 146.076 27.2949 145.895 27.4757V27.7469ZM147.974 25.939C147.793 25.8486 147.703 25.7582 147.522 25.8486C147.432 25.8486 147.251 25.8486 147.161 25.939C147.07 26.0294 146.98 26.1198 146.889 26.2102C146.709 26.4814 146.618 26.843 146.709 27.1141C146.709 27.3853 146.709 27.5661 146.799 27.8373C146.889 28.0181 146.98 28.1085 147.07 28.1988C147.251 28.2892 147.341 28.2892 147.522 28.2892C147.703 28.2892 147.884 28.2892 147.974 28.1988C148.065 28.1085 148.245 27.9277 148.245 27.8373C148.426 27.3853 148.426 26.843 148.245 26.391C148.155 26.2102 148.065 26.0294 147.974 25.939ZM147.793 27.1141C147.793 27.2949 147.793 27.4757 147.703 27.6565C147.703 27.6565 147.703 27.7469 147.613 27.7469H147.522H147.432L147.341 27.6565C147.251 27.4757 147.251 27.2949 147.251 27.1141C147.251 26.9333 147.251 26.843 147.251 26.6622C147.251 26.5718 147.341 26.4814 147.341 26.4814L147.432 26.391C147.432 26.391 147.522 26.391 147.613 26.4814C147.703 26.6622 147.793 26.9333 147.793 27.1141ZM142.099 32.9897C142.189 33.0801 142.189 33.1705 142.279 33.2609C142.37 33.3513 142.37 33.4416 142.37 33.532C142.37 33.6224 142.37 33.7128 142.279 33.8936C142.189 34.0744 142.189 34.0744 142.099 34.1648C142.008 34.2552 141.918 34.3456 141.827 34.3456C141.737 34.3456 141.647 34.436 141.466 34.436C141.285 34.436 141.104 34.3456 140.924 34.2552C140.743 34.1648 140.652 33.984 140.652 33.8032V33.7128H141.285V33.8032C141.285 33.8936 141.375 33.8936 141.375 33.8936C141.466 33.8936 141.466 33.8936 141.556 33.8936C141.647 33.8936 141.647 33.8936 141.737 33.8032C141.827 33.7128 141.827 33.7128 141.827 33.6224C141.827 33.532 141.827 33.4417 141.737 33.4417L141.647 33.3513C141.556 33.3513 141.556 33.3513 141.556 33.3513L141.466 33.4417L141.014 33.3513L141.285 31.9954H142.46V32.5377H141.737V32.7185C141.827 32.7185 141.918 32.7185 142.008 32.8089C141.918 32.8993 142.008 32.8993 142.099 32.9897ZM129.624 29.8259L129.986 29.1028L129.444 28.8316L128.811 30.0067C128.72 30.0971 128.72 30.1875 128.63 30.3683C128.63 30.4587 128.63 30.5491 128.63 30.6395C128.63 30.7299 128.63 30.8202 128.72 30.9106C128.811 31.001 128.811 31.0914 128.901 31.1818C128.992 31.2722 129.172 31.3626 129.263 31.3626C129.444 31.3626 129.534 31.3626 129.715 31.3626C129.896 31.2722 129.986 31.1818 130.076 31.0914C130.167 31.001 130.167 30.8203 130.167 30.6395C130.167 30.5491 130.167 30.4587 130.076 30.3683C130.076 30.2779 129.986 30.1875 129.896 30.0971C129.896 29.9163 129.805 29.8259 129.624 29.8259ZM129.624 30.6395C129.624 30.7299 129.624 30.7299 129.534 30.8202C129.534 30.8202 129.534 30.8202 129.444 30.8202H129.353H129.263C129.263 30.8202 129.263 30.8202 129.172 30.8202C129.172 30.8202 129.082 30.7299 129.082 30.6395C129.082 30.5491 129.082 30.5491 129.172 30.4587C129.172 30.4587 129.172 30.4587 129.263 30.4587H129.353H129.444H129.534C129.624 30.4587 129.624 30.4587 129.624 30.6395C129.624 30.5491 129.624 30.5491 129.624 30.6395ZM131.794 33.0801C131.794 32.9897 131.884 32.9897 131.884 32.8993C131.884 32.8089 131.975 32.7185 131.975 32.6281C131.975 32.5377 131.975 32.3569 131.884 32.2665C131.794 32.1761 131.703 32.0858 131.613 31.9954C131.523 31.905 131.342 31.905 131.251 31.905C131.161 31.905 130.98 31.905 130.89 31.9954C130.799 32.0858 130.709 32.1761 130.619 32.2665C130.528 32.3569 130.528 32.5377 130.528 32.6281C130.528 32.7185 130.528 32.8089 130.619 32.8993C130.619 32.9897 130.709 32.9897 130.709 33.0801C130.619 33.1705 130.619 33.2609 130.528 33.2609C130.438 33.3513 130.438 33.532 130.438 33.6224C130.438 33.8032 130.438 33.8936 130.528 33.984C130.619 34.0744 130.709 34.1648 130.799 34.2552C130.98 34.3456 131.071 34.3456 131.251 34.3456C131.432 34.3456 131.523 34.3456 131.703 34.2552C131.794 34.1648 131.884 34.0744 131.975 33.984C132.065 33.8936 132.065 33.7128 132.065 33.6224C132.065 33.532 132.065 33.3513 131.975 33.2609C131.884 33.2609 131.884 33.1705 131.794 33.0801ZM131.342 32.8089C131.251 32.8089 131.251 32.8089 131.342 32.8089C131.251 32.8089 131.251 32.8993 131.251 32.8993C131.251 32.8993 131.251 32.8993 131.161 32.8993C131.161 32.8993 131.161 32.8993 131.071 32.8993C131.071 32.8993 131.071 32.8993 131.071 32.8089C131.071 32.8089 131.071 32.8089 131.071 32.7185C131.071 32.7185 131.071 32.7185 131.071 32.6281C131.071 32.6281 131.071 32.6281 131.071 32.5377C131.071 32.5377 131.071 32.5377 131.161 32.5377C131.161 32.5377 131.161 32.5377 131.251 32.5377C131.251 32.5377 131.251 32.5377 131.342 32.5377C131.342 32.5377 131.342 32.5377 131.432 32.5377C131.432 32.5377 131.432 32.5377 131.432 32.6281C131.432 32.6281 131.432 32.6281 131.432 32.7185C131.342 32.7185 131.342 32.7185 131.342 32.8089ZM130.98 33.532C131.071 33.4416 131.071 33.4417 131.161 33.4417C131.251 33.4417 131.251 33.4416 131.342 33.532C131.342 33.532 131.342 33.6224 131.432 33.6224V33.7128V33.8032C131.432 33.8032 131.432 33.8936 131.342 33.8936C131.251 33.8936 131.251 33.984 131.161 33.984C131.071 33.984 130.98 33.984 130.98 33.8936C130.98 33.8936 130.98 33.8936 130.89 33.8032V33.7128C130.89 33.6224 130.98 33.6224 130.98 33.532ZM129.624 32.8993L129.986 32.1761L129.444 31.905L128.811 33.0801C128.72 33.1705 128.72 33.2609 128.63 33.4417C128.63 33.532 128.63 33.6224 128.63 33.7128C128.63 33.8032 128.63 33.8936 128.72 33.984C128.811 34.0744 128.811 34.1648 128.901 34.2552C128.992 34.3456 129.172 34.436 129.263 34.436C129.444 34.436 129.534 34.436 129.715 34.436C129.896 34.436 129.986 34.2552 130.076 34.1648C130.167 34.0744 130.167 33.8936 130.167 33.7128C130.167 33.6224 130.167 33.532 130.076 33.4417C130.076 33.3513 129.986 33.2609 129.896 33.1705C129.896 32.9897 129.805 32.8993 129.624 32.8993ZM129.624 33.7128C129.624 33.8032 129.624 33.8032 129.534 33.8936C129.534 33.8936 129.534 33.8936 129.444 33.8936H129.353H129.263C129.263 33.8936 129.263 33.8936 129.172 33.8936C129.172 33.8936 129.082 33.8032 129.082 33.7128C129.082 33.6224 129.082 33.6224 129.172 33.532C129.172 33.532 129.172 33.532 129.263 33.532C129.353 33.532 129.353 33.532 129.353 33.532H129.444H129.534C129.624 33.532 129.624 33.532 129.624 33.7128C129.624 33.6224 129.624 33.6224 129.624 33.7128ZM133.059 32.8993L133.421 32.1761L132.879 31.905L132.246 33.0801C132.155 33.1705 132.155 33.2609 132.065 33.4417C132.065 33.532 132.065 33.6224 132.065 33.7128C132.065 33.8032 132.065 33.8936 132.155 33.984C132.246 34.0744 132.246 34.1648 132.336 34.2552C132.427 34.3456 132.607 34.436 132.698 34.436C132.879 34.436 132.969 34.436 133.15 34.436C133.33 34.3456 133.421 34.2552 133.511 34.1648C133.602 34.0744 133.602 33.8936 133.602 33.7128C133.602 33.6224 133.602 33.532 133.511 33.4417C133.511 33.3513 133.421 33.2609 133.331 33.1705C133.331 32.9897 133.24 32.8993 133.059 32.8993ZM133.059 33.7128C133.059 33.8032 133.059 33.8032 132.969 33.8936C132.969 33.8936 132.969 33.8936 132.879 33.8936H132.788H132.698C132.698 33.8936 132.698 33.8936 132.607 33.8936C132.607 33.8936 132.517 33.8032 132.517 33.7128C132.517 33.6224 132.517 33.6224 132.607 33.532C132.607 33.532 132.607 33.532 132.698 33.532H132.788H132.879H132.969C133.059 33.532 133.059 33.532 133.059 33.7128C133.059 33.6224 133.059 33.6224 133.059 33.7128ZM137.217 32.3569L136.223 34.436L135.681 34.1648L136.494 32.5377H135.59V31.9954H137.217V32.3569ZM138.754 31.9954H138.212L137.217 33.4417V33.984H138.212V34.436H138.844V33.984H139.025V33.4417H138.844V31.9954H138.754ZM137.85 33.3513L138.121 32.9897V33.3513H137.85ZM134.596 31.9954C134.506 31.9954 134.415 31.9954 134.325 32.0858C134.234 32.0858 134.144 32.1761 134.054 32.2665C133.963 32.3569 133.963 32.4473 133.873 32.5377C133.873 32.6281 133.782 32.7185 133.782 32.8089C133.782 32.8993 133.782 32.9897 133.873 33.0801C133.873 33.1705 133.963 33.2609 134.054 33.3513C134.144 33.4417 134.325 33.532 134.415 33.532L134.054 34.2552L134.596 34.5264L135.229 33.3513C135.319 33.2609 135.319 33.1705 135.41 32.9897C135.41 32.8993 135.41 32.8089 135.41 32.7185C135.41 32.6281 135.41 32.5377 135.319 32.4473C135.319 32.3569 135.229 32.2665 135.138 32.1761C135.048 32.0858 134.958 31.9954 134.867 31.9954C134.867 31.9954 134.777 31.9954 134.596 31.9954ZM134.867 32.7185C134.867 32.8089 134.867 32.8089 134.777 32.8993C134.777 32.8993 134.777 32.8993 134.686 32.8993H134.596H134.506C134.506 32.8993 134.506 32.8993 134.415 32.8993C134.415 32.8993 134.415 32.8993 134.415 32.8089V32.7185V32.6281V32.5377C134.415 32.5377 134.415 32.5377 134.506 32.5377H134.596H134.686C134.686 32.5377 134.686 32.5377 134.777 32.5377C134.777 32.6281 134.777 32.6281 134.867 32.7185ZM145.172 18.4364L145.082 18.5268H145.714V19.0692H143.997V18.7076L144.72 17.9844C144.81 17.894 144.901 17.7133 144.991 17.6229C144.991 17.5325 145.082 17.4421 145.082 17.3517V17.2613V17.1709H144.991H144.901H144.81C144.81 17.1709 144.72 17.1709 144.72 17.2613C144.63 17.3517 144.63 17.4421 144.63 17.4421V17.5325H144.087V17.4421C144.087 17.1709 144.178 16.9901 144.358 16.8093C144.449 16.7189 144.539 16.6285 144.63 16.6285C144.72 16.6285 144.81 16.5381 144.991 16.5381C145.172 16.5381 145.262 16.5381 145.353 16.6285C145.443 16.7189 145.534 16.8093 145.624 16.8997C145.714 16.9901 145.714 17.1709 145.714 17.2613C145.714 17.4421 145.624 17.6229 145.624 17.7133C145.534 18.0748 145.353 18.2556 145.172 18.4364ZM143.183 13.9167C143.003 14.1879 143.003 14.5495 143.003 14.8207C143.003 15.0919 143.003 15.2726 143.093 15.5438C143.183 15.7246 143.274 15.815 143.364 15.9054C143.545 15.9958 143.635 15.9958 143.816 15.9958C143.997 15.9958 144.178 15.9958 144.268 15.9054C144.358 15.815 144.539 15.6342 144.539 15.5438C144.72 15.0919 144.72 14.5495 144.539 14.0975C144.449 13.9167 144.358 13.8264 144.268 13.736C144.087 13.6456 143.997 13.5552 143.816 13.6456C143.726 13.6456 143.545 13.6456 143.455 13.736C143.364 13.736 143.274 13.8264 143.183 13.9167ZM144.087 14.2783C144.178 14.4591 144.178 14.6399 144.178 14.8207C144.178 15.0015 144.178 15.1823 144.087 15.363C144.087 15.363 144.087 15.4534 143.997 15.4534H143.906H143.816L143.726 15.363C143.635 15.1823 143.635 15.0015 143.635 14.8207C143.635 14.6399 143.635 14.5495 143.635 14.3687C143.635 14.2783 143.726 14.1879 143.726 14.1879L143.816 14.0975C143.906 14.1879 143.997 14.1879 144.087 14.2783ZM139.748 3.79272C139.839 3.79272 139.929 3.79272 140.02 3.70233C140.11 3.70233 140.2 3.61194 140.291 3.52155C140.381 3.43115 140.381 3.34076 140.472 3.25036C140.472 3.15997 140.562 3.06958 140.562 2.97919C140.562 2.8888 140.562 2.7984 140.472 2.70801C140.472 2.61761 140.381 2.52722 140.291 2.43682C140.2 2.34643 140.02 2.25604 139.929 2.25604L140.291 1.53289L139.748 1.26172L139.116 2.43682C139.025 2.52722 139.025 2.61761 138.935 2.7984C138.935 2.88879 138.935 2.97919 138.935 3.06958C138.935 3.15997 138.935 3.25036 139.025 3.34076C139.025 3.43115 139.116 3.52154 139.206 3.61194C139.296 3.70233 139.387 3.79272 139.477 3.79272C139.568 3.79272 139.658 3.79272 139.748 3.79272ZM139.568 3.06958C139.568 2.97919 139.568 2.97918 139.658 2.88879C139.658 2.88879 139.658 2.88879 139.748 2.88879H139.839H139.929H140.02C140.02 2.88879 140.02 2.8888 140.02 2.97919V3.06958V3.15997V3.25036C140.02 3.25036 140.02 3.25036 139.929 3.25036H139.839H139.748C139.748 3.25036 139.748 3.25036 139.658 3.25036C139.568 3.15997 139.568 3.15997 139.568 3.06958ZM141.466 16.6285L140.833 17.8036C140.743 17.894 140.743 17.9844 140.652 18.1652C140.652 18.2556 140.652 18.346 140.652 18.4364C140.652 18.5268 140.652 18.6172 140.743 18.7076C140.743 18.798 140.833 18.8884 140.924 18.9788C141.014 19.0692 141.195 19.1595 141.285 19.1595C141.466 19.1595 141.556 19.1595 141.737 19.1595C141.918 19.1595 142.008 18.9788 142.099 18.8884C142.189 18.798 142.189 18.6172 142.189 18.4364C142.189 18.346 142.189 18.2556 142.099 18.1652C142.099 18.0748 142.008 17.9844 141.918 17.894C141.827 17.8037 141.647 17.7133 141.556 17.7133L141.918 16.9901L141.466 16.6285ZM141.647 18.346C141.647 18.346 141.647 18.4364 141.647 18.346C141.647 18.4364 141.647 18.4364 141.556 18.5268C141.556 18.5268 141.556 18.5268 141.466 18.5268H141.375H141.285C141.285 18.5268 141.285 18.5268 141.195 18.5268C141.195 18.5268 141.104 18.4364 141.104 18.346C141.104 18.2556 141.104 18.2556 141.195 18.1652C141.195 18.1652 141.195 18.1652 141.285 18.1652C141.375 18.1652 141.375 18.1652 141.375 18.1652H141.466H141.556C141.647 18.2556 141.647 18.2556 141.647 18.346C141.647 18.2556 141.647 18.346 141.647 18.346ZM144.901 10.4818L144.268 11.6569C144.178 11.7473 144.178 11.8377 144.087 12.0185C144.087 12.1089 144.087 12.1993 144.087 12.2897C144.087 12.3801 144.087 12.4705 144.178 12.5609C144.268 12.6512 144.268 12.7416 144.358 12.832C144.449 12.9224 144.63 13.0128 144.72 13.0128C144.901 13.0128 144.991 13.0128 145.172 13.0128C145.353 12.9224 145.443 12.832 145.534 12.7416C145.624 12.6512 145.624 12.4705 145.624 12.2897C145.624 12.1993 145.624 12.1089 145.534 12.0185C145.534 11.9281 145.443 11.8377 145.353 11.7473C145.262 11.6569 145.082 11.5665 144.991 11.5665L145.353 10.8434L144.901 10.4818ZM145.082 12.1993C145.082 12.2897 145.082 12.2897 145.082 12.1993C145.082 12.2897 145.082 12.2897 144.991 12.3801C144.991 12.3801 144.991 12.3801 144.901 12.3801H144.81H144.72C144.72 12.3801 144.72 12.3801 144.63 12.3801C144.63 12.3801 144.539 12.2897 144.539 12.1993C144.539 12.1089 144.539 12.1089 144.63 12.0185C144.63 12.0185 144.63 12.0185 144.72 12.0185H144.81H144.901H144.991C145.082 12.1089 145.082 12.1089 145.082 12.1993ZM142.46 15.363L142.37 15.4534H143.003V15.9958H141.285V15.6342L142.008 14.9111C142.099 14.8207 142.189 14.6399 142.279 14.5495C142.279 14.4591 142.37 14.3687 142.37 14.2783V14.1879V14.0975C142.37 14.0975 142.279 14.0975 142.279 14.0071H142.189H142.099C142.099 14.0071 142.008 14.0071 142.008 14.0975C141.918 14.1879 141.918 14.2783 141.918 14.2783V14.3687H141.375V14.2783C141.375 14.0071 141.466 13.8264 141.647 13.6456C141.737 13.5552 141.827 13.4648 141.918 13.4648C142.008 13.4648 142.099 13.3744 142.279 13.3744C142.46 13.3744 142.551 13.3744 142.641 13.4648C142.731 13.5552 142.822 13.6456 142.912 13.736C143.003 13.8264 143.003 14.0071 143.003 14.0975C143.003 14.2783 142.912 14.4591 142.912 14.5495C142.731 15.0015 142.551 15.1823 142.46 15.363ZM139.839 20.5154C139.839 20.6058 139.839 20.6962 139.929 20.7866C139.929 20.877 140.02 20.9674 140.11 21.0578C140.2 21.1482 140.381 21.2386 140.472 21.2386L140.11 21.9617L140.652 22.2329L141.285 21.0578C141.375 20.9674 141.375 20.877 141.466 20.6962C141.466 20.6058 141.466 20.5154 141.466 20.425C141.466 20.3347 141.466 20.2443 141.375 20.1539C141.375 20.0635 141.285 19.9731 141.195 19.8827C141.104 19.7923 140.924 19.7019 140.833 19.7019C140.652 19.7019 140.562 19.7019 140.381 19.7019C140.2 19.7923 140.11 19.8827 140.02 19.9731C139.929 20.1539 139.839 20.3347 139.839 20.5154ZM140.472 20.5154C140.472 20.425 140.472 20.425 140.472 20.5154C140.472 20.425 140.472 20.425 140.562 20.3347C140.562 20.3347 140.562 20.3347 140.652 20.3347H140.743H140.833C140.833 20.3347 140.833 20.3347 140.924 20.3347C140.924 20.3347 140.924 20.3347 140.924 20.425C140.924 20.5154 140.924 20.5154 140.924 20.5154C140.924 20.6058 140.924 20.6058 140.833 20.6962C140.833 20.6962 140.833 20.6962 140.743 20.6962H140.652H140.562C140.562 20.6962 140.562 20.6962 140.472 20.6962C140.472 20.6058 140.472 20.6058 140.472 20.5154ZM142.279 22.2329C142.099 22.2329 141.918 22.1425 141.737 22.0521C141.556 21.9617 141.466 21.7809 141.466 21.6002V21.5098H142.099V21.6002C142.099 21.6906 142.189 21.6905 142.189 21.6905C142.279 21.6905 142.279 21.6905 142.37 21.6905C142.46 21.6905 142.46 21.6906 142.551 21.6002C142.641 21.5098 142.641 21.5098 142.641 21.4194C142.641 21.329 142.641 21.2386 142.551 21.2386L142.46 21.1482C142.37 21.1482 142.37 21.1482 142.37 21.1482L142.279 21.2386L141.827 21.1482L142.099 19.7923H143.274V20.3347H142.551V20.5154C142.641 20.5154 142.731 20.5154 142.822 20.6058C142.912 20.6058 143.003 20.6962 143.093 20.7866C143.183 20.877 143.183 20.9674 143.274 21.0578C143.274 21.1482 143.364 21.2386 143.364 21.329C143.364 21.4194 143.364 21.5098 143.274 21.6905C143.274 21.7809 143.183 21.8713 143.093 21.9617C143.003 22.0521 142.912 22.1425 142.822 22.1425C142.551 22.1425 142.37 22.2329 142.279 22.2329ZM143.635 10.6626C143.455 10.5722 143.364 10.4818 143.183 10.5722C143.093 10.5722 142.912 10.5722 142.822 10.6626C142.731 10.753 142.641 10.8434 142.551 10.9338C142.37 11.205 142.37 11.5665 142.37 11.8377C142.37 12.1089 142.37 12.2897 142.46 12.5609C142.551 12.7416 142.641 12.832 142.731 12.9224C142.912 13.0128 143.003 13.0128 143.183 13.0128C143.364 13.0128 143.545 13.0128 143.635 12.9224C143.726 12.832 143.906 12.6512 143.906 12.5609C143.997 12.2897 143.997 12.1089 143.997 11.8377C143.997 11.5665 143.997 11.3857 143.906 11.1146C143.906 10.9338 143.816 10.753 143.635 10.6626ZM143.455 11.7473C143.455 11.9281 143.455 12.1089 143.364 12.2897C143.364 12.2897 143.364 12.3801 143.274 12.3801H143.183H143.093L143.003 12.2897C142.912 12.1089 142.912 11.9281 142.912 11.7473C142.912 11.5665 142.912 11.4761 142.912 11.2953C142.912 11.205 143.003 11.1146 143.003 11.1146L143.093 11.0242C143.093 11.0242 143.183 11.0242 143.274 11.1146C143.455 11.3857 143.455 11.5665 143.455 11.7473ZM142.008 25.0351C142.099 24.9447 142.099 24.8543 142.189 24.7639C142.189 24.6735 142.279 24.5831 142.279 24.4927C142.279 24.4023 142.279 24.312 142.189 24.2216C142.099 24.1312 142.099 24.0408 142.008 23.9504C141.918 23.86 141.737 23.7696 141.647 23.7696L142.008 23.0464L141.466 22.7753L140.833 23.9504C140.743 24.0408 140.743 24.1312 140.652 24.312C140.652 24.4023 140.652 24.4927 140.652 24.5831C140.652 24.6735 140.652 24.7639 140.743 24.8543C140.833 24.9447 140.833 25.0351 140.924 25.1255C141.014 25.2159 141.104 25.2159 141.195 25.3063C141.285 25.3063 141.375 25.3967 141.466 25.3967C141.556 25.3967 141.647 25.3967 141.737 25.3063C141.827 25.1255 141.918 25.1255 142.008 25.0351ZM141.285 24.4927C141.285 24.4023 141.285 24.4023 141.375 24.312C141.375 24.312 141.375 24.312 141.466 24.312H141.556H141.647H141.737C141.737 24.312 141.737 24.3119 141.737 24.4023V24.4927V24.5831V24.6735C141.737 24.6735 141.737 24.6735 141.647 24.6735H141.556H141.466C141.466 24.6735 141.466 24.6735 141.375 24.6735C141.285 24.5831 141.285 24.5831 141.285 24.4927ZM145.986 21.5098L145.895 21.6002H146.528V22.1425H144.81V21.7809L145.534 21.0578C145.624 20.9674 145.714 20.7866 145.805 20.6962C145.805 20.6058 145.895 20.5154 145.895 20.425V20.3347V20.2443H145.805H145.714H145.624C145.624 20.2443 145.534 20.2443 145.534 20.3347C145.443 20.425 145.443 20.5154 145.443 20.5154V20.6058H144.81V20.5154C144.81 20.2443 144.901 20.0635 145.082 19.8827C145.172 19.7923 145.262 19.7019 145.353 19.7019C145.443 19.7019 145.534 19.6115 145.714 19.6115C145.895 19.6115 145.986 19.6115 146.076 19.7019C146.166 19.7923 146.257 19.8827 146.347 19.9731C146.437 20.0635 146.438 20.2443 146.438 20.3347C146.438 20.5154 146.347 20.6962 146.347 20.7866C146.347 21.1482 146.166 21.329 145.986 21.5098ZM141.556 7.49884L140.562 8.94513V9.48749H141.556V9.93945H142.189V9.48749H142.37V8.94513H142.189V7.49884H141.556ZM141.285 8.85474L141.556 8.49316V8.85474H141.285ZM145.082 9.3067C145.172 9.21631 145.172 9.21631 145.172 9.12591C145.172 9.03552 145.172 8.94513 145.082 8.94513L144.991 8.85474C144.901 8.85474 144.901 8.85474 144.901 8.85474L144.81 8.94513L144.358 8.85474L144.63 7.49884H145.805V8.0412H144.991V8.22198C145.082 8.22198 145.172 8.22198 145.262 8.31237C145.353 8.31237 145.443 8.40277 145.534 8.49316C145.624 8.58356 145.624 8.67395 145.714 8.76434C145.805 8.85473 145.805 8.94513 145.805 9.03552C145.805 9.12591 145.805 9.21631 145.714 9.39709C145.714 9.48749 145.624 9.57788 145.534 9.66827C145.443 9.75866 145.353 9.84906 145.262 9.84906C145.172 9.84906 145.082 9.93945 144.901 9.93945C144.72 9.93945 144.539 9.84906 144.358 9.75867C144.178 9.66827 144.087 9.48749 144.087 9.3067V9.2163H144.72V9.3067C144.72 9.3971 144.81 9.39709 144.81 9.39709C144.901 9.39709 144.901 9.39709 144.991 9.39709C144.991 9.39709 144.991 9.3067 145.082 9.3067ZM144.72 22.1425V21.6905H144.901V21.1482H144.72V19.7019H144.178L143.183 21.1482V21.6905H144.178V22.1425H144.72ZM143.906 21.1482L144.178 20.7866V21.1482H143.906ZM143.183 25.3063L143.816 24.1312C143.906 24.0408 143.906 23.9504 143.997 23.7696C143.997 23.6792 143.997 23.5888 143.997 23.4984C143.997 23.408 143.997 23.3176 143.906 23.2272C143.906 23.1368 143.816 23.0464 143.726 22.9561C143.635 22.8657 143.455 22.7753 143.364 22.7753C143.183 22.7753 143.093 22.7753 142.912 22.7753C142.731 22.8657 142.641 22.9561 142.551 23.0464C142.46 23.1368 142.46 23.3176 142.46 23.4984C142.46 23.5888 142.46 23.6792 142.551 23.7696C142.551 23.86 142.641 23.9504 142.731 24.0408C142.822 24.1312 143.003 24.2216 143.093 24.2216L142.731 24.9447L143.183 25.3063ZM143.003 23.5888C143.003 23.4984 143.003 23.4984 143.003 23.5888C143.003 23.4984 143.003 23.4984 143.093 23.408C143.093 23.408 143.093 23.408 143.183 23.408H143.274H143.364C143.364 23.408 143.364 23.408 143.455 23.408C143.455 23.408 143.455 23.408 143.455 23.4984V23.5888C143.455 23.6792 143.455 23.6792 143.364 23.7696C143.364 23.7696 143.364 23.7696 143.274 23.7696C143.183 23.7696 143.183 23.7696 143.183 23.7696H143.093C143.093 23.7696 143.093 23.7696 143.003 23.7696C143.093 23.6792 143.003 23.6792 143.003 23.5888ZM140.562 14.5495C140.562 14.4591 140.652 14.3687 140.652 14.2783V14.1879V14.0975H140.562H140.472H140.381C140.381 14.0975 140.291 14.0975 140.291 14.1879C140.2 14.2783 140.2 14.3687 140.2 14.3687V14.4591H139.568V14.3687C139.568 14.0975 139.658 13.9167 139.839 13.736C139.929 13.6456 140.02 13.5552 140.11 13.5552C140.2 13.5552 140.291 13.4648 140.472 13.4648C140.652 13.4648 140.743 13.4648 140.833 13.5552C140.924 13.6456 141.014 13.736 141.104 13.8264C141.195 13.9167 141.195 14.0975 141.195 14.1879C141.195 14.3687 141.104 14.5495 141.104 14.6399C141.014 14.8207 140.833 15.0015 140.652 15.1823L140.562 15.2726H141.195V15.815H139.568V15.4534L140.291 14.7303C140.381 14.8207 140.472 14.7303 140.562 14.5495ZM141.647 11.5665C141.647 11.4761 141.737 11.3857 141.737 11.2953V11.205V11.1146H141.647H141.556H141.466C141.466 11.1146 141.375 11.1146 141.375 11.205C141.285 11.2953 141.285 11.3857 141.285 11.3857V11.4761H140.652V11.3857C140.652 11.1146 140.743 10.9338 140.924 10.753C141.014 10.6626 141.104 10.5722 141.195 10.5722C141.285 10.5722 141.375 10.4818 141.556 10.4818C141.737 10.4818 141.827 10.4818 141.918 10.5722C142.008 10.6626 142.099 10.753 142.189 10.8434C142.279 10.9338 142.279 11.1146 142.279 11.205C142.279 11.3857 142.189 11.5665 142.189 11.6569C142.099 11.8377 141.918 12.0185 141.737 12.1993L141.647 12.2897H142.279V12.832H140.562V12.4705L141.285 11.7473C141.466 11.8377 141.556 11.6569 141.647 11.5665ZM140.652 28.3796L141.285 27.2045C141.375 27.1141 141.375 27.0237 141.466 26.843C141.466 26.7526 141.466 26.6622 141.466 26.5718C141.466 26.4814 141.466 26.391 141.375 26.3006C141.375 26.2102 141.285 26.1198 141.195 26.0294C141.104 25.939 140.924 25.8486 140.833 25.8486C140.652 25.8486 140.562 25.8486 140.381 25.8486C140.2 25.939 140.11 26.0294 140.02 26.1198C139.929 26.2102 139.929 26.391 139.929 26.5718C139.929 26.6622 139.929 26.7526 140.02 26.843C140.02 26.9333 140.11 27.0237 140.2 27.1141C140.291 27.2045 140.472 27.2949 140.562 27.2949L140.2 28.0181L140.652 28.3796ZM140.472 26.5718C140.472 26.4814 140.472 26.4814 140.562 26.391C140.562 26.391 140.562 26.391 140.652 26.391H140.743H140.833C140.833 26.391 140.833 26.391 140.924 26.391C140.924 26.391 140.924 26.391 140.924 26.4814V26.5718C140.924 26.6622 140.924 26.6622 140.833 26.7526C140.833 26.7526 140.833 26.7526 140.743 26.7526H140.652H140.562C140.562 26.7526 140.562 26.7526 140.472 26.7526C140.472 26.7526 140.472 26.7526 140.472 26.5718C140.472 26.6622 140.472 26.6622 140.472 26.5718ZM142.822 16.7189H143.997V17.2613H143.274V17.4421C143.364 17.4421 143.455 17.4421 143.545 17.5325C143.635 17.5325 143.726 17.6229 143.816 17.7133C143.906 17.8036 143.906 17.894 143.997 17.9844C143.997 18.0748 144.087 18.1652 144.087 18.2556C144.087 18.346 144.087 18.4364 143.997 18.6172C143.997 18.7076 143.906 18.798 143.816 18.8884C143.726 18.9788 143.635 19.0692 143.545 19.0692C143.455 19.0692 143.364 19.1595 143.183 19.1595C143.003 19.1595 142.822 19.0692 142.641 18.9788C142.46 18.8884 142.37 18.7076 142.37 18.5268V18.4364H143.003V18.5268C143.003 18.6172 143.093 18.6172 143.093 18.6172C143.183 18.6172 143.183 18.6172 143.274 18.6172C143.364 18.6172 143.364 18.6172 143.455 18.5268C143.545 18.4364 143.545 18.4364 143.545 18.346C143.545 18.2556 143.545 18.1652 143.455 18.1652L143.364 18.0748C143.274 18.0748 143.274 18.0748 143.274 18.0748L143.183 18.1652L142.731 18.0748L142.822 16.7189ZM144.991 5.05822H144.087V4.51587H145.714V4.87744L144.72 6.95648L144.178 6.6853L144.991 5.05822ZM143.183 27.4757V27.3853H143.726V27.4757C143.726 27.5661 143.726 27.6565 143.816 27.6565C143.906 27.6565 143.906 27.7469 143.997 27.7469C144.087 27.7469 144.087 27.7469 144.178 27.6565C144.178 27.6565 144.178 27.5661 144.268 27.5661V27.4757V27.3853C144.268 27.3853 144.268 27.2949 144.178 27.2949C144.087 27.2045 143.997 27.2045 143.816 27.2045H143.726V26.6622H143.816C143.906 26.6622 143.906 26.6622 143.997 26.6622C143.997 26.6622 144.087 26.6622 144.087 26.5718V26.4814C144.087 26.4814 144.087 26.4814 144.087 26.391C144.087 26.391 144.087 26.391 143.997 26.391C143.906 26.391 143.997 26.391 143.906 26.391H143.816L143.726 26.4814V26.5718H143.183V26.4814C143.183 26.3006 143.274 26.1198 143.455 26.0294C143.635 25.939 143.816 25.8486 143.997 25.8486C144.178 25.8486 144.358 25.939 144.539 26.0294C144.63 26.1198 144.63 26.1198 144.72 26.2102C144.72 26.3006 144.81 26.391 144.81 26.4814C144.81 26.5718 144.81 26.6622 144.72 26.843C144.72 26.9333 144.63 26.9334 144.63 26.9334C144.72 26.9334 144.81 27.0237 144.81 27.1141C144.901 27.2045 144.901 27.3853 144.901 27.4757C144.901 27.5661 144.901 27.6565 144.81 27.7469C144.81 27.8373 144.72 27.9277 144.63 28.0181C144.449 28.1989 144.268 28.2892 143.997 28.2892C143.906 28.2892 143.816 28.2892 143.726 28.1988C143.635 28.1988 143.545 28.1085 143.455 28.0181C143.274 27.9277 143.183 27.7469 143.183 27.4757ZM145.805 23.1368L144.81 25.2159L144.268 24.9447L145.082 23.3176H144.178V22.7753H145.805V23.1368ZM143.274 5.05822H142.37V4.51587H143.997V4.87744L143.003 6.95648L142.46 6.6853L143.274 5.05822ZM146.347 8.40277H145.714V8.31237C145.714 8.04119 145.805 7.86041 145.986 7.67963C146.076 7.58923 146.166 7.49884 146.257 7.49884C146.347 7.49884 146.437 7.40844 146.618 7.40844C146.799 7.40844 146.889 7.40845 146.98 7.49884C147.07 7.58923 147.161 7.67962 147.251 7.77002C147.341 7.86041 147.341 8.0412 147.341 8.13159C147.341 8.31238 147.251 8.49316 147.251 8.58356C147.161 8.76434 146.98 8.94513 146.799 9.12591L146.709 9.2163H147.341V9.75867H145.624V9.39709L146.347 8.67395C146.437 8.58355 146.528 8.40277 146.618 8.31237C146.618 8.22198 146.709 8.13159 146.709 8.0412V7.95081V7.86041H146.618H146.528H146.438C146.438 7.86041 146.347 7.86041 146.347 7.95081C146.437 8.13159 146.347 8.22199 146.347 8.40277ZM141.647 3.15997C141.737 3.06958 141.737 3.06958 141.737 2.97919C141.737 2.8888 141.737 2.7984 141.647 2.7984L141.556 2.70801C141.466 2.70801 141.466 2.70801 141.466 2.70801L141.375 2.7984L140.924 2.70801L141.195 1.35211H142.37V1.89447H141.647V2.07526C141.737 2.07526 141.827 2.07526 141.918 2.16565C142.008 2.16565 142.099 2.25604 142.189 2.34643C142.279 2.43683 142.279 2.52722 142.37 2.61761C142.46 2.70801 142.46 2.7984 142.46 2.88879C142.46 2.97918 142.46 3.06958 142.37 3.25036C142.37 3.34076 142.279 3.43115 142.189 3.52155C142.099 3.61194 142.008 3.70233 141.918 3.70233C141.827 3.70233 141.737 3.79272 141.556 3.79272C141.375 3.79272 141.195 3.70233 141.014 3.61194C140.833 3.52154 140.743 3.34076 140.743 3.15997V3.06958H141.375V3.15997C141.375 3.25036 141.466 3.25036 141.466 3.25036C141.556 3.25036 141.556 3.25036 141.647 3.25036C141.556 3.25036 141.556 3.25036 141.647 3.15997ZM141.918 4.51587C141.737 4.42547 141.647 4.33508 141.466 4.42548C141.375 4.42548 141.195 4.42547 141.104 4.51587C141.014 4.60626 140.924 4.69666 140.833 4.78705C140.652 5.05823 140.652 5.4198 140.652 5.69098C140.652 5.96216 140.652 6.14294 140.743 6.41412C140.833 6.59491 140.924 6.6853 141.014 6.77569C141.195 6.86609 141.285 6.86609 141.466 6.86609C141.647 6.86609 141.827 6.86609 141.918 6.77569C142.008 6.6853 142.189 6.50451 142.189 6.41412C142.279 6.14294 142.279 5.96216 142.279 5.69098C142.279 5.4198 142.279 5.23901 142.189 4.96783C142.189 4.78705 142.099 4.60626 141.918 4.51587ZM141.737 5.60058C141.737 5.78137 141.737 5.96216 141.647 6.14295C141.647 6.14295 141.647 6.23334 141.556 6.23334H141.466H141.375L141.285 6.14295C141.195 5.96216 141.195 5.78137 141.195 5.60058C141.195 5.4198 141.195 5.3294 141.195 5.14862C141.195 5.05822 141.285 4.96783 141.285 4.96783L141.375 4.87744C141.375 4.87744 141.466 4.87744 141.556 4.96783C141.737 5.23901 141.737 5.4198 141.737 5.60058ZM143.183 9.93945C143.274 9.93945 143.364 9.93945 143.455 9.84906C143.545 9.84906 143.635 9.75866 143.726 9.66827C143.816 9.57788 143.816 9.48749 143.906 9.39709C143.906 9.3067 143.997 9.21631 143.997 9.12591C143.997 9.03552 143.997 8.94513 143.906 8.85474C143.906 8.76434 143.816 8.67395 143.726 8.58356C143.635 8.49316 143.455 8.40277 143.364 8.40277L143.726 7.67963L143.183 7.40844L142.551 8.58356C142.46 8.67395 142.46 8.76434 142.37 8.94513C142.37 9.03552 142.37 9.12591 142.37 9.2163C142.37 9.3067 142.37 9.39709 142.46 9.48749C142.46 9.57788 142.551 9.66827 142.641 9.75867C142.731 9.84906 142.822 9.93945 142.912 9.93945C143.003 9.93945 143.093 9.93945 143.183 9.93945ZM143.003 9.12591C143.003 9.03552 143.003 9.03552 143.093 8.94513C143.093 8.94513 143.093 8.94513 143.183 8.94513C143.274 8.94513 143.274 8.94513 143.274 8.94513H143.364H143.455C143.455 8.94513 143.455 8.94513 143.455 9.03552V9.12591V9.2163V9.3067C143.455 9.3067 143.455 9.3067 143.364 9.3067H143.274H143.183C143.183 9.3067 143.183 9.3067 143.093 9.3067C143.003 9.3067 143.003 9.3067 143.003 9.12591C143.003 9.21631 143.003 9.21631 143.003 9.12591ZM137.037 31.3626C137.127 31.3626 137.217 31.3626 137.308 31.2722C137.398 31.2722 137.489 31.1818 137.579 31.0914C137.669 31.001 137.669 30.9106 137.76 30.8202C137.76 30.7299 137.85 30.6395 137.85 30.5491C137.85 30.4587 137.85 30.3683 137.76 30.2779C137.76 30.1875 137.669 30.0971 137.579 30.0067C137.489 29.9163 137.308 29.8259 137.217 29.8259L137.579 29.1028L137.037 28.8316L136.404 30.0067C136.313 30.0971 136.313 30.1875 136.223 30.3683C136.223 30.4587 136.223 30.5491 136.223 30.6395C136.223 30.7299 136.223 30.8202 136.313 30.9106C136.404 31.001 136.404 31.0914 136.494 31.1818C136.585 31.2722 136.675 31.3626 136.765 31.3626C136.765 31.3626 136.856 31.3626 137.037 31.3626ZM136.765 30.6395C136.765 30.5491 136.765 30.5491 136.856 30.4587C136.856 30.4587 136.856 30.4587 136.946 30.4587H137.037H137.127H137.217C137.217 30.4587 137.217 30.4587 137.217 30.5491V30.6395V30.7299V30.8202C137.217 30.8202 137.217 30.8202 137.127 30.8202H137.037H136.946C136.946 30.8202 136.946 30.8202 136.856 30.8202C136.856 30.7299 136.856 30.7299 136.765 30.6395ZM136.585 13.6456H137.308V15.9958H136.675V14.1879H136.133L136.585 13.6456ZM139.025 7.49884H140.652V7.86041L139.658 9.93945L139.116 9.66827L139.929 8.0412H139.025V7.49884ZM143.183 26.2102L142.189 28.2892L141.647 28.0181L142.46 26.391H141.556V25.8486H143.183V26.2102ZM137.941 13.6456H139.568V14.0071L138.573 16.0862L138.031 15.815L138.844 14.1879H137.941V13.6456ZM143.003 31.3626H141.285V31.001L142.008 30.2779C142.099 30.1875 142.189 30.0067 142.279 29.9163C142.279 29.8259 142.37 29.7355 142.37 29.6451V29.5547V29.4644H142.279H142.189H142.099C142.099 29.4644 142.008 29.4644 142.008 29.5547C141.918 29.6451 141.918 29.7355 141.918 29.7355V29.8259H141.375V29.7355C141.375 29.4644 141.466 29.2836 141.647 29.1028C141.737 29.0124 141.827 28.922 141.918 28.922C142.008 28.922 142.099 28.8316 142.279 28.8316C142.46 28.8316 142.551 28.8316 142.641 28.922C142.731 29.0124 142.822 29.1028 142.912 29.1932C143.003 29.2836 143.003 29.4644 143.003 29.5547C143.003 29.7355 142.912 29.9163 142.912 30.0067C142.822 30.1875 142.641 30.3683 142.46 30.5491L142.37 30.6395H143.003V31.3626ZM137.85 19.1595L137.308 18.8884L138.121 17.2613H137.217V16.7189H138.844V17.0805L137.85 19.1595ZM139.839 19.0692H140.472V18.6172H140.652V18.0748H140.472V16.6285H139.929L138.935 18.0748V18.6172H139.929V19.0692H139.839ZM139.568 18.0748L139.839 17.7133V18.0748H139.568Z" fill="#CFB764"/>
<path d="M69.3315 0C69.8739 0 70.3259 0.0903958 70.8682 0.271182C71.3202 0.451968 71.7722 0.723147 72.1337 1.17511C72.4953 1.53669 72.7665 1.98864 73.0377 2.44061C73.3088 2.89258 73.3088 3.43494 73.3088 3.9773C73.3088 4.51966 73.2184 4.97162 73.0377 5.51398C72.8569 5.96594 72.5857 6.41791 72.2241 6.77948C71.8626 7.14105 71.4106 7.41223 70.9586 7.68341C70.5067 7.8642 69.9643 7.95459 69.5123 7.95459C68.97 7.95459 68.518 7.8642 67.9757 7.68341C67.5237 7.50263 67.0717 7.14105 66.7101 6.77948C66.3486 6.41791 66.0774 5.96594 65.8062 5.42358C65.6254 4.97162 65.535 4.42926 65.535 3.88691C65.535 3.34455 65.6254 2.89258 65.8062 2.35022C65.987 1.89825 66.2582 1.44629 66.6198 1.08471C66.9813 0.723142 67.4333 0.451968 67.8853 0.271182C68.3372 0.0903958 68.7892 0 69.3315 0Z" fill="#CFB764"/>
</svg>
